<?xml version="1.0" encoding="utf-8"?>
<!-- Generator: Adobe Illustrator 16.0.4, SVG Export Plug-In . SVG Version: 6.00 Build 0)  -->
<!DOCTYPE svg PUBLIC "-//W3C//DTD SVG 1.1//EN" "http://www.w3.org/Graphics/SVG/1.1/DTD/svg11.dtd">
<svg version="1.1" id="Layer_1" xmlns="http://www.w3.org/2000/svg" xmlns:xlink="http://www.w3.org/1999/xlink" x="0px" y="0px"
	 width="300px" height="300px" viewBox="0 0 300 300" enable-background="new 0 0 300 300" xml:space="preserve">
<rect x="47.191" y="204.314" fill="none" width="205.618" height="49.449"/>
<g enable-background="new    ">
	<path fill="#FFFFFF" d="M78.433,228.361c0,0.625-0.246,1.158-0.738,1.604c-0.492,0.443-1.075,0.666-1.746,0.666
		c-0.696,0-1.296-0.223-1.8-0.666c-0.504-0.445-0.756-0.979-0.756-1.604v-12.383l-4.104,8.064c-0.24,0.48-0.57,0.828-0.99,1.043
		c-0.42,0.217-0.882,0.324-1.386,0.324c-0.48,0-0.93-0.107-1.35-0.324c-0.42-0.215-0.75-0.562-0.99-1.043l-4.104-8.064v12.383
		c0,0.625-0.258,1.158-0.774,1.604c-0.517,0.443-1.123,0.666-1.818,0.666c-0.696,0-1.278-0.223-1.746-0.666
		c-0.468-0.445-0.702-0.979-0.702-1.604v-21.383c0-0.695,0.246-1.266,0.738-1.711c0.492-0.443,1.11-0.666,1.854-0.666
		c1.2,0,2.04,0.469,2.52,1.404l6.408,12.709l6.408-12.744c0.264-0.527,0.618-0.889,1.062-1.08c0.444-0.191,0.918-0.289,1.422-0.289
		c0.744,0,1.362,0.234,1.854,0.703c0.492,0.467,0.738,1.025,0.738,1.674V228.361z"/>
	<path fill="#FFFFFF" d="M100.069,225.248c-0.408,1.092-1.002,2.041-1.782,2.844c-0.78,0.805-1.728,1.428-2.844,1.873
		c-1.116,0.443-2.382,0.666-3.798,0.666c-1.44,0-2.724-0.229-3.852-0.686c-1.128-0.455-2.076-1.08-2.844-1.871
		c-0.768-0.793-1.35-1.734-1.746-2.826s-0.594-2.285-0.594-3.582v-14.688c0-0.695,0.246-1.266,0.738-1.711
		c0.492-0.443,1.098-0.666,1.818-0.666c0.671,0,1.254,0.234,1.746,0.703c0.491,0.467,0.738,1.025,0.738,1.674v14.688
		c0,1.297,0.324,2.352,0.972,3.168s1.656,1.225,3.024,1.225c1.368,0,2.37-0.408,3.006-1.225c0.636-0.816,0.954-1.871,0.954-3.168
		v-14.688c0-0.625,0.24-1.176,0.72-1.656s1.068-0.721,1.764-0.721c0.744,0,1.362,0.24,1.854,0.721
		c0.492,0.48,0.738,1.031,0.738,1.656v14.688C100.681,222.963,100.477,224.156,100.069,225.248z"/>
	<path fill="#FFFFFF" d="M122.749,220.551c0,1.271-0.186,2.496-0.558,3.672s-0.99,2.213-1.854,3.113
		c-0.864,0.9-1.992,1.621-3.384,2.16c-1.392,0.541-3.108,0.811-5.148,0.811h-4.068c-0.384,0-0.744-0.072-1.08-0.217
		c-0.336-0.145-0.63-0.33-0.882-0.559c-0.252-0.227-0.456-0.496-0.612-0.809c-0.156-0.312-0.234-0.648-0.234-1.008v-20.232
		c0-0.359,0.078-0.695,0.234-1.008c0.156-0.312,0.36-0.582,0.612-0.811c0.252-0.229,0.546-0.414,0.882-0.559
		c0.336-0.143,0.696-0.215,1.08-0.215h4.068c2.04,0,3.756,0.258,5.148,0.773c1.392,0.516,2.52,1.213,3.384,2.088
		c0.864,0.877,1.482,1.885,1.854,3.023c0.372,1.141,0.558,2.336,0.558,3.582V220.551z M117.708,214.357
		c0-0.67-0.096-1.307-0.288-1.908c-0.192-0.6-0.492-1.121-0.9-1.564c-0.408-0.445-0.954-0.793-1.638-1.045
		c-0.684-0.252-1.506-0.377-2.466-0.377h-2.448v16.271h2.448c0.984,0,1.812-0.139,2.484-0.414c0.671-0.275,1.218-0.648,1.638-1.115
		c0.42-0.469,0.72-1.014,0.9-1.639c0.18-0.625,0.27-1.297,0.27-2.016V214.357z"/>
	<path fill="#FFFFFF" d="M144.132,220.551c0,1.271-0.186,2.496-0.558,3.672s-0.99,2.213-1.854,3.113
		c-0.864,0.9-1.992,1.621-3.384,2.16c-1.392,0.541-3.108,0.811-5.148,0.811h-4.068c-0.384,0-0.744-0.072-1.08-0.217
		c-0.336-0.145-0.63-0.33-0.882-0.559c-0.252-0.227-0.456-0.496-0.612-0.809c-0.156-0.312-0.234-0.648-0.234-1.008v-20.232
		c0-0.359,0.078-0.695,0.234-1.008c0.156-0.312,0.36-0.582,0.612-0.811c0.252-0.229,0.546-0.414,0.882-0.559
		c0.336-0.143,0.696-0.215,1.08-0.215h4.068c2.04,0,3.756,0.258,5.148,0.773c1.392,0.516,2.52,1.213,3.384,2.088
		c0.864,0.877,1.482,1.885,1.854,3.023c0.372,1.141,0.558,2.336,0.558,3.582V220.551z M139.092,214.357
		c0-0.67-0.096-1.307-0.288-1.908c-0.192-0.6-0.492-1.121-0.9-1.564c-0.408-0.445-0.954-0.793-1.638-1.045
		c-0.684-0.252-1.506-0.377-2.466-0.377h-2.448v16.271h2.448c0.984,0,1.812-0.139,2.484-0.414c0.671-0.275,1.218-0.648,1.638-1.115
		c0.42-0.469,0.72-1.014,0.9-1.639c0.18-0.625,0.27-1.297,0.27-2.016V214.357z"/>
	<path fill="#FFFFFF" d="M164.706,229.928c-0.492,0.469-1.086,0.703-1.782,0.703c-0.672,0-1.26-0.234-1.764-0.703
		c-0.504-0.467-0.756-1.014-0.756-1.637v-8.389h-7.668v8.389c0,0.623-0.246,1.17-0.738,1.637c-0.492,0.469-1.086,0.703-1.782,0.703
		c-0.696,0-1.291-0.234-1.782-0.703c-0.492-0.467-0.738-1.014-0.738-1.637v-21.385c0-0.623,0.246-1.164,0.738-1.619
		c0.492-0.457,1.086-0.686,1.782-0.686c0.696,0,1.29,0.229,1.782,0.686c0.492,0.455,0.738,0.996,0.738,1.619v8.389h7.668v-8.389
		c0-0.623,0.252-1.164,0.756-1.619c0.504-0.457,1.092-0.686,1.764-0.686s1.26,0.229,1.764,0.686
		c0.505,0.455,0.757,0.996,0.757,1.619v21.385C165.444,228.914,165.197,229.461,164.706,229.928z"/>
	<path fill="#FFFFFF" d="M173.436,228.938c-0.192,0.529-0.527,0.943-1.008,1.242c-0.48,0.301-0.936,0.451-1.368,0.451
		c-0.696,0-1.302-0.211-1.817-0.631c-0.517-0.42-0.774-0.977-0.774-1.674c0-0.096,0.005-0.229,0.019-0.396
		c0.012-0.168,0.041-0.299,0.09-0.396l7.02-20.482c0.24-0.697,0.57-1.279,0.99-1.746c0.42-0.469,1.062-0.703,1.926-0.703
		c0.864,0,1.506,0.229,1.926,0.686c0.42,0.455,0.762,1.043,1.026,1.764l7.021,20.482c0.047,0.098,0.077,0.229,0.09,0.396
		c0.012,0.168,0.018,0.301,0.018,0.396c0,0.697-0.246,1.254-0.738,1.674s-1.11,0.631-1.854,0.631c-0.48,0-0.961-0.156-1.44-0.469
		s-0.815-0.721-1.008-1.225l-1.261-3.635h-7.668L173.436,228.938z M179.16,215.043c-0.168-0.529-0.301-1.111-0.396-1.746
		c-0.096-0.637-0.18-1.23-0.252-1.783c-0.072,0.553-0.156,1.146-0.252,1.783c-0.096,0.635-0.229,1.217-0.396,1.746l-1.908,6.154
		h5.041L179.16,215.043z"/>
	<path fill="#FFFFFF" d="M195.432,221.162c0,0.768,0.072,1.465,0.215,2.088c0.145,0.625,0.385,1.152,0.721,1.584
		s0.779,0.768,1.332,1.008s1.236,0.361,2.053,0.361c0.576,0,1.104-0.072,1.584-0.217c0.479-0.145,0.947-0.359,1.404-0.648
		l0.359-0.215c0.24-0.145,0.455-0.271,0.648-0.379c0.191-0.107,0.49-0.162,0.898-0.162c0.697,0,1.266,0.217,1.711,0.648
		c0.443,0.432,0.666,0.936,0.666,1.512c0,0.527-0.211,1.025-0.631,1.494s-0.977,0.877-1.674,1.225
		c-0.695,0.348-1.488,0.623-2.375,0.828c-0.889,0.203-1.812,0.305-2.771,0.305c-1.584,0-2.953-0.223-4.105-0.666
		c-1.151-0.443-2.105-1.08-2.861-1.908s-1.314-1.822-1.674-2.988c-0.36-1.162-0.541-2.453-0.541-3.869v-7.129
		c0-1.414,0.181-2.705,0.541-3.869c0.359-1.164,0.918-2.16,1.674-2.988s1.71-1.463,2.861-1.908c1.152-0.443,2.521-0.666,4.105-0.666
		c0.959,0,1.883,0.104,2.771,0.307c0.887,0.205,1.68,0.48,2.375,0.828c0.697,0.348,1.254,0.756,1.674,1.225
		c0.42,0.467,0.631,0.965,0.631,1.494c0,0.574-0.223,1.078-0.666,1.512c-0.445,0.432-1.014,0.646-1.711,0.646
		c-0.408,0-0.707-0.053-0.898-0.16c-0.193-0.109-0.408-0.234-0.648-0.379l-0.359-0.217c-0.457-0.287-0.926-0.504-1.404-0.646
		c-0.48-0.145-1.008-0.217-1.584-0.217c-0.816,0-1.5,0.121-2.053,0.359c-0.553,0.24-0.996,0.576-1.332,1.008
		c-0.336,0.434-0.576,0.961-0.721,1.584c-0.143,0.625-0.215,1.32-0.215,2.088V221.162z"/>
	<path fill="#FFFFFF" d="M219.119,216.555l7.885,10.439c0.191,0.24,0.305,0.457,0.342,0.648c0.035,0.191,0.053,0.383,0.053,0.576
		c0,0.264-0.053,0.539-0.16,0.828c-0.109,0.287-0.271,0.545-0.486,0.773c-0.217,0.229-0.475,0.42-0.775,0.576
		c-0.299,0.156-0.641,0.234-1.025,0.234c-0.863,0-1.561-0.348-2.088-1.045l-6.984-9.359l-0.648,0.719v7.346
		c0,0.623-0.246,1.17-0.736,1.637c-0.492,0.469-1.088,0.703-1.783,0.703s-1.289-0.234-1.781-0.703
		c-0.492-0.467-0.738-1.014-0.738-1.637v-21.385c0-0.623,0.246-1.164,0.738-1.619c0.492-0.457,1.086-0.686,1.781-0.686
		s1.291,0.229,1.783,0.686c0.49,0.455,0.736,0.996,0.736,1.619v6.84l7.129-8.1c0.217-0.264,0.51-0.504,0.883-0.721
		c0.371-0.215,0.762-0.324,1.17-0.324c0.264,0,0.545,0.061,0.846,0.18c0.299,0.121,0.57,0.289,0.809,0.506
		c0.24,0.215,0.439,0.461,0.596,0.736c0.154,0.277,0.232,0.57,0.232,0.883c0,0.264-0.029,0.504-0.09,0.721
		c-0.059,0.215-0.232,0.492-0.521,0.828L219.119,216.555z"/>
	<path fill="#FFFFFF" d="M241.367,222.963c0-0.816-0.162-1.393-0.486-1.729s-0.654-0.576-0.99-0.721
		c-0.383-0.168-0.797-0.33-1.242-0.486c-0.443-0.154-0.906-0.316-1.385-0.484c-0.889-0.264-1.771-0.559-2.646-0.883
		c-0.877-0.324-1.662-0.756-2.357-1.297c-0.697-0.539-1.26-1.234-1.693-2.088c-0.432-0.852-0.646-1.926-0.646-3.221
		c0-1.152,0.197-2.189,0.594-3.115c0.395-0.924,0.953-1.709,1.674-2.357c0.719-0.648,1.596-1.139,2.627-1.477
		c1.033-0.336,2.184-0.504,3.457-0.504c0.527,0,1.199,0.043,2.016,0.127s1.613,0.246,2.395,0.486c0.779,0.24,1.445,0.57,1.998,0.99
		c0.551,0.42,0.828,0.965,0.828,1.637c0,0.6-0.223,1.129-0.666,1.584c-0.445,0.457-1.062,0.684-1.855,0.684
		c-0.336,0-0.635-0.041-0.898-0.125c-0.266-0.084-0.553-0.174-0.865-0.27c-0.336-0.121-0.719-0.24-1.152-0.361
		c-0.432-0.119-0.959-0.18-1.584-0.18c-0.432,0-0.857,0.043-1.277,0.127s-0.787,0.232-1.098,0.449
		c-0.312,0.217-0.564,0.498-0.756,0.846c-0.193,0.35-0.289,0.787-0.289,1.314c0,0.793,0.174,1.355,0.523,1.691
		c0.348,0.338,0.678,0.576,0.988,0.721c0.48,0.24,0.932,0.432,1.352,0.576s0.834,0.275,1.242,0.396
		c0.887,0.287,1.77,0.594,2.645,0.918c0.877,0.324,1.662,0.756,2.359,1.295c0.695,0.541,1.266,1.23,1.709,2.07
		s0.666,1.896,0.666,3.168c0,1.248-0.229,2.363-0.684,3.348c-0.457,0.984-1.08,1.812-1.873,2.484
		c-0.791,0.672-1.732,1.182-2.824,1.529c-1.094,0.348-2.287,0.523-3.582,0.523c-0.674,0-1.453-0.061-2.34-0.182
		c-0.889-0.119-1.729-0.316-2.521-0.594c-0.791-0.275-1.463-0.635-2.016-1.08c-0.553-0.443-0.828-0.977-0.828-1.602
		c0-0.576,0.229-1.098,0.684-1.566c0.457-0.467,1.02-0.701,1.693-0.701c0.264,0,0.545,0.043,0.846,0.125
		c0.299,0.086,0.617,0.188,0.953,0.307c0.432,0.145,0.941,0.301,1.531,0.469c0.588,0.168,1.266,0.252,2.033,0.252
		c1.248,0,2.184-0.264,2.809-0.793C241.055,224.738,241.367,223.971,241.367,222.963z"/>
</g>
<rect x="47.191" y="244.148" fill="none" width="205.618" height="49.451"/>
<g enable-background="new    ">
	<path fill="#FFFFFF" d="M55.794,264.002c0,0.262-0.084,0.48-0.252,0.658c-0.168,0.176-0.383,0.266-0.644,0.266
		c-0.262,0-0.486-0.09-0.672-0.266c-0.187-0.178-0.28-0.396-0.28-0.658v-17.949c0-0.297,0.107-0.564,0.322-0.797
		c0.214-0.234,0.49-0.35,0.826-0.35h7.756c0.261,0,0.476,0.092,0.644,0.279c0.168,0.188,0.252,0.41,0.252,0.672
		c0,0.242-0.084,0.443-0.252,0.602c-0.168,0.158-0.383,0.238-0.644,0.238h-7.056v7.141h6.496c0.242,0,0.452,0.084,0.63,0.252
		c0.177,0.168,0.266,0.383,0.266,0.643c0,0.262-0.084,0.477-0.252,0.645s-0.383,0.252-0.644,0.252h-6.496V264.002z"/>
	<path fill="#FFFFFF" d="M75.282,264.254c-0.093,0.168-0.229,0.322-0.406,0.461c-0.178,0.141-0.341,0.211-0.49,0.211
		c-0.261,0-0.49-0.084-0.686-0.252c-0.196-0.168-0.294-0.393-0.294-0.672c0-0.131,0.019-0.252,0.056-0.365l5.572-17.639
		c0.112-0.393,0.261-0.719,0.448-0.98c0.187-0.262,0.466-0.393,0.84-0.393c0.354,0,0.63,0.137,0.826,0.406
		c0.196,0.271,0.359,0.594,0.49,0.967l5.572,17.639c0,0.039,0.004,0.094,0.014,0.168c0.009,0.076,0.014,0.141,0.014,0.197
		c0,0.279-0.093,0.504-0.28,0.672c-0.187,0.168-0.42,0.252-0.7,0.252c-0.168,0-0.346-0.061-0.532-0.182
		c-0.187-0.121-0.308-0.285-0.364-0.49l-1.288-4.145h-7.532L75.282,264.254z M77.074,258.289h6.468l-3.22-10.611L77.074,258.289z"/>
	<path fill="#FFFFFF" d="M109.05,263.75c0,0.262-0.084,0.475-0.252,0.643s-0.374,0.252-0.616,0.252h-8.064
		c-0.299,0-0.556-0.098-0.77-0.293c-0.215-0.195-0.322-0.453-0.322-0.77v-18.033c0-0.242,0.093-0.457,0.28-0.643
		c0.186-0.188,0.41-0.281,0.672-0.281c0.261,0,0.476,0.094,0.644,0.281c0.168,0.186,0.252,0.4,0.252,0.643v17.332h7.308
		c0.224,0,0.424,0.084,0.602,0.252C108.961,263.301,109.05,263.508,109.05,263.75z"/>
	<path fill="#FFFFFF" d="M130.582,263.75c0,0.262-0.084,0.475-0.252,0.643s-0.374,0.252-0.616,0.252h-8.064
		c-0.299,0-0.556-0.098-0.77-0.293c-0.215-0.195-0.322-0.453-0.322-0.77v-18.033c0-0.242,0.093-0.457,0.28-0.643
		c0.186-0.188,0.41-0.281,0.672-0.281c0.261,0,0.476,0.094,0.644,0.281c0.168,0.186,0.252,0.4,0.252,0.643v17.332h7.308
		c0.224,0,0.424,0.084,0.602,0.252C130.493,263.301,130.582,263.508,130.582,263.75z"/>
	<path fill="#FFFFFF" d="M169.949,263.777c0,0.262-0.084,0.471-0.252,0.631c-0.168,0.158-0.383,0.236-0.644,0.236h-9.408
		c-0.28,0-0.514-0.092-0.7-0.279c-0.187-0.186-0.279-0.42-0.279-0.699c0-0.15,0.009-0.318,0.027-0.504
		c0.019-0.188,0.065-0.365,0.141-0.533c0.242-0.578,0.56-1.152,0.951-1.721c0.393-0.57,0.812-1.121,1.26-1.652
		c0.449-0.533,0.915-1.045,1.4-1.541c0.485-0.494,0.952-0.965,1.4-1.414c0.447-0.428,0.896-0.863,1.344-1.301
		c0.448-0.439,0.858-0.873,1.232-1.303c0.429-0.484,0.803-1.041,1.119-1.666c0.318-0.625,0.477-1.33,0.477-2.113
		c0-1.121-0.309-2.055-0.924-2.801c-0.616-0.746-1.55-1.119-2.801-1.119c-0.541,0-1.049,0.051-1.525,0.152
		c-0.477,0.104-0.91,0.238-1.302,0.406c-0.094,0.039-0.215,0.1-0.364,0.184s-0.279,0.172-0.393,0.266
		c-0.148,0.094-0.299,0.172-0.447,0.238c-0.15,0.064-0.289,0.098-0.42,0.098c-0.225,0-0.425-0.074-0.602-0.225
		c-0.178-0.148-0.267-0.354-0.267-0.615c0-0.318,0.214-0.625,0.644-0.924c1.419-0.822,2.986-1.232,4.705-1.232
		c0.857,0,1.633,0.135,2.323,0.406c0.69,0.27,1.27,0.643,1.736,1.119c0.466,0.477,0.825,1.037,1.077,1.68
		c0.252,0.645,0.379,1.33,0.379,2.059c0,1.158-0.188,2.137-0.561,2.939s-0.858,1.531-1.455,2.184
		c-0.43,0.523-0.841,0.977-1.232,1.359c-0.393,0.383-0.766,0.742-1.12,1.078c-0.896,0.84-1.755,1.717-2.576,2.631
		c-0.821,0.916-1.503,1.951-2.044,3.109h8.204c0.261,0,0.476,0.084,0.644,0.252S169.949,263.535,169.949,263.777z"/>
	<path fill="#FFFFFF" d="M187.338,244.346c0.951,0,1.777,0.168,2.478,0.504s1.274,0.789,1.722,1.357
		c0.448,0.57,0.779,1.242,0.994,2.016c0.215,0.775,0.322,1.592,0.322,2.451v8.539c0,0.803-0.121,1.551-0.364,2.24
		c-0.243,0.691-0.598,1.293-1.063,1.807c-0.467,0.514-1.041,0.92-1.723,1.217c-0.682,0.299-1.47,0.449-2.365,0.449
		c-0.896,0-1.689-0.15-2.381-0.449c-0.69-0.297-1.273-0.703-1.75-1.217c-0.476-0.514-0.836-1.115-1.078-1.807
		c-0.242-0.689-0.363-1.438-0.363-2.24v-8.539c0-0.859,0.107-1.676,0.322-2.451c0.214-0.773,0.55-1.445,1.008-2.016
		c0.457-0.568,1.035-1.021,1.736-1.357C185.531,244.514,186.367,244.346,187.338,244.346z M187.338,245.998
		c-1.326,0-2.278,0.414-2.856,1.246c-0.579,0.83-0.868,1.898-0.868,3.205v8.764c0,1.215,0.317,2.189,0.952,2.926
		c0.634,0.738,1.559,1.107,2.772,1.107c1.193,0,2.104-0.369,2.729-1.107c0.625-0.736,0.938-1.711,0.938-2.926v-8.764
		c0-1.307-0.285-2.375-0.854-3.205C189.582,246.412,188.644,245.998,187.338,245.998z"/>
	<path fill="#FFFFFF" d="M211.139,247.006l-3.838,2.436c-0.186,0.15-0.383,0.275-0.588,0.379c-0.205,0.102-0.391,0.152-0.559,0.152
		c-0.207,0-0.393-0.074-0.561-0.223c-0.168-0.15-0.252-0.326-0.252-0.533c0-0.336,0.148-0.605,0.447-0.811l5.629-3.613
		c0.186-0.111,0.373-0.168,0.561-0.168c0.297,0,0.541,0.098,0.727,0.295c0.188,0.195,0.281,0.443,0.281,0.742v18.311
		c0,0.262-0.09,0.482-0.268,0.658c-0.176,0.178-0.396,0.266-0.656,0.266c-0.262,0-0.482-0.088-0.658-0.266
		c-0.178-0.176-0.266-0.396-0.266-0.658V247.006z"/>
	<path fill="#FFFFFF" d="M229.449,253.893c0.598-0.484,1.262-0.826,1.988-1.021c0.729-0.195,1.428-0.293,2.1-0.293
		c0.766,0,1.484,0.125,2.156,0.377s1.256,0.631,1.75,1.135s0.887,1.129,1.176,1.875c0.289,0.748,0.436,1.615,0.436,2.605
		c0,0.877-0.117,1.697-0.352,2.463c-0.232,0.766-0.588,1.438-1.062,2.016c-0.477,0.58-1.07,1.037-1.779,1.373
		s-1.549,0.504-2.52,0.504c-1.139,0-2.082-0.238-2.828-0.715s-1.344-1.139-1.791-1.988c-0.449-0.848-0.762-1.857-0.939-3.023
		s-0.266-2.439-0.266-3.822c0-3.471,0.504-6.131,1.512-7.98c1.008-1.848,2.539-2.771,4.592-2.771c0.225,0,0.57,0.014,1.037,0.043
		c0.467,0.027,0.934,0.094,1.4,0.195c0.465,0.104,0.871,0.242,1.217,0.42s0.52,0.416,0.52,0.715c0,0.205-0.076,0.391-0.225,0.559
		c-0.15,0.168-0.346,0.252-0.588,0.252c-0.094,0-0.188-0.008-0.281-0.027c-0.094-0.018-0.186-0.047-0.279-0.084
		c-0.318-0.094-0.691-0.191-1.119-0.293c-0.43-0.104-0.869-0.154-1.316-0.154c-0.916,0-1.666,0.199-2.254,0.602
		s-1.051,0.943-1.387,1.623c-0.336,0.682-0.57,1.49-0.699,2.422C229.516,251.83,229.449,252.83,229.449,253.893z M229.395,256.834
		c0,0.82,0.051,1.613,0.154,2.379c0.102,0.766,0.303,1.438,0.602,2.016c0.299,0.58,0.713,1.041,1.246,1.387
		c0.531,0.346,1.217,0.518,2.057,0.518c0.711,0,1.307-0.125,1.793-0.377c0.484-0.252,0.873-0.588,1.162-1.008s0.498-0.9,0.629-1.443
		c0.131-0.541,0.197-1.1,0.197-1.68c0-1.475-0.35-2.562-1.051-3.262c-0.699-0.699-1.609-1.051-2.73-1.051
		c-0.84,0-1.623,0.168-2.352,0.504c-0.729,0.338-1.297,0.748-1.707,1.232V256.834z"/>
</g>
<g>
	<g>
		<path fill="#FFFFFF" d="M95.373,97.962c-3.903-0.175-7.83-0.306-11.725-0.064c-4.132,0.256-6.611,2.494-7.543,6.56
			c-0.418,1.826-0.501,3.786-0.367,5.659c0.069,0.965,0.944,1.872,1.456,2.805c0.586-0.958,1.64-1.895,1.682-2.876
			c0.338-7.751,1.516-8.947,9.342-8.935c0.502,0.001,1.003,0,1.505,0v0.04c1.907,0,3.828,0.132,5.713-0.069
			c0.679-0.072,1.273-0.942,1.906-1.448C96.688,99.05,96.053,97.992,95.373,97.962z M89.704,114.771
			c-8.033-0.021-16.065-0.019-24.098-0.001c-4.316,0.01-6.244,1.95-6.246,6.234c-0.006,10.041-0.002,20.082-0.002,30.123h0.012
			c0,9.939-0.007,19.881,0.003,29.82c0.005,4.703,1.815,6.48,6.587,6.486c7.933,0.008,15.865,0.021,23.797-0.004
			c4.137-0.012,6.076-1.943,6.079-6.084c0.015-20.182,0.016-40.364,0-60.545C95.833,116.699,93.867,114.783,89.704,114.771z
			 M210.118,101.112c9.44-0.11,9.586,0.056,10.573,9.375c0.093,0.856,1.076,1.617,1.646,2.422c0.607-0.77,1.713-1.517,1.754-2.315
			c0.389-7.98-1.91-13.241-11.143-12.871c-0.9,0.036-1.803,0.005-2.705,0.005c0,0.049-0.002,0.097-0.004,0.146
			c-1.701,0-3.43-0.181-5.096,0.069c-0.965,0.146-1.828,0.984-2.738,1.511c0.867,0.569,1.68,1.488,2.611,1.631
			C206.68,101.341,208.415,101.132,210.118,101.112z M240.63,120.775c-0.01-3.97-1.967-5.983-5.854-5.999
			c-8.232-0.033-16.467-0.031-24.701-0.002c-3.912,0.016-5.918,2.04-5.92,5.957c-0.008,20.182-0.002,40.365,0.018,60.544
			c0.004,4.281,1.932,6.148,6.311,6.156c7.933,0.016,15.863,0.016,23.795,0c4.519-0.008,6.354-1.859,6.357-6.412
			c0.012-9.94,0.004-19.881,0.004-29.822C240.639,141.057,240.652,130.916,240.63,120.775z M199.354,87.677
			c-3.063-6.09-6.615-11.936-9.985-17.872c-1.533-2.698-3.882-3.945-6.968-3.92c-0.651,0.005-1.311-0.167-2.094-0.276
			c0-3.396-0.281-6.636,0.058-9.809c0.741-6.916-1.103-13.014-4.783-18.801c-1.552-2.441-3.201-3.77-6.246-3.733
			c-11.157,0.135-22.322-0.022-33.481,0.075c-10.015,0.087-8.067-1.597-13.555,8.033c-1.985,3.484-2.821,6.919-2.643,10.848
			c0.199,4.404,0.045,8.823,0.045,13.812c-5.978-1.241-8.529,2.305-10.775,6.565c-2.435,4.617-5.204,9.058-7.637,13.676
			c-0.756,1.435-1.237,3.193-1.256,4.811c-0.159,13.066-0.231,26.135-0.227,39.201c0.005,15.38,0.066,30.76,0.211,46.139
			c0.04,4.236,2.414,6.512,6.541,6.57c8.24,0.119,16.481,0.217,24.722,0.205c20.71-0.027,41.419-0.1,62.126-0.207
			c4.146-0.021,6.373-2.33,6.619-6.521c0.057-1.004,0.184-2.004,0.184-3.006c0.01-26.344,0.027-52.686-0.025-79.029
			C200.18,92.164,200.316,89.59,199.354,87.677z M133.506,36.61h33.141c5.324,0,5.379,0.04,7.362,5.6h-47.733
			C128.153,36.649,128.204,36.61,133.506,36.61z M190.832,136.98c0,3.309-2.691,6-6,6h-69.666c-3.309,0-6-2.691-6-6V98.147
			c0-3.309,2.691-6,6-6h69.666c3.309,0,6,2.691,6,6V136.98z M106.554,83.764c2.72-4.579,5.164-9.106,8.077-13.308
			c0.742-1.071,2.976-1.107,5.072-1.799c0,2.041-0.041,3.415,0.008,4.786c0.114,3.208,2.106,5.363,5.27,5.372
			c16.684,0.048,33.369,0.049,50.053,0c3.157-0.009,5.147-2.171,5.264-5.379c0.048-1.292,0.009-2.586,0.009-4.059
			c2.789-0.463,4.864,0.121,6.131,2.274c2.28,3.881,4.42,7.846,6.809,12.113H106.554z M178.495,117.441
			c-0.16-0.008-0.323-0.017-0.49-0.025l-0.251-0.014c-0.104-0.007-0.295,0.016-0.42,0.08c-0.542,0.286-0.671,0.713-0.84,1.077
			c-0.287,0.756-0.432,1.543-0.571,2.374c-0.272,1.654-0.433,3.492-0.757,5.41c-0.08,0.456-0.178,0.915-0.303,1.346
			c-0.066-0.466-0.113-0.96-0.146-1.471c-0.072-1.117-0.087-2.292-0.125-3.502c-0.043-1.215-0.088-2.465-0.134-3.748
			c-0.06-2.574-0.085-5.286-0.177-8.135c-0.061-1.435-0.092-2.865-0.315-4.443c-0.03-0.201-0.069-0.408-0.126-0.636
			c-0.027-0.113-0.064-0.238-0.119-0.379c-0.102-0.174-0.029-0.255-0.474-0.675c-0.562-0.411-1.103-0.222-1.366-0.062
			c-0.285,0.178-0.393,0.335-0.496,0.471c-0.188,0.271-0.281,0.487-0.371,0.7c-0.328,0.831-0.49,1.58-0.666,2.352
			c-0.328,1.531-0.58,3.069-0.853,4.617c-0.136,0.772-0.272,1.548-0.433,2.311c-0.078,0.381-0.162,0.759-0.258,1.12
			c-0.05,0.197-0.117,0.416-0.181,0.587l-0.39-0.005l-1.23-0.022c-0.85-0.012-1.719-0.01-2.533,0.03l-0.078,0.003
			c0.021-0.001-0.084-0.003-0.254,0.032c-0.277,0.059-0.463,0.197-0.582,0.301c-0.236,0.22-0.33,0.4-0.406,0.543
			c-0.149,0.297-0.221,0.533-0.291,0.769c-0.133,0.465-0.217,0.899-0.293,1.333c-0.15,0.865-0.26,1.715-0.363,2.568
			c-0.206,1.703-0.379,3.412-0.624,5.101c-0.073,0.498-0.158,0.991-0.253,1.477c-0.01-0.113-0.021-0.227-0.029-0.337
			c-0.066-0.866-0.105-1.749-0.135-2.638c-0.057-1.778-0.07-3.582-0.073-5.397c0.009-3.644,0.017-7.333,0.024-11.05
			c-0.006-0.935-0.018-1.872-0.051-2.82c-0.018-0.475-0.039-0.951-0.076-1.44c-0.02-0.245-0.041-0.493-0.076-0.754
			c-0.055-0.288-0.036-0.478-0.256-0.993c-0.037-0.073-0.086-0.167-0.199-0.298c-0.033-0.117-0.645-0.442-0.819-0.37
			c-0.403,0.005-0.688,0.208-0.812,0.32c-0.275,0.259-0.34,0.423-0.432,0.583c-0.15,0.303-0.234,0.555-0.315,0.807
			c-0.157,0.498-0.271,0.969-0.378,1.442c-0.211,0.941-0.387,1.87-0.562,2.797c-0.352,1.849-0.68,3.697-1.125,5.472
			c-0.224,0.865-0.486,1.79-0.832,2.406c-0.029,0.059-0.064,0.108-0.096,0.147h-0.175h-1.416l-5.661-0.001h-0.354
			c-0.042-0.005-0.438,0-0.684,0.099c-0.538,0.205-0.833,0.568-1.02,0.849c-0.371,0.587-0.514,1.1-0.654,1.605
			c-0.258,1.005-0.384,1.963-0.5,2.918c-0.222,1.903-0.341,3.778-0.561,5.594c-0.088,0.692-0.188,1.4-0.342,2.021
			c-0.362-1.471-0.55-3.135-0.737-4.729c-0.197-1.815-0.356-3.636-0.513-5.448c-0.317-3.627-0.585-7.219-1.056-10.777
			c-0.122-0.891-0.258-1.779-0.443-2.676c-0.094-0.45-0.199-0.9-0.342-1.365c-0.173-0.476-0.257-0.923-0.784-1.558
			c-0.165-0.159-0.331-0.351-0.794-0.471c-0.173-0.034-0.18-0.026-0.203-0.03c-0.197-0.009-0.165,0.002-0.258,0.006
			c-0.129,0.008-0.249,0.041-0.369,0.074c-0.469,0.157-0.752,0.429-0.965,0.663c-0.415,0.482-0.623,0.932-0.824,1.373
			c-0.378,0.879-0.626,1.73-0.858,2.575c-0.454,1.686-0.801,3.339-1.186,4.942c-0.192,0.8-0.39,1.588-0.618,2.339
			c-0.204,0.672-0.463,1.377-0.739,1.81c-0.04-0.067-0.078-0.141-0.107-0.222c-0.25-0.589-0.419-1.347-0.562-2.085
			c-0.284-1.498-0.469-3.039-0.715-4.568c-0.125-0.767-0.259-1.533-0.453-2.313c-0.098-0.39-0.213-0.785-0.374-1.195
			c-0.183-0.409-0.34-0.849-0.871-1.327c-0.138-0.115-0.306-0.229-0.515-0.308c-0.081-0.039-0.267-0.084-0.4-0.102l-0.082-0.007
			c0.039,0.002-0.112-0.012-0.206-0.002c-0.342,0.018-0.645,0.178-0.803,0.311c-0.195,0.148-0.287,0.277-0.383,0.402
			c-0.338,0.491-0.457,0.876-0.592,1.266c-0.245,0.768-0.395,1.492-0.532,2.21c-0.52,2.86-0.765,5.563-1.087,8.13
			c-0.303,2.564-0.41,5.009-0.67,7.268c-0.126,1.125-0.265,2.222-0.494,3.202c-0.057,0.244-0.125,0.477-0.199,0.679
			c-0.025,0.069-0.052,0.123-0.078,0.177c-0.081-0.093-0.168-0.221-0.244-0.369c-0.384-0.782-0.607-1.725-0.812-2.59
			c-0.199-0.878-0.361-1.731-0.518-2.542c-0.326-1.622-0.559-3.088-1.051-4.341c-0.14-0.308-0.265-0.623-0.591-0.871
			c-0.042-0.03-0.09-0.053-0.144-0.077c-0.063-0.022-0.141-0.038-0.165-0.036c-0.117-0.008-0.157,0.003-0.238,0.004
			c-0.142,0.006-0.281,0.013-0.417,0.019c-0.544,0.024-1.038,0.046-1.48,0.065c-1.77,0.079-2.713,0.12-2.713,0.12
			s0.944,0.042,2.713,0.12c0.442,0.02,0.937,0.042,1.48,0.065c0.136,0.006,0.275,0.012,0.417,0.019
			c0.175,0.008,0.231,0.003,0.286,0.062c0.145,0.125,0.269,0.41,0.358,0.692c0.349,1.178,0.503,2.655,0.704,4.289
			c0.099,0.821,0.201,1.688,0.34,2.604c0.155,0.919,0.288,1.871,0.704,2.917c0.118,0.263,0.246,0.538,0.503,0.823
			c0.127,0.139,0.301,0.289,0.547,0.385c0.252,0.082,0.496,0.155,0.895-0.024c0.355-0.203,0.434-0.364,0.549-0.521
			c0.106-0.158,0.176-0.302,0.242-0.444c0.128-0.285,0.227-0.56,0.311-0.834c0.336-1.095,0.548-2.203,0.759-3.352
			c0.394-2.295,0.784-4.723,1.038-7.29c0.25-2.561,0.533-5.266,1.02-7.98c0.126-0.672,0.272-1.351,0.467-1.959
			c0.019-0.061,0.041-0.121,0.062-0.181c0.01,0.023,0.021,0.045,0.03,0.069c0.11,0.282,0.208,0.604,0.292,0.942
			c0.169,0.676,0.298,1.402,0.417,2.142c0.24,1.484,0.424,3.027,0.726,4.627c0.162,0.805,0.322,1.613,0.691,2.502
			c0.223,0.43,0.387,0.972,1.197,1.436c1.111,0.536,1.992-0.268,2.271-0.684c0.638-0.917,0.854-1.721,1.128-2.55
			c0.249-0.821,0.454-1.639,0.65-2.457c0.392-1.634,0.738-3.28,1.171-4.884c0.218-0.797,0.457-1.594,0.76-2.296
			c0.101-0.231,0.216-0.453,0.328-0.629c0.047,0.117,0.092,0.24,0.126,0.361c0.114,0.369,0.209,0.772,0.295,1.181
			c0.17,0.821,0.302,1.675,0.419,2.538c0.458,3.46,0.728,7.049,1.045,10.678c0.157,1.817,0.317,3.647,0.518,5.494
			c0.227,1.86,0.383,3.676,0.951,5.664c0.084,0.256,0.174,0.517,0.337,0.822c0.09,0.155,0.182,0.322,0.399,0.53
			c0.106,0.101,0.261,0.218,0.475,0.301c0.116,0.041,0.235,0.071,0.368,0.08c0.361,0,0.15-0.004,0.253-0.006
			c0.75-0.102,1.086-0.568,1.281-0.849c0.201-0.312,0.309-0.587,0.403-0.854c0.346-1.05,0.457-1.993,0.585-2.952
			c0.229-1.9,0.347-3.772,0.562-5.604c0.109-0.911,0.235-1.823,0.447-2.643c0.103-0.401,0.248-0.8,0.387-1.009
			c0.019-0.032,0.027-0.036,0.04-0.051c0.097-0.001,0.247-0.006,0.35-0.001l5.661,0.001h1.416h0.354
			c0.008,0.002,0.254-0.015,0.191-0.012c-0.008,0.003,0.145-0.019,0.251-0.052c0.127-0.036,0.208-0.074,0.264-0.105
			c0.065-0.034,0.14-0.073,0.187-0.109c0.431-0.311,0.593-0.603,0.755-0.865c0.565-1.043,0.78-1.966,1.04-2.918
			c0.473-1.885,0.802-3.749,1.152-5.594c0.002-0.009,0.004-0.018,0.006-0.028c0.002,0.133,0.006,0.264,0.008,0.396
			c-0.01,3.714-0.018,7.399-0.025,11.04c0.003,1.827,0.018,3.644,0.074,5.458c0.029,0.908,0.07,1.814,0.141,2.727
			c0.09,0.933,0.123,1.788,0.455,2.881c0.053,0.147,0.111,0.303,0.237,0.507c0.075,0.11,0.146,0.222,0.325,0.37
			c0.189,0.137,0.425,0.301,0.891,0.269l0.096-0.012c0.123-0.021,0.248-0.058,0.361-0.107c0.157-0.075,0.286-0.162,0.38-0.246
			c0.196-0.172,0.312-0.333,0.401-0.478c0.342-0.574,0.46-1.035,0.594-1.503c0.241-0.924,0.383-1.807,0.514-2.685
			c0.254-1.752,0.428-3.47,0.633-5.149c0.102-0.837,0.207-1.668,0.347-2.463c0.069-0.395,0.147-0.786,0.245-1.126
			c0.021-0.074,0.045-0.146,0.066-0.211c0.732-0.027,1.43-0.03,2.127-0.02l1.228,0.021l0.623,0.008l0.155,0.002l0.078,0.001
			c-0.119,0.013,0.248-0.015,0.236-0.019c-0.064,0.021,0.334-0.072,0.45-0.175c0.093-0.062,0.165-0.124,0.228-0.186
			c0.104-0.108,0.174-0.205,0.226-0.286c0.347-0.606,0.409-0.981,0.541-1.417c0.108-0.418,0.198-0.824,0.282-1.226
			c0.166-0.804,0.307-1.592,0.442-2.372c0.242-1.376,0.472-2.72,0.737-4.02c0.031,0.602,0.057,1.208,0.08,1.799
			c0.091,2.811,0.117,5.526,0.176,8.111c0.027,1.293,0.037,2.557,0.09,3.788c0.064,1.231,0.18,2.428,0.331,3.601
			c0.078,0.587,0.169,1.168,0.302,1.759c0.073,0.299,0.148,0.596,0.287,0.934c0.072,0.167,0.151,0.354,0.358,0.596
			c0.101,0.113,0.278,0.277,0.562,0.356c0.073,0.019,0.149,0.031,0.225,0.037c0.088,0.008,0.203-0.008,0.172-0.005l0.05-0.006
			c0.046-0.007,0.113-0.021,0.168-0.036c0.418-0.128,0.59-0.334,0.742-0.514c0.142-0.182,0.229-0.352,0.298-0.51
			c0.139-0.317,0.213-0.604,0.277-0.883c0.125-0.557,0.191-1.08,0.248-1.59c0.201-2.03,0.234-3.85,0.392-5.472
			c0.079-0.804,0.175-1.572,0.37-2.208c0.089-0.305,0.258-0.602,0.35-0.638c0.028-0.015,0.01-0.015,0.076-0.022l0.251-0.013
			c0.167-0.009,0.33-0.018,0.49-0.026c1.282-0.075,2.374-0.138,3.259-0.189c1.771-0.11,2.715-0.168,2.715-0.168
			s-0.943-0.059-2.715-0.169C180.869,117.581,179.777,117.517,178.495,117.441z M155.247,116.799
			c-0.015,0.001-0.013,0.001-0.021,0.001h-0.014C155.258,116.794,155.296,116.795,155.247,116.799z M184.832,94.147h-69.666
			c-2.206,0-4,1.794-4,4v38.833c0,2.206,1.794,4,4,4h69.666c2.206,0,4-1.794,4-4V98.147
			C188.832,95.941,187.038,94.147,184.832,94.147z M187.027,136.552c0,1.657-1.342,3-3,3H115.97c-1.657,0-3-1.343-3-3V99.049
			c0-1.657,1.343-3,3-3h68.057c1.658,0,3,1.343,3,3V136.552z"/>
	</g>
</g>
</svg>
