<?xml version="1.0" encoding="utf-8"?>
<!-- Generator: Adobe Illustrator 16.0.0, SVG Export Plug-In . SVG Version: 6.00 Build 0)  -->
<!DOCTYPE svg PUBLIC "-//W3C//DTD SVG 1.1//EN" "http://www.w3.org/Graphics/SVG/1.1/DTD/svg11.dtd">
<svg version="1.1" id="Layer_1" xmlns="http://www.w3.org/2000/svg" xmlns:xlink="http://www.w3.org/1999/xlink" x="0px" y="0px"
	 width="300px" height="300px" viewBox="0 0 300 300" enable-background="new 0 0 300 300" xml:space="preserve">
<g>
	<rect x="47.191" y="204.314" fill-rule="evenodd" clip-rule="evenodd" fill="none" width="205.617" height="49.45"/>
	<path d="M77.926,228.362c0,1.225-1.152,2.268-2.484,2.268c-1.368,0-2.556-1.043-2.556-2.268v-12.383l-4.104,8.062
		c-0.468,0.938-1.368,1.369-2.375,1.369c-0.972,0-1.872-0.432-2.34-1.369l-4.104-8.062v12.383c0,1.225-1.188,2.268-2.592,2.268
		c-1.368,0-2.448-1.043-2.448-2.268v-21.381c0-1.368,1.116-2.376,2.592-2.376c1.152,0,2.052,0.468,2.52,1.403l6.407,12.707
		l6.407-12.742c0.504-1.045,1.476-1.368,2.484-1.368c1.476,0,2.592,1.079,2.592,2.376V228.362z"/>
	<path d="M91.14,230.63c-5.795,0-9.035-3.814-9.035-8.963v-14.686c0-1.368,1.116-2.376,2.556-2.376c1.332,0,2.483,1.079,2.483,2.376
		v14.686c0,2.592,1.26,4.393,3.996,4.393c2.7,0,3.959-1.836,3.959-4.393v-14.686c0-1.26,1.08-2.376,2.484-2.376
		c1.476,0,2.591,1.116,2.591,2.376v14.686C100.174,226.851,96.827,230.63,91.14,230.63z"/>
	<path d="M111.3,230.306h-4.068c-1.512,0-2.808-1.188-2.808-2.592v-20.229c0-1.404,1.296-2.592,2.808-2.592h4.068
		c8.135,0,10.942,4.463,10.942,9.467v6.191C122.243,225.626,119.471,230.306,111.3,230.306z M117.203,214.36
		c0-2.736-1.404-4.896-5.291-4.896h-2.448v16.271h2.448c3.959,0,5.291-2.34,5.291-5.184V214.36z"/>
	<path d="M132.684,230.306h-4.068c-1.512,0-2.808-1.188-2.808-2.592v-20.229c0-1.404,1.296-2.592,2.808-2.592h4.068
		c8.135,0,10.942,4.463,10.942,9.467v6.191C143.626,225.626,140.855,230.306,132.684,230.306z M138.587,214.36
		c0-2.736-1.404-4.896-5.291-4.896h-2.448v16.271h2.448c3.959,0,5.291-2.34,5.291-5.184V214.36z"/>
	<path d="M162.418,230.63c-1.331,0-2.52-1.08-2.52-2.34v-8.387h-7.666v8.387c0,1.26-1.152,2.34-2.52,2.34
		c-1.404,0-2.52-1.08-2.52-2.34v-21.381c0-1.225,1.116-2.304,2.52-2.304c1.368,0,2.52,1.079,2.52,2.304v8.387h7.666v-8.387
		c0-1.225,1.188-2.304,2.52-2.304c1.332,0,2.521,1.079,2.521,2.304v21.381C164.938,229.55,163.787,230.63,162.418,230.63z"/>
	<path d="M172.932,228.938c-0.359,1.043-1.512,1.691-2.375,1.691c-1.404,0-2.592-0.936-2.592-2.303c0-0.182,0.035-0.613,0.107-0.793
		l7.02-20.48c0.467-1.404,1.188-2.448,2.915-2.448s2.448,1.008,2.952,2.448l7.019,20.48c0.072,0.18,0.108,0.611,0.108,0.793
		c0,1.367-1.116,2.303-2.592,2.303c-0.936,0-2.088-0.684-2.447-1.691l-1.26-3.635h-7.668L172.932,228.938z M178.654,215.044
		c-0.323-1.044-0.504-2.412-0.647-3.527c-0.144,1.115-0.323,2.483-0.647,3.527l-1.908,6.156h5.039L178.654,215.044z"/>
	<path d="M194.928,221.163c0,3.096,1.079,5.039,4.318,5.039c1.152,0,2.088-0.287,2.988-0.863l0.359-0.217
		c0.469-0.287,0.721-0.539,1.549-0.539c1.367,0,2.375,1.008,2.375,2.16c0,2.088-3.635,3.852-7.451,3.852
		c-6.299,0-9.179-3.744-9.179-9.432v-7.127c0-5.688,2.88-9.431,9.179-9.431c3.816,0,7.451,1.764,7.451,3.852
		c0,1.151-1.008,2.159-2.375,2.159c-0.828,0-1.08-0.252-1.549-0.539l-0.359-0.217c-0.9-0.576-1.836-0.863-2.988-0.863
		c-3.239,0-4.318,1.943-4.318,5.039V221.163z"/>
	<path d="M218.614,216.556l7.883,10.439c0.36,0.467,0.396,0.863,0.396,1.223c0,1.045-0.899,2.412-2.447,2.412
		c-0.828,0-1.548-0.324-2.088-1.043l-6.982-9.359l-0.648,0.721v7.342c0,1.26-1.152,2.34-2.52,2.34c-1.404,0-2.52-1.08-2.52-2.34
		v-21.381c0-1.225,1.115-2.304,2.52-2.304c1.367,0,2.52,1.079,2.52,2.304v6.839l7.127-8.099c0.432-0.54,1.26-1.044,2.052-1.044
		c1.08,0,2.483,1.044,2.483,2.304c0,0.54-0.035,0.9-0.611,1.548L218.614,216.556z"/>
	<path d="M239.386,220.515c-0.756-0.322-1.655-0.646-2.628-0.971c-3.527-1.08-7.343-2.268-7.343-7.487
		c0-4.644,3.239-7.451,8.351-7.451c2.124,0,7.235,0.54,7.235,3.239c0,1.188-0.936,2.268-2.52,2.268
		c-0.647,0-1.151-0.216-1.764-0.396c-0.685-0.252-1.476-0.54-2.735-0.54c-1.764,0-3.42,0.611-3.42,2.736
		c0,1.583,0.9,2.123,1.512,2.411c0.936,0.468,1.8,0.756,2.592,0.972c3.527,1.115,7.379,2.34,7.379,7.451
		c0,5.004-3.815,7.883-8.963,7.883c-2.664,0-7.703-0.936-7.703-3.455c0-1.152,1.044-2.268,2.376-2.268c0.54,0,1.116,0.18,1.8,0.432
		c0.863,0.287,2.016,0.721,3.563,0.721c2.483,0,3.743-1.117,3.743-3.096C240.861,221.343,240.033,220.804,239.386,220.515z"/>
</g>
<g>
	<rect x="47.191" y="244.149" fill-rule="evenodd" clip-rule="evenodd" fill="none" width="205.617" height="49.45"/>
	<path d="M56.564,264.001c0,0.504-0.392,0.924-0.896,0.924c-0.532,0-0.952-0.42-0.952-0.924v-17.948
		c0-0.588,0.476-1.147,1.148-1.147h7.756c0.504,0,0.896,0.42,0.896,0.951c0,0.477-0.392,0.841-0.896,0.841h-7.056v7.14h6.496
		c0.476,0,0.896,0.392,0.896,0.896c0,0.505-0.392,0.896-0.896,0.896h-6.496V264.001z"/>
	<path d="M76.864,264.253c-0.168,0.336-0.588,0.672-0.896,0.672c-0.532,0-0.98-0.364-0.98-0.924c0-0.084,0.028-0.28,0.056-0.364
		l5.572-17.64c0.224-0.784,0.56-1.372,1.288-1.372c0.7,0,1.064,0.616,1.316,1.372l5.572,17.64c0,0.056,0.028,0.252,0.028,0.364
		c0,0.56-0.42,0.924-0.98,0.924c-0.336,0-0.784-0.28-0.896-0.672l-1.288-4.145h-7.532L76.864,264.253z M78.656,258.289h6.468
		l-3.22-10.612L78.656,258.289z"/>
	<path d="M110.576,264.645h-8.064c-0.588,0-1.092-0.447-1.092-1.063v-18.032c0-0.476,0.42-0.924,0.952-0.924
		c0.504,0,0.896,0.448,0.896,0.924v17.332h7.308c0.448,0,0.868,0.392,0.868,0.868C111.444,264.253,111.052,264.645,110.576,264.645z
		"/>
	<path d="M132.92,264.645h-8.064c-0.588,0-1.092-0.447-1.092-1.063v-18.032c0-0.476,0.42-0.924,0.952-0.924
		c0.504,0,0.896,0.448,0.896,0.924v17.332h7.308c0.448,0,0.868,0.392,0.868,0.868C133.788,264.253,133.396,264.645,132.92,264.645z"
		/>
	<path d="M173.883,264.645h-9.408c-0.559,0-0.979-0.42-0.979-0.979c0-0.309,0.027-0.7,0.168-1.036
		c1.008-2.352,3.191-4.564,5.012-6.328c0.895-0.868,1.82-1.736,2.576-2.604c0.84-0.98,1.596-2.212,1.596-3.78
		c0-2.24-1.232-3.92-3.725-3.92c-1.064,0-2.043,0.224-2.828,0.56c-0.195,0.084-0.531,0.28-0.756,0.448
		c-0.279,0.168-0.615,0.336-0.867,0.336c-0.449,0-0.869-0.336-0.869-0.84c0-0.336,0.252-0.645,0.645-0.924
		c1.4-0.812,2.969-1.232,4.703-1.232c3.473,0,5.518,2.324,5.518,5.265c0,2.296-0.84,3.836-2.018,5.123
		c-0.867,1.036-1.65,1.765-2.352,2.437c-1.791,1.68-3.527,3.444-4.619,5.74h8.203c0.504,0,0.896,0.392,0.896,0.867
		C174.779,264.281,174.387,264.645,173.883,264.645z"/>
	<path d="M198.494,250.673v8.54c0,3.192-1.959,5.712-5.516,5.712c-3.584,0-5.572-2.52-5.572-5.712v-8.54
		c0-3.472,1.709-6.328,5.572-6.328C196.814,244.345,198.494,247.201,198.494,250.673z M189.256,250.449v8.764
		c0,2.408,1.314,4.032,3.723,4.032c2.381,0,3.668-1.624,3.668-4.032v-8.764c0-2.604-1.035-4.452-3.668-4.452
		C190.318,245.997,189.256,247.845,189.256,250.449z"/>
	<path d="M217.59,247.005l-3.836,2.436c-0.363,0.28-0.811,0.532-1.146,0.532c-0.393,0-0.812-0.336-0.812-0.756
		c0-0.336,0.168-0.616,0.447-0.812l5.629-3.612c0.195-0.112,0.363-0.168,0.561-0.168c0.588,0,1.008,0.448,1.008,1.036v18.312
		c0,0.504-0.393,0.924-0.924,0.924c-0.504,0-0.926-0.42-0.926-0.924V247.005z"/>
	<path d="M240.467,264.896c-1.146,0-5.348-0.252-5.348-1.876c0-0.476,0.365-0.896,0.84-0.896c0.113,0,0.281,0.056,0.504,0.168
		v-0.028c0.785,0.504,1.766,1.008,3.332,1.008c3.361,0,4.369-2.352,4.369-4.731c0-2.996-1.652-4.424-3.781-4.424
		c-0.867,0-1.566,0.252-2.211,0.615l-0.588,0.393c-0.252,0.196-0.504,0.364-0.84,0.364c-0.533,0-0.98-0.42-0.953-1.009l0.281-8.539
		c0.027-0.7,0.588-1.064,1.119-1.064h6.889c0.531,0,1.092,0.224,1.092,0.896c0,0.589-0.561,0.812-1.092,0.812h-6.385l-0.225,6.776
		c1.037-0.589,2.018-0.841,2.969-0.841c3.248,0,5.572,2.185,5.572,5.908C246.012,261.537,244.387,264.896,240.467,264.896z"/>
</g>
<g>
	<g>
		<path d="M178.495,117.441c-0.16-0.008-0.323-0.017-0.49-0.025l-0.251-0.014c-0.103-0.007-0.295,0.016-0.42,0.08
			c-0.542,0.286-0.671,0.713-0.84,1.077c-0.287,0.756-0.431,1.543-0.571,2.374c-0.273,1.654-0.433,3.492-0.757,5.41
			c-0.08,0.456-0.177,0.915-0.302,1.346c-0.067-0.466-0.114-0.96-0.147-1.471c-0.072-1.117-0.087-2.292-0.125-3.502
			c-0.043-1.215-0.088-2.465-0.134-3.748c-0.06-2.574-0.085-5.286-0.177-8.135c-0.06-1.435-0.092-2.865-0.315-4.443
			c-0.031-0.201-0.069-0.408-0.126-0.636c-0.028-0.113-0.065-0.238-0.119-0.379c-0.102-0.174-0.029-0.255-0.474-0.675
			c-0.562-0.411-1.103-0.222-1.366-0.062c-0.285,0.178-0.392,0.335-0.496,0.471c-0.188,0.271-0.281,0.487-0.372,0.7
			c-0.327,0.831-0.49,1.58-0.665,2.352c-0.329,1.531-0.58,3.069-0.853,4.617c-0.136,0.772-0.273,1.548-0.432,2.311
			c-0.078,0.381-0.163,0.759-0.258,1.12c-0.05,0.197-0.118,0.416-0.181,0.587l-0.39-0.005l-1.23-0.022
			c-0.849-0.012-1.719-0.01-2.534,0.03l-0.078,0.003c0.021-0.001-0.084-0.003-0.254,0.032c-0.276,0.059-0.462,0.197-0.581,0.301
			c-0.237,0.22-0.33,0.4-0.406,0.543c-0.15,0.297-0.222,0.533-0.292,0.769c-0.132,0.465-0.216,0.899-0.293,1.333
			c-0.15,0.865-0.259,1.715-0.363,2.568c-0.206,1.703-0.379,3.412-0.624,5.101c-0.073,0.498-0.158,0.991-0.253,1.477
			c-0.01-0.113-0.021-0.227-0.029-0.337c-0.066-0.866-0.105-1.749-0.135-2.638c-0.056-1.778-0.07-3.582-0.073-5.397
			c0.008-3.644,0.017-7.333,0.025-11.05c-0.007-0.935-0.019-1.872-0.052-2.82c-0.017-0.475-0.038-0.951-0.075-1.44
			c-0.02-0.245-0.042-0.493-0.077-0.754c-0.055-0.288-0.036-0.478-0.255-0.993c-0.038-0.073-0.086-0.167-0.2-0.298
			c-0.033-0.117-0.645-0.442-0.819-0.37c-0.403,0.005-0.688,0.208-0.812,0.32c-0.275,0.259-0.339,0.423-0.432,0.583
			c-0.15,0.303-0.234,0.555-0.315,0.807c-0.157,0.498-0.27,0.969-0.378,1.442c-0.211,0.941-0.387,1.87-0.562,2.797
			c-0.352,1.849-0.68,3.697-1.125,5.472c-0.224,0.865-0.487,1.79-0.832,2.406c-0.03,0.059-0.065,0.108-0.096,0.147h-0.175l-1.416,0
			l-5.661-0.001h-0.354c-0.042-0.005-0.438,0-0.684,0.099c-0.538,0.205-0.833,0.568-1.02,0.849c-0.371,0.587-0.514,1.1-0.654,1.605
			c-0.258,1.005-0.384,1.963-0.5,2.918c-0.222,1.903-0.341,3.778-0.561,5.594c-0.088,0.692-0.188,1.4-0.342,2.021
			c-0.362-1.471-0.55-3.135-0.737-4.729c-0.197-1.815-0.356-3.636-0.513-5.448c-0.317-3.627-0.585-7.219-1.056-10.777
			c-0.122-0.891-0.258-1.779-0.443-2.676c-0.094-0.45-0.199-0.9-0.342-1.365c-0.173-0.476-0.257-0.923-0.784-1.558
			c-0.165-0.159-0.331-0.351-0.794-0.471c-0.173-0.034-0.18-0.026-0.203-0.03c-0.197-0.009-0.165,0.002-0.258,0.006
			c-0.129,0.008-0.249,0.041-0.369,0.074c-0.469,0.157-0.752,0.429-0.965,0.663c-0.415,0.482-0.623,0.932-0.824,1.373
			c-0.378,0.879-0.626,1.73-0.858,2.575c-0.454,1.686-0.801,3.339-1.186,4.942c-0.192,0.8-0.39,1.588-0.618,2.339
			c-0.204,0.672-0.463,1.377-0.739,1.81c-0.04-0.067-0.078-0.141-0.107-0.222c-0.25-0.589-0.419-1.347-0.562-2.085
			c-0.284-1.498-0.469-3.039-0.715-4.568c-0.125-0.767-0.259-1.533-0.453-2.313c-0.098-0.39-0.213-0.785-0.374-1.195
			c-0.183-0.409-0.34-0.849-0.871-1.327c-0.138-0.115-0.306-0.229-0.515-0.308c-0.081-0.039-0.267-0.084-0.4-0.102l-0.082-0.007
			c0.039,0.002-0.112-0.012-0.206-0.002c-0.342,0.018-0.645,0.178-0.803,0.311c-0.195,0.148-0.287,0.277-0.383,0.402
			c-0.338,0.491-0.457,0.876-0.592,1.266c-0.245,0.768-0.395,1.492-0.532,2.21c-0.52,2.86-0.765,5.563-1.087,8.13
			c-0.303,2.564-0.41,5.009-0.67,7.268c-0.126,1.125-0.265,2.222-0.494,3.202c-0.057,0.244-0.125,0.477-0.199,0.679
			c-0.025,0.069-0.052,0.123-0.078,0.177c-0.081-0.093-0.168-0.221-0.244-0.369c-0.384-0.782-0.607-1.725-0.812-2.59
			c-0.199-0.878-0.361-1.731-0.518-2.542c-0.326-1.622-0.559-3.088-1.051-4.341c-0.14-0.308-0.265-0.623-0.591-0.871
			c-0.042-0.03-0.09-0.053-0.144-0.077c-0.063-0.022-0.141-0.038-0.165-0.036c-0.117-0.008-0.157,0.003-0.238,0.004
			c-0.142,0.006-0.281,0.013-0.417,0.019c-0.544,0.024-1.038,0.046-1.48,0.065c-1.77,0.079-2.713,0.12-2.713,0.12
			s0.944,0.042,2.713,0.12c0.442,0.02,0.937,0.042,1.48,0.065c0.136,0.006,0.275,0.012,0.417,0.019
			c0.175,0.008,0.231,0.003,0.286,0.062c0.145,0.125,0.269,0.41,0.358,0.692c0.349,1.178,0.503,2.655,0.704,4.289
			c0.099,0.821,0.201,1.688,0.34,2.604c0.155,0.919,0.288,1.871,0.704,2.917c0.118,0.263,0.246,0.538,0.503,0.823
			c0.127,0.139,0.301,0.289,0.547,0.385c0.252,0.082,0.496,0.155,0.895-0.024c0.355-0.203,0.434-0.364,0.549-0.521
			c0.106-0.158,0.176-0.302,0.242-0.444c0.128-0.285,0.227-0.56,0.311-0.834c0.336-1.095,0.548-2.203,0.759-3.352
			c0.394-2.295,0.784-4.723,1.038-7.29c0.25-2.561,0.533-5.266,1.02-7.98c0.126-0.672,0.272-1.351,0.467-1.959
			c0.019-0.061,0.041-0.121,0.062-0.181c0.01,0.023,0.021,0.045,0.03,0.069c0.11,0.282,0.208,0.604,0.292,0.942
			c0.169,0.676,0.298,1.402,0.417,2.142c0.24,1.484,0.424,3.027,0.726,4.627c0.162,0.805,0.322,1.613,0.691,2.502
			c0.223,0.43,0.387,0.972,1.197,1.436c1.111,0.536,1.992-0.268,2.271-0.684c0.638-0.917,0.854-1.721,1.128-2.55
			c0.249-0.821,0.454-1.639,0.65-2.457c0.392-1.634,0.738-3.28,1.171-4.884c0.218-0.797,0.457-1.594,0.76-2.296
			c0.101-0.231,0.216-0.453,0.328-0.629c0.047,0.117,0.092,0.24,0.126,0.361c0.114,0.369,0.209,0.772,0.295,1.181
			c0.17,0.821,0.302,1.675,0.419,2.538c0.458,3.46,0.728,7.049,1.045,10.678c0.157,1.817,0.317,3.647,0.518,5.494
			c0.227,1.86,0.383,3.676,0.951,5.664c0.084,0.256,0.174,0.517,0.337,0.822c0.09,0.155,0.182,0.322,0.399,0.53
			c0.106,0.101,0.261,0.218,0.475,0.301c0.116,0.041,0.235,0.071,0.368,0.08c0.361,0,0.15-0.004,0.253-0.006
			c0.75-0.102,1.086-0.568,1.281-0.849c0.201-0.312,0.309-0.587,0.403-0.854c0.346-1.05,0.457-1.993,0.585-2.952
			c0.229-1.9,0.347-3.772,0.562-5.604c0.109-0.911,0.235-1.823,0.447-2.643c0.103-0.401,0.248-0.8,0.387-1.009
			c0.019-0.032,0.027-0.036,0.04-0.051c0.097-0.001,0.247-0.006,0.35-0.001l5.661,0.001l1.416,0h0.354
			c0.008,0.002,0.254-0.015,0.191-0.012c-0.007,0.003,0.144-0.019,0.251-0.052c0.127-0.036,0.208-0.074,0.264-0.105
			c0.065-0.034,0.139-0.073,0.186-0.109c0.431-0.311,0.593-0.603,0.755-0.865c0.565-1.043,0.781-1.966,1.04-2.918
			c0.473-1.885,0.802-3.749,1.153-5.594c0.002-0.009,0.004-0.018,0.006-0.028c0.001,0.133,0.006,0.264,0.007,0.396
			c-0.009,3.714-0.018,7.399-0.025,11.04c0.003,1.827,0.018,3.644,0.074,5.458c0.03,0.908,0.07,1.814,0.14,2.727
			c0.09,0.933,0.123,1.788,0.456,2.881c0.053,0.147,0.111,0.303,0.237,0.507c0.076,0.11,0.146,0.222,0.325,0.37
			c0.19,0.137,0.425,0.301,0.891,0.269l0.096-0.012c0.122-0.021,0.247-0.058,0.361-0.107c0.157-0.075,0.286-0.162,0.38-0.246
			c0.196-0.172,0.311-0.333,0.401-0.478c0.342-0.574,0.46-1.035,0.594-1.503c0.241-0.924,0.383-1.807,0.514-2.685
			c0.254-1.752,0.428-3.47,0.632-5.149c0.102-0.837,0.208-1.668,0.347-2.463c0.069-0.395,0.148-0.786,0.245-1.126
			c0.021-0.074,0.045-0.146,0.067-0.211c0.732-0.027,1.429-0.03,2.127-0.02l1.227,0.021l0.623,0.008l0.155,0.002l0.078,0.001
			c-0.118,0.013,0.248-0.015,0.237-0.019c-0.064,0.021,0.334-0.072,0.45-0.175c0.093-0.062,0.165-0.124,0.228-0.186
			c0.104-0.108,0.173-0.205,0.225-0.286c0.347-0.606,0.409-0.981,0.541-1.417c0.109-0.418,0.199-0.824,0.283-1.226
			c0.166-0.804,0.306-1.592,0.442-2.372c0.242-1.376,0.472-2.72,0.737-4.02c0.032,0.602,0.057,1.208,0.08,1.799
			c0.091,2.811,0.117,5.526,0.176,8.111c0.028,1.293,0.037,2.557,0.09,3.788c0.065,1.231,0.179,2.428,0.331,3.601
			c0.078,0.587,0.169,1.168,0.302,1.759c0.073,0.299,0.148,0.596,0.287,0.934c0.072,0.167,0.151,0.354,0.358,0.596
			c0.101,0.113,0.278,0.277,0.561,0.356c0.074,0.019,0.15,0.031,0.226,0.037c0.087,0.008,0.203-0.008,0.171-0.005l0.05-0.006
			c0.046-0.007,0.113-0.021,0.168-0.036c0.418-0.128,0.59-0.334,0.742-0.514c0.141-0.182,0.229-0.352,0.298-0.51
			c0.138-0.317,0.213-0.604,0.278-0.883c0.125-0.557,0.191-1.08,0.247-1.59c0.202-2.03,0.234-3.85,0.392-5.472
			c0.079-0.804,0.175-1.572,0.37-2.208c0.089-0.305,0.258-0.602,0.349-0.638c0.029-0.015,0.01-0.015,0.077-0.022l0.251-0.013
			c0.167-0.009,0.33-0.018,0.49-0.026c1.283-0.075,2.374-0.138,3.259-0.189c1.771-0.11,2.714-0.168,2.714-0.168
			s-0.943-0.059-2.714-0.169C180.869,117.581,179.778,117.517,178.495,117.441z M155.247,116.799
			c-0.014,0.001-0.013,0.001-0.02,0.001h-0.014C155.258,116.794,155.296,116.795,155.247,116.799z M95.373,97.962
			c-3.903-0.175-7.83-0.306-11.725-0.064c-4.132,0.256-6.611,2.494-7.543,6.56c-0.418,1.826-0.501,3.786-0.367,5.659
			c0.069,0.965,0.944,1.872,1.456,2.805c0.586-0.958,1.64-1.895,1.682-2.876c0.338-7.751,1.516-8.947,9.342-8.935
			c0.502,0.001,1.003,0,1.505,0v0.04c1.907,0,3.828,0.132,5.713-0.069c0.679-0.072,1.273-0.942,1.906-1.448
			C96.688,99.05,96.053,97.992,95.373,97.962z M89.704,114.771c-8.033-0.021-16.065-0.019-24.098-0.001
			c-4.316,0.01-6.244,1.95-6.246,6.234c-0.006,10.041-0.002,20.082-0.002,30.123h0.012c0,9.94-0.007,19.881,0.003,29.821
			c0.005,4.703,1.815,6.48,6.587,6.486c7.933,0.008,15.865,0.02,23.797-0.004c4.137-0.012,6.076-1.943,6.079-6.084
			c0.015-20.182,0.016-40.364,0-60.545C95.833,116.699,93.867,114.783,89.704,114.771z M240.63,120.775
			c-0.01-3.97-1.967-5.983-5.855-5.999c-8.232-0.033-16.467-0.031-24.701-0.002c-3.912,0.016-5.918,2.04-5.92,5.957
			c-0.008,20.182-0.002,40.364,0.018,60.545c0.004,4.281,1.932,6.148,6.311,6.156c7.932,0.016,15.863,0.016,23.795,0
			c4.518-0.008,6.354-1.859,6.357-6.412c0.012-9.941,0.004-19.881,0.004-29.823C240.638,141.057,240.653,130.916,240.63,120.775z
			 M210.118,101.112c9.441-0.11,9.586,0.056,10.574,9.375c0.092,0.856,1.076,1.617,1.646,2.422c0.607-0.77,1.713-1.517,1.754-2.315
			c0.389-7.98-1.91-13.241-11.143-12.871c-0.9,0.036-1.803,0.005-2.705,0.005c0,0.049-0.002,0.097-0.004,0.146
			c-1.701,0-3.43-0.181-5.096,0.069c-0.965,0.146-1.828,0.984-2.738,1.511c0.867,0.569,1.68,1.488,2.611,1.631
			C206.679,101.341,208.415,101.132,210.118,101.112z M184.832,94.147h-69.666c-2.206,0-4,1.794-4,4v38.833c0,2.206,1.794,4,4,4
			h69.666c2.206,0,4-1.794,4-4V98.147C188.832,95.941,187.038,94.147,184.832,94.147z M187.028,136.552c0,1.657-1.343,3-3,3h-68.058
			c-1.657,0-3-1.343-3-3V99.049c0-1.657,1.343-3,3-3h68.058c1.657,0,3,1.343,3,3V136.552z M199.354,87.677
			c-3.064-6.09-6.615-11.936-9.986-17.872c-1.533-2.698-3.881-3.945-6.967-3.92c-0.652,0.005-1.311-0.167-2.094-0.276
			c0-3.396-0.281-6.636,0.057-9.809c0.742-6.916-1.102-13.014-4.783-18.801c-1.551-2.441-3.201-3.77-6.246-3.733
			c-11.158,0.135-22.322-0.022-33.481,0.075c-10.015,0.087-8.067-1.597-13.555,8.033c-1.985,3.484-2.821,6.919-2.643,10.848
			c0.199,4.404,0.045,8.823,0.045,13.812c-5.978-1.241-8.529,2.305-10.775,6.565c-2.435,4.617-5.204,9.058-7.637,13.676
			c-0.756,1.435-1.237,3.193-1.256,4.811c-0.159,13.066-0.231,26.135-0.227,39.201c0.005,15.38,0.066,30.76,0.211,46.139
			c0.04,4.236,2.414,6.512,6.541,6.57c8.24,0.119,16.481,0.217,24.722,0.205c20.71-0.027,41.419-0.1,62.126-0.207
			c4.146-0.021,6.373-2.33,6.619-6.521c0.057-1.004,0.184-2.004,0.184-3.006c0.01-26.344,0.027-52.686-0.025-79.029
			C200.179,92.164,200.317,89.59,199.354,87.677z M133.506,36.61h33.14c5.324,0,5.379,0.04,7.363,5.6h-47.733
			C128.153,36.649,128.204,36.61,133.506,36.61z M190.832,136.98c0,3.309-2.691,6-6,6h-69.666c-3.309,0-6-2.691-6-6V98.147
			c0-3.309,2.691-6,6-6h69.666c3.309,0,6,2.691,6,6V136.98z M106.554,83.764c2.72-4.579,5.164-9.106,8.077-13.308
			c0.742-1.071,2.976-1.107,5.072-1.799c0,2.041-0.041,3.415,0.008,4.786c0.114,3.208,2.106,5.363,5.27,5.372
			c16.684,0.048,33.369,0.049,50.053,0c3.158-0.009,5.148-2.171,5.264-5.379c0.047-1.292,0.008-2.586,0.008-4.059
			c2.789-0.463,4.865,0.121,6.131,2.274c2.281,3.881,4.42,7.846,6.809,12.113H106.554z"/>
	</g>
</g>
<g>
</g>
<g>
</g>
<g>
</g>
<g>
</g>
<g>
</g>
<g>
</g>
</svg>
