<?xml version="1.0" encoding="utf-8"?>
<!-- Generator: Adobe Illustrator 16.0.0, SVG Export Plug-In . SVG Version: 6.00 Build 0)  -->
<!DOCTYPE svg PUBLIC "-//W3C//DTD SVG 1.1//EN" "http://www.w3.org/Graphics/SVG/1.1/DTD/svg11.dtd">
<svg version="1.1" xmlns="http://www.w3.org/2000/svg" xmlns:xlink="http://www.w3.org/1999/xlink" x="0px" y="0px" width="300px"
	 height="300px" viewBox="0 0 300 300" enable-background="new 0 0 300 300" xml:space="preserve">
<g id="Layer_3">
</g>
<g id="Layer_1">
	<rect x="47.191" y="204.314" fill="none" width="205.618" height="49.449"/>
	<g enable-background="new    ">
		<path fill="#FFFFFF" d="M78.433,228.361c0,0.625-0.246,1.158-0.738,1.604c-0.492,0.443-1.075,0.666-1.746,0.666
			c-0.696,0-1.296-0.223-1.8-0.666c-0.504-0.445-0.756-0.979-0.756-1.604v-12.383l-4.104,8.063c-0.24,0.479-0.57,0.828-0.99,1.043
			c-0.42,0.217-0.882,0.324-1.386,0.324c-0.48,0-0.93-0.107-1.35-0.324c-0.42-0.215-0.75-0.562-0.99-1.043l-4.104-8.063v12.383
			c0,0.625-0.258,1.158-0.774,1.604c-0.517,0.443-1.123,0.666-1.818,0.666c-0.696,0-1.278-0.223-1.746-0.666
			c-0.468-0.445-0.702-0.979-0.702-1.604v-21.383c0-0.695,0.246-1.267,0.738-1.711c0.492-0.443,1.11-0.666,1.854-0.666
			c1.2,0,2.04,0.469,2.52,1.403l6.408,12.709l6.408-12.744c0.264-0.526,0.618-0.889,1.062-1.079
			c0.444-0.191,0.918-0.289,1.422-0.289c0.744,0,1.362,0.233,1.854,0.703c0.492,0.467,0.738,1.024,0.738,1.674V228.361z"/>
		<path fill="#FFFFFF" d="M100.069,225.248c-0.408,1.092-1.002,2.041-1.782,2.844c-0.78,0.805-1.728,1.428-2.844,1.873
			c-1.116,0.443-2.382,0.666-3.798,0.666c-1.44,0-2.724-0.229-3.852-0.686c-1.128-0.455-2.076-1.08-2.844-1.871
			c-0.768-0.793-1.35-1.734-1.746-2.826s-0.594-2.285-0.594-3.582v-14.688c0-0.695,0.246-1.267,0.738-1.711
			c0.492-0.443,1.098-0.666,1.818-0.666c0.671,0,1.254,0.233,1.746,0.702c0.491,0.468,0.738,1.025,0.738,1.675v14.688
			c0,1.297,0.324,2.352,0.972,3.168s1.656,1.225,3.024,1.225s2.37-0.408,3.006-1.225c0.636-0.816,0.954-1.871,0.954-3.168v-14.688
			c0-0.625,0.24-1.177,0.72-1.656c0.48-0.48,1.068-0.721,1.764-0.721c0.744,0,1.362,0.239,1.854,0.721
			c0.492,0.479,0.738,1.031,0.738,1.656v14.688C100.681,222.963,100.477,224.156,100.069,225.248z"/>
		<path fill="#FFFFFF" d="M122.749,220.551c0,1.271-0.186,2.496-0.558,3.672s-0.99,2.213-1.854,3.113
			c-0.864,0.9-1.992,1.621-3.384,2.16c-1.392,0.541-3.108,0.811-5.148,0.811h-4.068c-0.384,0-0.744-0.072-1.08-0.217
			c-0.336-0.145-0.63-0.33-0.882-0.559c-0.252-0.227-0.456-0.496-0.612-0.809c-0.156-0.312-0.234-0.648-0.234-1.009v-20.231
			c0-0.359,0.078-0.695,0.234-1.008c0.156-0.312,0.36-0.582,0.612-0.812s0.546-0.414,0.882-0.56c0.336-0.143,0.696-0.215,1.08-0.215
			h4.068c2.04,0,3.756,0.258,5.148,0.773s2.52,1.213,3.384,2.088c0.864,0.877,1.482,1.885,1.854,3.023
			c0.372,1.141,0.558,2.336,0.558,3.582V220.551z M117.708,214.357c0-0.67-0.096-1.308-0.288-1.908
			c-0.192-0.6-0.492-1.121-0.9-1.564c-0.408-0.445-0.954-0.793-1.638-1.045c-0.684-0.252-1.506-0.377-2.466-0.377h-2.448v16.271
			h2.448c0.984,0,1.812-0.14,2.484-0.414c0.671-0.275,1.218-0.648,1.638-1.115c0.42-0.469,0.72-1.014,0.9-1.639
			s0.27-1.297,0.27-2.017V214.357z"/>
		<path fill="#FFFFFF" d="M144.132,220.551c0,1.271-0.186,2.496-0.558,3.672c-0.372,1.176-0.99,2.213-1.854,3.113
			c-0.864,0.9-1.992,1.621-3.384,2.16c-1.392,0.541-3.108,0.811-5.148,0.811h-4.068c-0.384,0-0.744-0.072-1.08-0.217
			s-0.63-0.33-0.882-0.559c-0.252-0.227-0.456-0.496-0.612-0.809c-0.156-0.312-0.234-0.648-0.234-1.009v-20.231
			c0-0.359,0.078-0.695,0.234-1.008c0.156-0.312,0.36-0.582,0.612-0.812s0.546-0.414,0.882-0.56c0.336-0.143,0.696-0.215,1.08-0.215
			h4.068c2.04,0,3.756,0.258,5.148,0.773s2.52,1.213,3.384,2.088c0.864,0.877,1.482,1.885,1.854,3.023
			c0.372,1.141,0.558,2.336,0.558,3.582V220.551z M139.092,214.357c0-0.67-0.096-1.308-0.288-1.908
			c-0.192-0.6-0.492-1.121-0.9-1.564c-0.408-0.445-0.954-0.793-1.638-1.045s-1.506-0.377-2.466-0.377h-2.448v16.271h2.448
			c0.984,0,1.812-0.14,2.484-0.414c0.671-0.275,1.218-0.648,1.638-1.115c0.42-0.469,0.72-1.014,0.9-1.639
			c0.18-0.625,0.27-1.297,0.27-2.017V214.357z"/>
		<path fill="#FFFFFF" d="M164.706,229.928c-0.492,0.469-1.086,0.703-1.782,0.703c-0.672,0-1.26-0.234-1.764-0.703
			c-0.504-0.467-0.756-1.014-0.756-1.637v-8.389h-7.668v8.389c0,0.623-0.246,1.17-0.738,1.637c-0.492,0.469-1.086,0.703-1.782,0.703
			c-0.696,0-1.291-0.234-1.782-0.703c-0.492-0.467-0.738-1.014-0.738-1.637v-21.385c0-0.623,0.246-1.164,0.738-1.619
			c0.492-0.457,1.086-0.686,1.782-0.686c0.696,0,1.29,0.229,1.782,0.686c0.492,0.455,0.738,0.996,0.738,1.619v8.389h7.668v-8.389
			c0-0.623,0.252-1.164,0.756-1.619c0.504-0.457,1.092-0.686,1.764-0.686s1.26,0.229,1.764,0.686
			c0.506,0.455,0.758,0.996,0.758,1.619v21.385C165.443,228.914,165.197,229.461,164.706,229.928z"/>
		<path fill="#FFFFFF" d="M173.436,228.938c-0.191,0.529-0.526,0.943-1.008,1.242c-0.479,0.301-0.936,0.451-1.367,0.451
			c-0.696,0-1.303-0.211-1.817-0.631c-0.517-0.42-0.774-0.977-0.774-1.674c0-0.096,0.006-0.229,0.02-0.396
			c0.012-0.168,0.041-0.299,0.09-0.396l7.02-20.482c0.24-0.696,0.57-1.278,0.99-1.745c0.42-0.47,1.062-0.703,1.926-0.703
			c0.864,0,1.506,0.229,1.926,0.686c0.42,0.455,0.763,1.043,1.026,1.764l7.021,20.482c0.048,0.098,0.078,0.229,0.091,0.396
			c0.012,0.168,0.019,0.301,0.019,0.396c0,0.696-0.246,1.254-0.738,1.674s-1.11,0.631-1.854,0.631c-0.479,0-0.961-0.155-1.44-0.469
			c-0.479-0.313-0.814-0.722-1.008-1.226l-1.261-3.635h-7.668L173.436,228.938z M179.16,215.043
			c-0.168-0.529-0.301-1.111-0.396-1.746c-0.096-0.637-0.18-1.23-0.252-1.783c-0.072,0.553-0.156,1.146-0.252,1.783
			c-0.096,0.635-0.229,1.217-0.396,1.746l-1.908,6.154h5.041L179.16,215.043z"/>
		<path fill="#FFFFFF" d="M195.432,221.162c0,0.768,0.072,1.465,0.215,2.088c0.146,0.625,0.386,1.152,0.722,1.584
			s0.778,0.768,1.332,1.008c0.553,0.24,1.235,0.361,2.053,0.361c0.576,0,1.104-0.072,1.584-0.217
			c0.479-0.146,0.947-0.359,1.404-0.648l0.358-0.215c0.24-0.145,0.455-0.271,0.648-0.379c0.191-0.107,0.49-0.162,0.898-0.162
			c0.696,0,1.266,0.217,1.711,0.648c0.442,0.432,0.666,0.936,0.666,1.512c0,0.527-0.211,1.025-0.631,1.494s-0.978,0.877-1.675,1.225
			c-0.694,0.348-1.487,0.623-2.375,0.828c-0.889,0.203-1.812,0.305-2.771,0.305c-1.584,0-2.953-0.223-4.105-0.666
			c-1.15-0.443-2.105-1.08-2.861-1.908s-1.313-1.821-1.674-2.987c-0.359-1.162-0.541-2.453-0.541-3.869v-7.129
			c0-1.414,0.182-2.705,0.541-3.869s0.918-2.16,1.674-2.988c0.756-0.827,1.711-1.463,2.861-1.907
			c1.152-0.443,2.521-0.666,4.105-0.666c0.959,0,1.883,0.104,2.771,0.307c0.888,0.205,1.681,0.48,2.375,0.828
			c0.697,0.348,1.255,0.756,1.675,1.225c0.42,0.467,0.631,0.965,0.631,1.494c0,0.574-0.224,1.078-0.666,1.512
			c-0.445,0.432-1.015,0.646-1.711,0.646c-0.408,0-0.707-0.053-0.898-0.16c-0.193-0.109-0.408-0.234-0.648-0.379l-0.358-0.217
			c-0.457-0.287-0.927-0.504-1.404-0.646c-0.479-0.145-1.008-0.217-1.584-0.217c-0.815,0-1.5,0.121-2.053,0.359
			c-0.554,0.239-0.996,0.576-1.332,1.008c-0.336,0.434-0.576,0.961-0.722,1.584c-0.143,0.625-0.215,1.32-0.215,2.088V221.162z"/>
		<path fill="#FFFFFF" d="M219.119,216.555l7.885,10.439c0.191,0.24,0.305,0.457,0.342,0.648c0.035,0.19,0.053,0.383,0.053,0.575
			c0,0.265-0.053,0.539-0.16,0.828c-0.108,0.287-0.271,0.545-0.485,0.772c-0.217,0.229-0.476,0.421-0.774,0.576
			c-0.299,0.156-0.642,0.234-1.025,0.234c-0.863,0-1.561-0.348-2.088-1.045l-6.984-9.359l-0.648,0.719v7.347
			c0,0.623-0.246,1.17-0.735,1.637c-0.492,0.47-1.088,0.703-1.783,0.703c-0.694,0-1.289-0.233-1.78-0.703
			c-0.492-0.467-0.738-1.014-0.738-1.637v-21.386c0-0.622,0.246-1.163,0.738-1.618c0.491-0.457,1.086-0.687,1.78-0.687
			c0.695,0,1.291,0.229,1.783,0.687c0.489,0.455,0.735,0.996,0.735,1.618v6.841l7.129-8.101c0.218-0.264,0.511-0.504,0.884-0.721
			c0.371-0.215,0.762-0.324,1.17-0.324c0.265,0,0.545,0.062,0.846,0.18c0.3,0.121,0.57,0.289,0.81,0.507
			c0.24,0.215,0.438,0.461,0.596,0.735c0.154,0.277,0.232,0.57,0.232,0.883c0,0.265-0.029,0.505-0.09,0.722
			c-0.06,0.215-0.232,0.492-0.521,0.828L219.119,216.555z"/>
		<path fill="#FFFFFF" d="M241.367,222.963c0-0.816-0.162-1.393-0.486-1.729s-0.654-0.576-0.99-0.721
			c-0.383-0.169-0.797-0.33-1.242-0.486c-0.442-0.154-0.905-0.316-1.385-0.484c-0.889-0.264-1.771-0.559-2.646-0.883
			c-0.877-0.324-1.662-0.756-2.356-1.297c-0.697-0.539-1.261-1.234-1.693-2.088c-0.432-0.853-0.646-1.926-0.646-3.221
			c0-1.152,0.197-2.189,0.594-3.115c0.396-0.924,0.953-1.709,1.674-2.357c0.72-0.648,1.597-1.139,2.627-1.477
			c1.033-0.336,2.185-0.504,3.457-0.504c0.527,0,1.199,0.043,2.017,0.127s1.612,0.246,2.396,0.485c0.778,0.24,1.444,0.57,1.998,0.99
			c0.551,0.42,0.828,0.965,0.828,1.637c0,0.601-0.224,1.13-0.666,1.584c-0.445,0.457-1.062,0.685-1.855,0.685
			c-0.336,0-0.635-0.041-0.898-0.125c-0.266-0.084-0.553-0.174-0.865-0.271c-0.336-0.121-0.719-0.239-1.151-0.36
			c-0.433-0.119-0.959-0.181-1.584-0.181c-0.433,0-0.857,0.043-1.277,0.127s-0.786,0.232-1.098,0.449s-0.563,0.498-0.757,0.847
			c-0.192,0.35-0.288,0.786-0.288,1.313c0,0.793,0.174,1.354,0.522,1.69c0.348,0.338,0.678,0.576,0.988,0.722
			c0.48,0.239,0.932,0.432,1.352,0.575c0.42,0.145,0.834,0.275,1.242,0.396c0.887,0.287,1.771,0.594,2.646,0.918
			c0.877,0.324,1.661,0.756,2.358,1.295c0.695,0.541,1.267,1.23,1.709,2.07c0.443,0.84,0.666,1.896,0.666,3.168
			c0,1.248-0.229,2.363-0.684,3.348c-0.457,0.984-1.08,1.812-1.873,2.484c-0.791,0.672-1.732,1.182-2.824,1.529
			c-1.094,0.348-2.287,0.522-3.582,0.522c-0.674,0-1.453-0.062-2.34-0.182c-0.889-0.119-1.729-0.316-2.521-0.595
			c-0.791-0.274-1.463-0.635-2.016-1.08c-0.553-0.442-0.828-0.977-0.828-1.602c0-0.576,0.229-1.098,0.685-1.566
			c0.456-0.467,1.02-0.701,1.692-0.701c0.264,0,0.545,0.044,0.846,0.125c0.3,0.087,0.617,0.188,0.953,0.308
			c0.433,0.146,0.941,0.301,1.531,0.47c0.588,0.168,1.266,0.252,2.033,0.252c1.248,0,2.184-0.265,2.809-0.793
			C241.055,224.738,241.367,223.971,241.367,222.963z"/>
	</g>
	<rect x="47.191" y="244.148" fill="none" width="205.618" height="49.451"/>
	<g enable-background="new    ">
		<path fill="#FFFFFF" d="M55.794,264.002c0,0.262-0.084,0.48-0.252,0.658c-0.168,0.176-0.383,0.266-0.644,0.266
			c-0.262,0-0.486-0.09-0.672-0.266c-0.187-0.178-0.28-0.396-0.28-0.658v-17.949c0-0.297,0.107-0.563,0.322-0.797
			c0.214-0.234,0.49-0.35,0.826-0.35h7.756c0.261,0,0.476,0.092,0.644,0.279s0.252,0.41,0.252,0.672
			c0,0.242-0.084,0.442-0.252,0.602c-0.168,0.158-0.383,0.238-0.644,0.238h-7.056v7.141h6.496c0.242,0,0.452,0.084,0.63,0.252
			c0.177,0.168,0.266,0.383,0.266,0.643c0,0.263-0.084,0.478-0.252,0.646s-0.383,0.252-0.644,0.252h-6.496V264.002z"/>
		<path fill="#FFFFFF" d="M75.282,264.254c-0.093,0.168-0.229,0.322-0.406,0.461c-0.178,0.141-0.341,0.211-0.49,0.211
			c-0.261,0-0.49-0.084-0.686-0.252c-0.196-0.168-0.294-0.393-0.294-0.672c0-0.131,0.019-0.252,0.056-0.365l5.572-17.639
			c0.112-0.393,0.261-0.719,0.448-0.98s0.466-0.393,0.84-0.393c0.354,0,0.63,0.137,0.826,0.406c0.196,0.271,0.359,0.594,0.49,0.967
			l5.572,17.639c0,0.039,0.004,0.094,0.014,0.168c0.009,0.076,0.014,0.141,0.014,0.197c0,0.279-0.093,0.504-0.28,0.672
			s-0.42,0.252-0.7,0.252c-0.168,0-0.346-0.061-0.532-0.182c-0.187-0.121-0.308-0.285-0.364-0.49l-1.288-4.145h-7.532
			L75.282,264.254z M77.074,258.289h6.468l-3.22-10.611L77.074,258.289z"/>
		<path fill="#FFFFFF" d="M109.05,263.75c0,0.262-0.084,0.475-0.252,0.643s-0.374,0.252-0.616,0.252h-8.064
			c-0.299,0-0.556-0.098-0.77-0.293c-0.215-0.194-0.322-0.453-0.322-0.77v-18.033c0-0.242,0.093-0.457,0.28-0.643
			c0.186-0.188,0.41-0.281,0.672-0.281c0.261,0,0.476,0.094,0.644,0.281c0.168,0.186,0.252,0.4,0.252,0.643v17.332h7.308
			c0.224,0,0.424,0.084,0.602,0.252C108.961,263.301,109.05,263.508,109.05,263.75z"/>
		<path fill="#FFFFFF" d="M130.582,263.75c0,0.262-0.084,0.475-0.252,0.643s-0.374,0.252-0.616,0.252h-8.064
			c-0.299,0-0.556-0.098-0.77-0.293c-0.215-0.194-0.322-0.453-0.322-0.77v-18.033c0-0.242,0.093-0.457,0.28-0.643
			c0.186-0.188,0.41-0.281,0.672-0.281c0.261,0,0.476,0.094,0.644,0.281c0.168,0.186,0.252,0.4,0.252,0.643v17.332h7.308
			c0.224,0,0.424,0.084,0.602,0.252C130.493,263.301,130.582,263.508,130.582,263.75z"/>
		<path fill="#FFFFFF" d="M169.949,263.777c0,0.262-0.084,0.471-0.252,0.631c-0.168,0.158-0.383,0.236-0.645,0.236h-9.408
			c-0.279,0-0.514-0.093-0.699-0.279c-0.188-0.186-0.279-0.42-0.279-0.699c0-0.15,0.009-0.318,0.027-0.504
			c0.019-0.188,0.064-0.365,0.141-0.533c0.242-0.578,0.561-1.152,0.951-1.721c0.393-0.57,0.812-1.121,1.26-1.652
			c0.449-0.533,0.915-1.045,1.4-1.541c0.484-0.494,0.951-0.965,1.399-1.414c0.447-0.428,0.896-0.863,1.345-1.301
			c0.447-0.439,0.857-0.873,1.231-1.303c0.429-0.484,0.804-1.041,1.119-1.666c0.317-0.625,0.478-1.33,0.478-2.113
			c0-1.121-0.31-2.055-0.925-2.801c-0.616-0.746-1.55-1.119-2.801-1.119c-0.541,0-1.049,0.051-1.524,0.152
			c-0.478,0.104-0.91,0.238-1.303,0.406c-0.094,0.039-0.215,0.1-0.363,0.184c-0.149,0.084-0.279,0.172-0.394,0.266
			c-0.147,0.094-0.299,0.172-0.447,0.238c-0.149,0.064-0.288,0.098-0.42,0.098c-0.225,0-0.425-0.074-0.603-0.225
			c-0.178-0.148-0.266-0.354-0.266-0.615c0-0.318,0.213-0.625,0.644-0.924c1.419-0.822,2.985-1.232,4.704-1.232
			c0.857,0,1.634,0.135,2.324,0.406c0.689,0.27,1.27,0.643,1.735,1.119s0.825,1.037,1.077,1.68c0.252,0.646,0.379,1.33,0.379,2.059
			c0,1.158-0.188,2.138-0.561,2.939c-0.373,0.803-0.858,1.531-1.455,2.184c-0.43,0.523-0.842,0.978-1.232,1.359
			c-0.393,0.383-0.766,0.742-1.12,1.078c-0.896,0.84-1.755,1.717-2.575,2.631c-0.822,0.916-1.504,1.951-2.045,3.109h8.204
			c0.261,0,0.476,0.084,0.644,0.252S169.949,263.535,169.949,263.777z"/>
		<path fill="#FFFFFF" d="M187.338,244.346c0.951,0,1.777,0.168,2.479,0.504s1.273,0.789,1.722,1.357
			c0.448,0.57,0.778,1.242,0.994,2.016c0.215,0.775,0.321,1.592,0.321,2.451v8.539c0,0.803-0.121,1.551-0.363,2.24
			c-0.243,0.691-0.598,1.293-1.063,1.807c-0.467,0.514-1.041,0.92-1.723,1.217c-0.683,0.299-1.47,0.449-2.365,0.449
			s-1.688-0.15-2.381-0.449c-0.69-0.297-1.272-0.703-1.75-1.217c-0.476-0.514-0.836-1.115-1.078-1.807
			c-0.241-0.689-0.362-1.438-0.362-2.24v-8.539c0-0.859,0.106-1.676,0.321-2.451c0.214-0.772,0.55-1.445,1.009-2.016
			c0.457-0.568,1.034-1.021,1.735-1.357C185.531,244.514,186.367,244.346,187.338,244.346z M187.338,245.998
			c-1.326,0-2.277,0.414-2.855,1.246c-0.58,0.83-0.868,1.898-0.868,3.205v8.764c0,1.215,0.317,2.189,0.952,2.926
			c0.634,0.738,1.559,1.107,2.771,1.107c1.193,0,2.104-0.369,2.729-1.107c0.625-0.736,0.938-1.711,0.938-2.926v-8.764
			c0-1.307-0.284-2.375-0.854-3.205C189.582,246.412,188.645,245.998,187.338,245.998z"/>
		<path fill="#FFFFFF" d="M211.139,247.006l-3.838,2.436c-0.186,0.15-0.383,0.275-0.588,0.379c-0.205,0.103-0.391,0.152-0.559,0.152
			c-0.207,0-0.394-0.074-0.562-0.223c-0.168-0.15-0.252-0.326-0.252-0.533c0-0.336,0.148-0.605,0.447-0.811l5.629-3.613
			c0.187-0.111,0.373-0.168,0.562-0.168c0.297,0,0.541,0.098,0.727,0.295c0.188,0.195,0.281,0.443,0.281,0.742v18.311
			c0,0.262-0.09,0.482-0.269,0.658c-0.176,0.178-0.396,0.266-0.655,0.266c-0.263,0-0.482-0.088-0.658-0.266
			c-0.178-0.176-0.266-0.396-0.266-0.658V247.006L211.139,247.006z"/>
		<path fill="#FFFFFF" d="M229.449,253.893c0.598-0.483,1.262-0.826,1.988-1.021c0.729-0.195,1.428-0.293,2.1-0.293
			c0.766,0,1.484,0.125,2.156,0.377s1.256,0.631,1.75,1.135s0.887,1.129,1.176,1.875c0.289,0.748,0.436,1.615,0.436,2.605
			c0,0.877-0.117,1.696-0.352,2.463c-0.232,0.766-0.588,1.438-1.062,2.016c-0.477,0.58-1.07,1.037-1.779,1.373
			s-1.549,0.504-2.52,0.504c-1.139,0-2.082-0.237-2.828-0.715s-1.344-1.139-1.791-1.987c-0.449-0.849-0.762-1.857-0.938-3.023
			s-0.267-2.439-0.267-3.822c0-3.471,0.504-6.131,1.512-7.98c1.009-1.848,2.539-2.771,4.593-2.771c0.226,0,0.569,0.015,1.037,0.043
			c0.467,0.027,0.934,0.095,1.399,0.195c0.465,0.104,0.871,0.241,1.217,0.42c0.347,0.178,0.521,0.416,0.521,0.715
			c0,0.205-0.076,0.392-0.226,0.56s-0.346,0.252-0.588,0.252c-0.094,0-0.188-0.008-0.28-0.027c-0.095-0.018-0.187-0.047-0.279-0.084
			c-0.317-0.094-0.69-0.191-1.119-0.293c-0.43-0.104-0.868-0.154-1.315-0.154c-0.916,0-1.666,0.199-2.254,0.602
			c-0.588,0.403-1.051,0.943-1.387,1.623c-0.337,0.683-0.57,1.49-0.699,2.422C229.516,251.83,229.449,252.83,229.449,253.893z
			 M229.395,256.834c0,0.82,0.051,1.613,0.154,2.379c0.102,0.766,0.303,1.438,0.602,2.016c0.3,0.58,0.714,1.041,1.246,1.388
			c0.531,0.346,1.218,0.518,2.058,0.518c0.711,0,1.308-0.125,1.793-0.377c0.483-0.252,0.873-0.588,1.162-1.008
			s0.498-0.899,0.629-1.442c0.131-0.541,0.196-1.101,0.196-1.681c0-1.476-0.35-2.562-1.051-3.262
			c-0.699-0.699-1.608-1.052-2.729-1.052c-0.84,0-1.623,0.168-2.353,0.504c-0.729,0.339-1.297,0.748-1.707,1.232V256.834z"/>
	</g>
</g>
<g id="Layer_2">
	<rect x="143.037" y="147.395" fill="#FFFFFF" width="13.926" height="5.533"/>
	<path fill="#FFFFFF" d="M188.859,81.075c-0.357-1.141-1.275-2.033-2.428-2.364l-15.67-34.393L150,105.518l-20.762-61.2
		L113.556,78.74c-1.14,0.337-2.045,1.226-2.4,2.357H98.426v70.254h31.866v25.039h7.097v-52.219h-7.097v25.038h-29.725V83.24h10.589
		c0.457,1.45,1.813,2.505,3.412,2.505c1.972,0,3.577-1.605,3.577-3.578c0-0.708-0.21-1.367-0.566-1.923l11.04-24.231L150,119.057
		l21.383-63.045l11.039,24.232c-0.35,0.551-0.555,1.201-0.555,1.899c0,1.974,1.605,3.578,3.58,3.578
		c1.598,0,2.955-1.055,3.412-2.505l10.574,0.022v65.97h-29.725v-25.038h-7.098v52.219h7.098v-25.039h31.865V81.097L188.859,81.075z"
		/>
	<path fill="#FFFFFF" d="M111.141,81.075c0.358-1.141,1.275-2.033,2.428-2.364l15.67-34.393l20.762,61.2l20.762-61.2l15.684,34.422
		c1.139,0.337,2.045,1.226,2.4,2.357h12.729v70.254h-31.865v25.039h-7.098v-52.219h7.098v25.038h29.725V83.24h-10.59
		c-0.455,1.45-1.812,2.505-3.41,2.505c-1.973,0-3.578-1.605-3.578-3.578c0-0.708,0.209-1.367,0.566-1.923l-11.041-24.231
		L150,119.057l-21.382-63.045l-11.039,24.232c0.349,0.551,0.553,1.201,0.553,1.899c0,1.974-1.604,3.578-3.578,3.578
		c-1.599,0-2.955-1.055-3.411-2.505l-10.575,0.022v65.97h29.725v-25.038h7.097v52.219h-7.097v-25.039H98.426V81.097L111.141,81.075z
		"/>
</g>
</svg>
