<?xml version="1.0" encoding="utf-8"?>
<!-- Generator: Adobe Illustrator 16.0.0, SVG Export Plug-In . SVG Version: 6.00 Build 0)  -->
<!DOCTYPE svg PUBLIC "-//W3C//DTD SVG 1.1//EN" "http://www.w3.org/Graphics/SVG/1.1/DTD/svg11.dtd">
<svg version="1.1" id="Layer_1" xmlns="http://www.w3.org/2000/svg" xmlns:xlink="http://www.w3.org/1999/xlink" x="0px" y="0px"
	 width="205.617px" height="39.402px" viewBox="0 0 205.617 39.402" enable-background="new 0 0 205.617 39.402"
	 xml:space="preserve">
<g>
	<rect y="4.698" fill-rule="evenodd" clip-rule="evenodd" fill="none" width="205.617" height="32.011"/>
	<path fill="#FFFFFF" d="M30.735,28.746c0,1.225-1.152,2.268-2.484,2.268c-1.368,0-2.556-1.043-2.556-2.268V16.363l-4.104,8.062
		c-0.468,0.938-1.368,1.369-2.375,1.369c-0.972,0-1.872-0.432-2.34-1.369l-4.104-8.062v12.383c0,1.225-1.188,2.268-2.592,2.268
		c-1.368,0-2.448-1.043-2.448-2.268V7.365c0-1.368,1.116-2.376,2.592-2.376c1.152,0,2.052,0.468,2.52,1.403L19.252,19.1
		l6.407-12.742c0.504-1.045,1.476-1.368,2.484-1.368c1.476,0,2.592,1.079,2.592,2.376V28.746z"/>
	<path fill="#FFFFFF" d="M43.948,31.014c-5.795,0-9.035-3.814-9.035-8.963V7.365c0-1.368,1.116-2.376,2.556-2.376
		c1.332,0,2.483,1.079,2.483,2.376v14.686c0,2.592,1.26,4.393,3.996,4.393c2.7,0,3.959-1.836,3.959-4.393V7.365
		c0-1.26,1.08-2.376,2.484-2.376c1.476,0,2.591,1.116,2.591,2.376v14.686C52.983,27.234,49.636,31.014,43.948,31.014z"/>
	<path fill="#FFFFFF" d="M64.109,30.689h-4.068c-1.512,0-2.808-1.188-2.808-2.592V7.869c0-1.404,1.296-2.592,2.808-2.592h4.068
		c8.135,0,10.942,4.463,10.942,9.467v6.191C75.051,26.01,72.28,30.689,64.109,30.689z M70.012,14.744
		c0-2.736-1.404-4.896-5.291-4.896h-2.448v16.271h2.448c3.959,0,5.291-2.34,5.291-5.184V14.744z"/>
	<path fill="#FFFFFF" d="M85.493,30.689h-4.068c-1.512,0-2.808-1.188-2.808-2.592V7.869c0-1.404,1.296-2.592,2.808-2.592h4.068
		c8.135,0,10.942,4.463,10.942,9.467v6.191C96.435,26.01,93.664,30.689,85.493,30.689z M91.396,14.744
		c0-2.736-1.404-4.896-5.291-4.896h-2.448v16.271h2.448c3.959,0,5.291-2.34,5.291-5.184V14.744z"/>
	<path fill="#FFFFFF" d="M115.227,31.014c-1.332,0-2.52-1.08-2.52-2.34v-8.387h-7.667v8.387c0,1.26-1.152,2.34-2.52,2.34
		c-1.404,0-2.52-1.08-2.52-2.34V7.293c0-1.225,1.116-2.304,2.52-2.304c1.368,0,2.52,1.079,2.52,2.304v8.387h7.667V7.293
		c0-1.225,1.188-2.304,2.52-2.304c1.332,0,2.52,1.079,2.52,2.304v21.381C117.747,29.934,116.595,31.014,115.227,31.014z"/>
	<path fill="#FFFFFF" d="M125.74,29.322c-0.359,1.043-1.512,1.691-2.375,1.691c-1.404,0-2.592-0.936-2.592-2.303
		c0-0.182,0.035-0.613,0.107-0.793l7.02-20.48c0.467-1.404,1.188-2.448,2.915-2.448s2.448,1.008,2.952,2.448l7.019,20.48
		c0.072,0.18,0.108,0.611,0.108,0.793c0,1.367-1.116,2.303-2.592,2.303c-0.936,0-2.088-0.684-2.447-1.691l-1.26-3.635h-7.668
		L125.74,29.322z M131.463,15.428c-0.323-1.044-0.504-2.412-0.647-3.527c-0.144,1.115-0.323,2.483-0.647,3.527l-1.908,6.156h5.039
		L131.463,15.428z"/>
	<path fill="#FFFFFF" d="M147.736,21.547c0,3.096,1.079,5.039,4.318,5.039c1.152,0,2.088-0.287,2.988-0.863l0.359-0.217
		c0.469-0.287,0.721-0.539,1.549-0.539c1.367,0,2.375,1.008,2.375,2.16c0,2.088-3.635,3.852-7.451,3.852
		c-6.299,0-9.179-3.744-9.179-9.432V14.42c0-5.688,2.88-9.431,9.179-9.431c3.816,0,7.451,1.764,7.451,3.852
		c0,1.151-1.008,2.159-2.375,2.159c-0.828,0-1.08-0.252-1.549-0.539l-0.359-0.217c-0.9-0.576-1.836-0.863-2.988-0.863
		c-3.239,0-4.318,1.943-4.318,5.039V21.547z"/>
	<path fill="#FFFFFF" d="M171.423,16.939l7.883,10.439c0.36,0.467,0.396,0.863,0.396,1.223c0,1.045-0.899,2.412-2.447,2.412
		c-0.828,0-1.548-0.324-2.088-1.043l-6.982-9.359l-0.648,0.721v7.342c0,1.26-1.152,2.34-2.52,2.34c-1.404,0-2.52-1.08-2.52-2.34
		V7.293c0-1.225,1.115-2.304,2.52-2.304c1.367,0,2.52,1.079,2.52,2.304v6.839l7.127-8.099c0.432-0.54,1.26-1.044,2.052-1.044
		c1.08,0,2.483,1.044,2.483,2.304c0,0.54-0.035,0.9-0.611,1.548L171.423,16.939z"/>
	<path fill="#FFFFFF" d="M192.194,20.898c-0.756-0.322-1.655-0.646-2.628-0.971c-3.527-1.08-7.343-2.268-7.343-7.487
		c0-4.644,3.239-7.451,8.351-7.451c2.124,0,7.235,0.54,7.235,3.239c0,1.188-0.936,2.268-2.52,2.268
		c-0.647,0-1.151-0.216-1.764-0.396c-0.685-0.252-1.476-0.54-2.735-0.54c-1.764,0-3.42,0.611-3.42,2.736
		c0,1.583,0.9,2.123,1.512,2.411c0.936,0.468,1.8,0.756,2.592,0.972c3.527,1.115,7.379,2.34,7.379,7.451
		c0,5.004-3.815,7.883-8.963,7.883c-2.664,0-7.703-0.936-7.703-3.455c0-1.152,1.044-2.268,2.376-2.268c0.54,0,1.116,0.18,1.8,0.432
		c0.863,0.287,2.016,0.721,3.563,0.721c2.483,0,3.743-1.117,3.743-3.096C193.67,21.727,192.842,21.188,192.194,20.898z"/>
</g>
<g>
</g>
<g>
</g>
<g>
</g>
<g>
</g>
<g>
</g>
<g>
</g>
</svg>
