<?xml version="1.0" encoding="utf-8"?>
<!-- Generator: Adobe Illustrator 16.0.0, SVG Export Plug-In . SVG Version: 6.00 Build 0)  -->
<!DOCTYPE svg PUBLIC "-//W3C//DTD SVG 1.1//EN" "http://www.w3.org/Graphics/SVG/1.1/DTD/svg11.dtd">
<svg version="1.1" xmlns="http://www.w3.org/2000/svg" xmlns:xlink="http://www.w3.org/1999/xlink" x="0px" y="0px"
	 width="210.104px" height="238.38px" viewBox="0 0 210.104 238.38" enable-background="new 0 0 210.104 238.38"
	 xml:space="preserve">
<g id="Layer_2">
</g>
<g id="Layer_1">
	<g>
		<rect x="5.588" y="171.05" fill-rule="evenodd" clip-rule="evenodd" fill="none" width="194.443" height="49.45"/>
		<path fill="#FFFFFF" d="M30.736,195.098c0,1.225-1.152,2.268-2.484,2.268c-1.368,0-2.556-1.043-2.556-2.268v-12.383l-4.104,8.062
			c-0.468,0.938-1.368,1.369-2.375,1.369c-0.972,0-1.872-0.432-2.34-1.369l-4.104-8.062v12.383c0,1.225-1.188,2.268-2.592,2.268
			c-1.368,0-2.448-1.043-2.448-2.268v-21.381c0-1.368,1.116-2.376,2.592-2.376c1.152,0,2.052,0.468,2.52,1.403l6.407,12.707
			l6.407-12.742c0.504-1.045,1.476-1.368,2.484-1.368c1.476,0,2.592,1.079,2.592,2.376V195.098z"/>
		<path fill="#FFFFFF" d="M43.949,197.365c-5.795,0-9.035-3.814-9.035-8.963v-14.686c0-1.368,1.116-2.376,2.556-2.376
			c1.332,0,2.483,1.079,2.483,2.376v14.686c0,2.592,1.26,4.393,3.996,4.393c2.7,0,3.959-1.836,3.959-4.393v-14.686
			c0-1.26,1.08-2.376,2.484-2.376c1.476,0,2.591,1.116,2.591,2.376v14.686C52.984,193.586,49.637,197.365,43.949,197.365z"/>
		<path fill="#FFFFFF" d="M64.11,197.041h-4.068c-1.512,0-2.808-1.188-2.808-2.592v-20.229c0-1.404,1.296-2.592,2.808-2.592h4.068
			c8.135,0,10.942,4.463,10.942,9.467v6.191C75.052,192.361,72.281,197.041,64.11,197.041z M70.013,181.096
			c0-2.736-1.404-4.896-5.291-4.896h-2.448v16.271h2.448c3.959,0,5.291-2.34,5.291-5.184V181.096z"/>
		<path fill="#FFFFFF" d="M85.494,197.041h-4.068c-1.512,0-2.808-1.188-2.808-2.592v-20.229c0-1.404,1.296-2.592,2.808-2.592h4.068
			c8.135,0,10.942,4.463,10.942,9.467v6.191C96.436,192.361,93.665,197.041,85.494,197.041z M91.396,181.096
			c0-2.736-1.404-4.896-5.291-4.896h-2.448v16.271h2.448c3.959,0,5.291-2.34,5.291-5.184V181.096z"/>
		<path fill="#FFFFFF" d="M115.228,197.365c-1.332,0-2.52-1.08-2.52-2.34v-8.387h-7.667v8.387c0,1.26-1.152,2.34-2.52,2.34
			c-1.404,0-2.52-1.08-2.52-2.34v-21.381c0-1.225,1.116-2.304,2.52-2.304c1.368,0,2.52,1.079,2.52,2.304v8.387h7.667v-8.387
			c0-1.225,1.188-2.304,2.52-2.304c1.332,0,2.52,1.079,2.52,2.304v21.381C117.748,196.285,116.596,197.365,115.228,197.365z"/>
		<path fill="#FFFFFF" d="M125.742,195.674c-0.36,1.043-1.512,1.691-2.376,1.691c-1.403,0-2.592-0.936-2.592-2.303
			c0-0.182,0.036-0.613,0.108-0.793l7.019-20.48c0.468-1.404,1.188-2.448,2.915-2.448c1.729,0,2.448,1.008,2.952,2.448l7.019,20.48
			c0.072,0.18,0.109,0.611,0.109,0.793c0,1.367-1.117,2.303-2.592,2.303c-0.937,0-2.088-0.684-2.448-1.691l-1.26-3.635h-7.667
			L125.742,195.674z M131.464,181.779c-0.324-1.044-0.504-2.412-0.648-3.527c-0.144,1.115-0.323,2.483-0.647,3.527l-1.907,6.156
			h5.039L131.464,181.779z"/>
		<path fill="#FFFFFF" d="M147.737,187.898c0,3.096,1.079,5.039,4.319,5.039c1.152,0,2.088-0.287,2.988-0.863l0.359-0.217
			c0.468-0.287,0.72-0.539,1.548-0.539c1.368,0,2.376,1.008,2.376,2.16c0,2.088-3.636,3.852-7.451,3.852
			c-6.299,0-9.18-3.744-9.18-9.432v-7.127c0-5.688,2.881-9.431,9.18-9.431c3.815,0,7.451,1.764,7.451,3.852
			c0,1.151-1.008,2.159-2.376,2.159c-0.828,0-1.08-0.252-1.548-0.539l-0.359-0.217c-0.9-0.576-1.836-0.863-2.988-0.863
			c-3.24,0-4.319,1.943-4.319,5.039V187.898z"/>
		<path fill="#FFFFFF" d="M171.423,183.291l7.883,10.439c0.36,0.467,0.396,0.863,0.396,1.223c0,1.045-0.9,2.412-2.447,2.412
			c-0.828,0-1.549-0.324-2.088-1.043l-6.983-9.359l-0.647,0.721v7.342c0,1.26-1.152,2.34-2.52,2.34c-1.404,0-2.521-1.08-2.521-2.34
			v-21.381c0-1.225,1.116-2.304,2.521-2.304c1.367,0,2.52,1.079,2.52,2.304v6.839l7.127-8.099c0.432-0.54,1.26-1.044,2.051-1.044
			c1.08,0,2.484,1.044,2.484,2.304c0,0.54-0.036,0.9-0.611,1.548L171.423,183.291z"/>
		<path fill="#FFFFFF" d="M192.195,187.25c-0.756-0.322-1.655-0.646-2.627-0.971c-3.527-1.08-7.344-2.268-7.344-7.487
			c0-4.644,3.24-7.451,8.352-7.451c2.123,0,7.234,0.54,7.234,3.239c0,1.188-0.936,2.268-2.52,2.268
			c-0.647,0-1.151-0.216-1.764-0.396c-0.684-0.252-1.476-0.54-2.735-0.54c-1.764,0-3.419,0.611-3.419,2.736
			c0,1.583,0.899,2.123,1.512,2.411c0.936,0.468,1.799,0.756,2.592,0.972c3.527,1.115,7.379,2.34,7.379,7.451
			c0,5.004-3.816,7.883-8.963,7.883c-2.664,0-7.703-0.936-7.703-3.455c0-1.152,1.043-2.268,2.375-2.268
			c0.541,0,1.116,0.18,1.801,0.432c0.863,0.287,2.016,0.721,3.562,0.721c2.484,0,3.744-1.117,3.744-3.096
			C193.671,188.078,192.843,187.539,192.195,187.25z"/>
	</g>
	<g>
		<rect y="210.885" fill-rule="evenodd" clip-rule="evenodd" fill="none" width="205.618" height="24.725"/>
		<path fill="#FFFFFF" d="M9.373,230.736c0,0.504-0.392,0.924-0.896,0.924c-0.532,0-0.952-0.42-0.952-0.924v-17.948
			c0-0.588,0.476-1.147,1.148-1.147h7.756c0.504,0,0.896,0.42,0.896,0.951c0,0.477-0.392,0.841-0.896,0.841H9.373v7.14h6.496
			c0.476,0,0.896,0.392,0.896,0.896c0,0.505-0.392,0.896-0.896,0.896H9.373V230.736z"/>
		<path fill="#FFFFFF" d="M29.672,230.988c-0.168,0.336-0.588,0.672-0.896,0.672c-0.532,0-0.98-0.364-0.98-0.924
			c0-0.084,0.028-0.28,0.056-0.364l5.572-17.64c0.224-0.784,0.56-1.372,1.288-1.372c0.7,0,1.064,0.616,1.316,1.372l5.572,17.64
			c0,0.056,0.028,0.252,0.028,0.364c0,0.56-0.42,0.924-0.98,0.924c-0.336,0-0.784-0.28-0.896-0.672l-1.288-4.145h-7.532
			L29.672,230.988z M31.464,225.024h6.468l-3.22-10.612L31.464,225.024z"/>
		<path fill="#FFFFFF" d="M63.385,231.38h-8.064c-0.588,0-1.092-0.447-1.092-1.063v-18.032c0-0.476,0.42-0.924,0.952-0.924
			c0.504,0,0.896,0.448,0.896,0.924v17.332h7.308c0.448,0,0.868,0.392,0.868,0.868C64.252,230.988,63.86,231.38,63.385,231.38z"/>
		<path fill="#FFFFFF" d="M85.729,231.38h-8.064c-0.588,0-1.092-0.447-1.092-1.063v-18.032c0-0.476,0.42-0.924,0.952-0.924
			c0.504,0,0.896,0.448,0.896,0.924v17.332h7.308c0.448,0,0.868,0.392,0.868,0.868C86.596,230.988,86.204,231.38,85.729,231.38z"/>
		<path fill="#FFFFFF" d="M126.692,231.38h-9.408c-0.56,0-0.979-0.42-0.979-0.979c0-0.309,0.027-0.7,0.168-1.036
			c1.008-2.352,3.191-4.564,5.012-6.328c0.896-0.868,1.82-1.736,2.576-2.604c0.84-0.98,1.596-2.212,1.596-3.78
			c0-2.24-1.232-3.92-3.724-3.92c-1.064,0-2.044,0.224-2.828,0.56c-0.196,0.084-0.532,0.28-0.756,0.448
			c-0.28,0.168-0.616,0.336-0.868,0.336c-0.448,0-0.868-0.336-0.868-0.84c0-0.336,0.252-0.645,0.644-0.924
			c1.4-0.812,2.969-1.232,4.704-1.232c3.473,0,5.517,2.324,5.517,5.265c0,2.296-0.84,3.836-2.017,5.123
			c-0.868,1.036-1.651,1.765-2.352,2.437c-1.792,1.68-3.528,3.444-4.62,5.74h8.204c0.504,0,0.896,0.392,0.896,0.867
			C127.587,231.017,127.196,231.38,126.692,231.38z"/>
		<path fill="#FFFFFF" d="M151.303,217.408v8.54c0,3.192-1.96,5.712-5.516,5.712c-3.584,0-5.572-2.52-5.572-5.712v-8.54
			c0-3.472,1.708-6.328,5.572-6.328C149.624,211.08,151.303,213.937,151.303,217.408z M142.064,217.185v8.764
			c0,2.408,1.315,4.032,3.724,4.032c2.38,0,3.668-1.624,3.668-4.032v-8.764c0-2.604-1.036-4.452-3.668-4.452
			C143.127,212.732,142.064,214.58,142.064,217.185z"/>
		<path fill="#FFFFFF" d="M170.399,213.74l-3.836,2.436c-0.363,0.28-0.812,0.532-1.147,0.532c-0.393,0-0.812-0.336-0.812-0.756
			c0-0.336,0.168-0.616,0.448-0.812l5.628-3.612c0.196-0.112,0.364-0.168,0.561-0.168c0.588,0,1.008,0.448,1.008,1.036v18.312
			c0,0.504-0.393,0.924-0.924,0.924c-0.504,0-0.925-0.42-0.925-0.924V213.74z"/>
		<path fill="#FFFFFF" d="M193.276,231.632c-1.147,0-5.348-0.252-5.348-1.876c0-0.476,0.364-0.896,0.84-0.896
			c0.112,0,0.28,0.056,0.504,0.168V229c0.784,0.504,1.765,1.008,3.332,1.008c3.36,0,4.368-2.352,4.368-4.731
			c0-2.996-1.652-4.424-3.78-4.424c-0.868,0-1.567,0.252-2.212,0.615l-0.588,0.393c-0.252,0.196-0.504,0.364-0.84,0.364
			c-0.532,0-0.98-0.42-0.952-1.009l0.28-8.539c0.027-0.7,0.588-1.064,1.12-1.064h6.888c0.532,0,1.092,0.224,1.092,0.896
			c0,0.589-0.56,0.812-1.092,0.812h-6.384l-0.225,6.776c1.036-0.589,2.017-0.841,2.969-0.841c3.248,0,5.571,2.185,5.571,5.908
			C198.82,228.272,197.196,231.632,193.276,231.632z"/>
	</g>
	<g>
		<g>
			<path fill="#FFFFFF" d="M131.304,84.177c-0.16-0.008-0.323-0.017-0.49-0.025l-0.251-0.014c-0.103-0.007-0.295,0.016-0.42,0.08
				c-0.542,0.286-0.671,0.713-0.84,1.077c-0.287,0.756-0.431,1.543-0.571,2.374c-0.273,1.654-0.433,3.492-0.757,5.41
				c-0.081,0.456-0.177,0.915-0.302,1.346c-0.067-0.466-0.114-0.96-0.147-1.471c-0.072-1.117-0.087-2.292-0.125-3.502
				c-0.043-1.215-0.088-2.465-0.134-3.748c-0.06-2.574-0.085-5.286-0.177-8.135c-0.06-1.435-0.092-2.865-0.315-4.443
				c-0.031-0.201-0.069-0.408-0.126-0.636c-0.028-0.113-0.065-0.238-0.119-0.379c-0.102-0.174-0.029-0.255-0.474-0.675
				c-0.562-0.411-1.103-0.222-1.366-0.062c-0.285,0.178-0.392,0.335-0.496,0.471c-0.188,0.271-0.281,0.487-0.372,0.7
				c-0.327,0.831-0.49,1.58-0.665,2.352c-0.329,1.531-0.58,3.069-0.853,4.617c-0.136,0.772-0.273,1.548-0.432,2.311
				c-0.078,0.381-0.163,0.759-0.258,1.12c-0.05,0.197-0.118,0.416-0.181,0.587l-0.39-0.005l-1.23-0.022
				c-0.849-0.012-1.719-0.01-2.534,0.03l-0.078,0.003c0.021-0.001-0.084-0.003-0.255,0.032c-0.275,0.059-0.461,0.197-0.58,0.301
				c-0.237,0.221-0.33,0.4-0.406,0.543c-0.15,0.297-0.222,0.534-0.292,0.769c-0.132,0.465-0.216,0.9-0.293,1.333
				c-0.151,0.865-0.258,1.716-0.363,2.568c-0.207,1.703-0.38,3.412-0.625,5.101c-0.073,0.497-0.158,0.99-0.252,1.475
				c-0.01-0.113-0.021-0.226-0.029-0.336c-0.066-0.865-0.106-1.749-0.134-2.637c-0.057-1.779-0.07-3.582-0.074-5.397
				c0.009-3.645,0.017-7.333,0.026-11.051c-0.007-0.934-0.019-1.872-0.051-2.82c-0.017-0.475-0.038-0.951-0.076-1.44
				c-0.019-0.245-0.042-0.493-0.077-0.754c-0.056-0.288-0.037-0.478-0.256-0.994c-0.038-0.074-0.086-0.167-0.202-0.299
				c-0.037-0.118-0.643-0.441-0.819-0.368c-0.405,0.006-0.688,0.208-0.812,0.321c-0.274,0.259-0.338,0.423-0.431,0.583
				c-0.15,0.303-0.235,0.555-0.316,0.806c-0.156,0.498-0.269,0.97-0.377,1.442c-0.211,0.942-0.387,1.871-0.563,2.797
				c-0.351,1.849-0.68,3.698-1.125,5.472c-0.223,0.865-0.486,1.791-0.832,2.406c-0.03,0.059-0.065,0.108-0.096,0.147h-0.175
				l-1.416,0l-5.661-0.001h-0.354c-0.042-0.005-0.437,0-0.684,0.098c-0.538,0.205-0.833,0.568-1.02,0.85
				c-0.371,0.587-0.514,1.1-0.654,1.605c-0.258,1.005-0.384,1.963-0.5,2.918c-0.222,1.903-0.341,3.779-0.561,5.594
				c-0.088,0.692-0.188,1.4-0.342,2.021c-0.362-1.471-0.55-3.135-0.737-4.729c-0.197-1.815-0.356-3.636-0.513-5.448
				c-0.317-3.627-0.585-7.219-1.056-10.777c-0.122-0.891-0.258-1.779-0.443-2.676c-0.094-0.449-0.199-0.9-0.342-1.365
				c-0.173-0.475-0.257-0.922-0.784-1.558c-0.165-0.158-0.331-0.351-0.794-0.471c-0.173-0.034-0.181-0.026-0.203-0.03
				c-0.197-0.009-0.165,0.002-0.258,0.006c-0.129,0.008-0.248,0.041-0.369,0.074c-0.469,0.157-0.752,0.429-0.965,0.663
				c-0.415,0.482-0.623,0.932-0.824,1.373c-0.378,0.879-0.626,1.73-0.858,2.574c-0.454,1.686-0.801,3.339-1.186,4.942
				c-0.192,0.8-0.39,1.588-0.618,2.339c-0.204,0.672-0.463,1.377-0.739,1.81c-0.04-0.067-0.078-0.141-0.107-0.222
				c-0.25-0.589-0.419-1.347-0.562-2.085c-0.284-1.498-0.469-3.039-0.715-4.568c-0.125-0.767-0.259-1.533-0.453-2.313
				c-0.098-0.39-0.213-0.785-0.374-1.195c-0.183-0.409-0.34-0.849-0.871-1.327c-0.138-0.115-0.306-0.229-0.515-0.308
				c-0.081-0.039-0.267-0.084-0.4-0.102l-0.082-0.007c0.039,0.002-0.111-0.012-0.206-0.002c-0.342,0.018-0.645,0.178-0.803,0.311
				c-0.195,0.148-0.287,0.277-0.383,0.402c-0.338,0.491-0.457,0.876-0.592,1.266c-0.245,0.768-0.395,1.492-0.532,2.21
				c-0.52,2.86-0.765,5.563-1.087,8.13c-0.303,2.564-0.41,5.009-0.67,7.268c-0.126,1.125-0.265,2.222-0.494,3.202
				c-0.057,0.244-0.125,0.477-0.199,0.679c-0.025,0.069-0.052,0.123-0.078,0.177c-0.081-0.093-0.168-0.221-0.244-0.369
				c-0.384-0.782-0.607-1.725-0.812-2.59c-0.199-0.878-0.361-1.731-0.518-2.542c-0.325-1.622-0.559-3.088-1.051-4.341
				c-0.14-0.308-0.265-0.623-0.591-0.871c-0.042-0.03-0.09-0.053-0.144-0.076c-0.063-0.022-0.141-0.039-0.165-0.036
				c-0.117-0.008-0.157,0.003-0.238,0.004c-0.142,0.006-0.281,0.013-0.417,0.019c-0.544,0.024-1.038,0.046-1.48,0.065
				c-1.77,0.079-2.713,0.12-2.713,0.12s0.944,0.042,2.713,0.12c0.442,0.02,0.937,0.042,1.48,0.065
				c0.136,0.006,0.275,0.012,0.417,0.019c0.175,0.008,0.231,0.003,0.286,0.062c0.146,0.125,0.269,0.41,0.358,0.692
				c0.349,1.178,0.503,2.655,0.704,4.29c0.099,0.82,0.201,1.688,0.34,2.604c0.155,0.919,0.288,1.871,0.704,2.917
				c0.118,0.263,0.246,0.538,0.503,0.823c0.127,0.139,0.301,0.289,0.547,0.385c0.252,0.082,0.496,0.155,0.895-0.024
				c0.355-0.203,0.434-0.364,0.549-0.521c0.106-0.158,0.176-0.302,0.242-0.444c0.128-0.285,0.227-0.56,0.311-0.834
				c0.336-1.095,0.548-2.203,0.759-3.352c0.394-2.295,0.784-4.723,1.038-7.29c0.25-2.561,0.533-5.265,1.02-7.98
				c0.126-0.672,0.272-1.351,0.467-1.959c0.019-0.061,0.041-0.121,0.062-0.181c0.01,0.023,0.021,0.045,0.03,0.069
				c0.11,0.282,0.208,0.604,0.292,0.942c0.169,0.676,0.298,1.402,0.417,2.142c0.24,1.484,0.424,3.027,0.726,4.628
				c0.162,0.805,0.322,1.613,0.691,2.502c0.223,0.429,0.387,0.971,1.197,1.436c1.111,0.535,1.992-0.268,2.271-0.685
				c0.638-0.917,0.854-1.721,1.128-2.55c0.249-0.822,0.454-1.639,0.65-2.458c0.392-1.634,0.738-3.279,1.171-4.884
				c0.218-0.797,0.457-1.594,0.76-2.296c0.101-0.231,0.216-0.453,0.328-0.629c0.047,0.117,0.092,0.24,0.126,0.361
				c0.114,0.369,0.209,0.772,0.295,1.181c0.17,0.821,0.302,1.676,0.419,2.538c0.458,3.46,0.728,7.049,1.045,10.679
				c0.157,1.816,0.317,3.647,0.518,5.494c0.227,1.86,0.383,3.676,0.951,5.664c0.084,0.256,0.175,0.517,0.337,0.821
				c0.09,0.156,0.182,0.322,0.399,0.53c0.106,0.1,0.262,0.218,0.475,0.301c0.116,0.041,0.235,0.071,0.368,0.08
				c0.36,0,0.149-0.004,0.252-0.007c0.75-0.102,1.086-0.567,1.281-0.849c0.201-0.312,0.309-0.587,0.403-0.853
				c0.346-1.05,0.457-1.993,0.585-2.952c0.229-1.9,0.347-3.772,0.562-5.605c0.109-0.91,0.235-1.823,0.447-2.643
				c0.103-0.401,0.248-0.8,0.387-1.009c0.019-0.032,0.027-0.036,0.04-0.051c0.097-0.001,0.248-0.006,0.35-0.001l5.661,0.001l1.416,0
				h0.354c0.007,0.002,0.254-0.015,0.191-0.012c-0.007,0.003,0.142-0.019,0.25-0.051c0.126-0.036,0.208-0.075,0.264-0.105
				c0.065-0.034,0.138-0.073,0.186-0.109c0.431-0.311,0.593-0.603,0.755-0.865c0.566-1.043,0.781-1.966,1.041-2.918
				c0.472-1.885,0.801-3.749,1.152-5.594c0.002-0.01,0.004-0.02,0.006-0.03c0.001,0.133,0.006,0.265,0.007,0.397
				c-0.009,3.714-0.017,7.399-0.026,11.04c0.004,1.827,0.018,3.645,0.075,5.458c0.029,0.908,0.069,1.814,0.139,2.728
				c0.09,0.933,0.124,1.788,0.456,2.881c0.053,0.147,0.111,0.303,0.237,0.507c0.076,0.11,0.146,0.222,0.325,0.369
				c0.19,0.137,0.422,0.302,0.891,0.27l0.095-0.012c0.123-0.021,0.247-0.058,0.362-0.107c0.157-0.075,0.286-0.162,0.379-0.246
				c0.197-0.172,0.311-0.333,0.402-0.478c0.341-0.574,0.459-1.034,0.593-1.503c0.242-0.924,0.383-1.807,0.514-2.685
				c0.254-1.752,0.428-3.47,0.632-5.149c0.102-0.837,0.208-1.668,0.347-2.463c0.069-0.395,0.148-0.786,0.245-1.126
				c0.021-0.074,0.045-0.146,0.067-0.211c0.731-0.027,1.429-0.03,2.127-0.02l1.227,0.021l0.623,0.008l0.155,0.002l0.078,0.001
				c-0.118,0.013,0.248-0.015,0.237-0.019c-0.064,0.021,0.333-0.072,0.45-0.174c0.093-0.063,0.164-0.125,0.228-0.186
				c0.104-0.108,0.173-0.205,0.225-0.286c0.347-0.606,0.409-0.981,0.541-1.417c0.109-0.418,0.199-0.824,0.283-1.226
				c0.166-0.804,0.306-1.592,0.442-2.372c0.242-1.376,0.472-2.72,0.737-4.02c0.031,0.602,0.057,1.208,0.08,1.798
				c0.091,2.811,0.117,5.526,0.176,8.112c0.029,1.293,0.037,2.557,0.09,3.788c0.065,1.231,0.179,2.428,0.331,3.601
				c0.078,0.587,0.169,1.168,0.302,1.759c0.072,0.299,0.148,0.596,0.287,0.934c0.072,0.167,0.151,0.354,0.358,0.596
				c0.101,0.113,0.278,0.277,0.561,0.356c0.074,0.019,0.15,0.031,0.226,0.037c0.087,0.008,0.203-0.008,0.171-0.005l0.05-0.006
				c0.046-0.007,0.113-0.021,0.168-0.036c0.418-0.127,0.59-0.334,0.742-0.514c0.141-0.182,0.229-0.352,0.298-0.51
				c0.138-0.317,0.212-0.604,0.278-0.883c0.125-0.557,0.191-1.08,0.247-1.59c0.202-2.03,0.234-3.85,0.392-5.472
				c0.079-0.804,0.175-1.572,0.37-2.208c0.089-0.305,0.258-0.602,0.349-0.638c0.029-0.015,0.01-0.015,0.077-0.022l0.251-0.013
				c0.167-0.009,0.33-0.018,0.49-0.026c1.283-0.075,2.374-0.138,3.259-0.189c1.771-0.11,2.714-0.168,2.714-0.168
				s-0.943-0.059-2.714-0.169C133.678,84.316,132.587,84.252,131.304,84.177z M108.056,83.534c-0.014,0.001-0.013,0.001-0.019,0.001
				h-0.013C108.068,83.53,108.105,83.531,108.056,83.534z M193.439,87.51c-0.01-3.97-1.967-5.983-5.855-5.999
				c-8.232-0.033-16.467-0.031-24.701-0.002c-3.912,0.016-5.918,2.04-5.92,5.957c-0.008,20.182-0.002,40.363,0.018,60.545
				c0.004,4.281,1.932,6.148,6.311,6.156c7.932,0.016,15.863,0.016,23.795,0c4.518-0.008,6.354-1.859,6.357-6.412
				c0.012-9.941,0.004-19.881,0.004-29.823C193.447,107.792,193.462,97.651,193.439,87.51z M48.182,64.697
				c-3.903-0.175-7.83-0.306-11.725-0.064c-4.132,0.256-6.611,2.494-7.543,6.56c-0.418,1.826-0.501,3.786-0.367,5.659
				c0.069,0.965,0.944,1.872,1.456,2.805c0.586-0.958,1.64-1.895,1.682-2.876c0.338-7.751,1.516-8.947,9.342-8.935
				c0.502,0.001,1.003,0,1.505,0v0.04c1.907,0,3.828,0.132,5.713-0.069c0.679-0.072,1.273-0.942,1.906-1.448
				C49.497,65.785,48.862,64.728,48.182,64.697z M162.927,67.847c9.441-0.11,9.586,0.056,10.574,9.375
				c0.092,0.856,1.076,1.617,1.646,2.422c0.607-0.77,1.713-1.517,1.754-2.315c0.389-7.98-1.91-13.241-11.143-12.871
				c-0.9,0.036-1.803,0.005-2.705,0.005c0,0.049-0.002,0.097-0.004,0.146c-1.701,0-3.43-0.181-5.096,0.069
				c-0.965,0.146-1.828,0.984-2.738,1.511c0.867,0.569,1.68,1.488,2.611,1.631C159.488,68.077,161.224,67.867,162.927,67.847z
				 M152.164,54.413c-3.064-6.09-6.615-11.936-9.986-17.872c-1.533-2.698-3.881-3.945-6.967-3.92
				c-0.652,0.005-1.311-0.167-2.094-0.276c0-3.396-0.281-6.636,0.057-9.809c0.742-6.916-1.102-13.014-4.783-18.801
				c-1.551-2.441-3.201-3.77-6.246-3.733c-11.158,0.135-22.322-0.022-33.481,0.075c-10.015,0.087-8.067-1.597-13.555,8.033
				c-1.985,3.484-2.821,6.919-2.643,10.848c0.199,4.404,0.045,8.823,0.045,13.812c-5.978-1.241-8.529,2.305-10.775,6.565
				c-2.435,4.617-5.204,9.058-7.637,13.676c-0.756,1.435-1.237,3.193-1.256,4.811c-0.159,13.066-0.231,26.135-0.227,39.201
				c0.005,15.38,0.066,30.76,0.211,46.139c0.04,4.236,2.414,6.512,6.541,6.57c8.24,0.119,16.481,0.217,24.722,0.205
				c20.71-0.027,41.419-0.1,62.126-0.207c4.146-0.021,6.373-2.33,6.619-6.521c0.057-1.004,0.184-2.004,0.184-3.006
				c0.01-26.344,0.027-52.686-0.025-79.029C152.988,58.899,153.126,56.326,152.164,54.413z M86.315,3.346h33.14
				c5.324,0,5.379,0.04,7.363,5.6H79.084C80.962,3.384,81.013,3.346,86.315,3.346z M143.641,103.715c0,3.309-2.691,6-6,6H67.976
				c-3.309,0-6-2.691-6-6V64.882c0-3.309,2.691-6,6-6h69.666c3.309,0,6,2.691,6,6V103.715z M59.363,50.5
				c2.72-4.579,5.164-9.106,8.077-13.308c0.742-1.071,2.976-1.107,5.072-1.799c0,2.041-0.041,3.415,0.008,4.786
				c0.114,3.208,2.106,5.363,5.27,5.372c16.684,0.048,33.37,0.049,50.053,0c3.158-0.009,5.148-2.171,5.264-5.379
				c0.047-1.292,0.008-2.586,0.008-4.059c2.789-0.463,4.865,0.121,6.131,2.274c2.281,3.881,4.42,7.846,6.809,12.113H59.363z
				 M42.513,81.506c-8.033-0.021-16.065-0.019-24.098-0.001c-4.316,0.01-6.244,1.95-6.246,6.234
				c-0.006,10.041-0.002,20.082-0.002,30.123h0.012c0,9.939-0.007,19.881,0.003,29.821c0.005,4.703,1.815,6.48,6.587,6.486
				c7.933,0.008,15.865,0.02,23.797-0.004c4.137-0.012,6.076-1.943,6.079-6.084c0.015-20.182,0.016-40.364,0-60.545
				C48.642,83.434,46.676,81.518,42.513,81.506z M137.641,60.882H67.976c-2.206,0-4,1.794-4,4v38.833c0,2.206,1.794,4,4,4h69.666
				c2.206,0,4-1.794,4-4V64.882C141.641,62.677,139.847,60.882,137.641,60.882z M139.837,103.288c0,1.657-1.343,3-3,3H68.78
				c-1.657,0-3-1.343-3-3V65.784c0-1.657,1.343-3,3-3h68.058c1.657,0,3,1.343,3,3V103.288z"/>
		</g>
	</g>
	<g>
	</g>
	<g>
	</g>
	<g>
	</g>
	<g>
	</g>
	<g>
	</g>
	<g>
	</g>
</g>
</svg>
