<?xml version="1.0" encoding="utf-8"?>
<!-- Generator: Adobe Illustrator 16.0.0, SVG Export Plug-In . SVG Version: 6.00 Build 0)  -->
<!DOCTYPE svg PUBLIC "-//W3C//DTD SVG 1.1//EN" "http://www.w3.org/Graphics/SVG/1.1/DTD/svg11.dtd">
<svg version="1.1" id="Layer_1" xmlns="http://www.w3.org/2000/svg" xmlns:xlink="http://www.w3.org/1999/xlink" x="0px" y="0px"
	 width="313.754px" height="351.148px" viewBox="0 0 313.754 351.148" enable-background="new 0 0 313.754 351.148"
	 xml:space="preserve">
<g>
	<path fill-rule="evenodd" clip-rule="evenodd" d="M126.579,32.769c0-4.989,0.153-9.408-0.045-13.812
		c-0.178-3.929,0.658-7.363,2.643-10.848c5.488-9.629,3.54-7.945,13.555-8.033c11.16-0.097,22.323,0.06,33.481-0.075
		c3.045-0.037,4.696,1.292,6.247,3.733c3.681,5.788,5.525,11.885,4.783,18.801c-0.339,3.173-0.057,6.413-0.057,9.809
		c0.783,0.109,1.44,0.281,2.094,0.276c3.085-0.025,5.434,1.222,6.966,3.92c3.371,5.936,6.922,11.782,9.987,17.872
		c0.962,1.913,0.823,4.487,0.828,6.759c0.052,26.343,0.035,52.686,0.024,79.028c0,1.002-0.126,2.003-0.184,3.006
		c-0.246,4.191-2.472,6.5-6.618,6.521c-20.708,0.108-41.417,0.18-62.126,0.208c-8.24,0.011-16.481-0.086-24.722-0.205
		c-4.126-0.06-6.501-2.334-6.541-6.571c-0.146-15.379-0.206-30.759-0.211-46.139c-0.005-13.067,0.067-26.135,0.227-39.202
		c0.019-1.618,0.5-3.376,1.256-4.811c2.433-4.618,5.203-9.059,7.637-13.676C118.049,35.074,120.601,31.527,126.579,32.769z
		 M186.089,102.52c0.348,0.13,0.696,0.261,1.044,0.391c-0.438-1.643-0.523-3.509-1.388-4.886c-2.241-3.569-2.019-5.231,1.44-7.812
		c0.87-0.648,1.429-1.716,2.609-3.188c-10.145-0.491-7.012-6.46-5.461-11.618c-9.018,2.156-9.385,1.942-10.853-6.606
		c-1.22,0.809-2.446,1.234-3.058,2.097c-2.104,2.97-6.284,2.989-8.397-0.024c-0.603-0.859-1.849-1.267-3.16-2.113
		c-0.302,1.807-0.388,2.691-0.603,3.543c-1.122,4.477-1.772,4.854-6.459,3.847c-0.194-0.042-0.405-0.136-0.585-0.097
		c-0.843,0.178-1.966,0.145-2.422,0.675c-0.359,0.418-0.149,1.708,0.249,2.328c1.361,2.118,1.501,4.446-0.154,6.042
		c-1.301,1.254-3.529,1.549-6.017,2.536c0.995,1.033,1.7,2.007,2.625,2.68c3.22,2.343,3.648,4.79,0.972,7.846
		c-1.42,1.622-1.707,2.992-0.671,4.033c2.389,0.259,5.211-0.175,5.812,0.783c1.3,2.072,1.461,4.859,2.225,7.899
		c0.825-0.343,1.939-0.718,2.972-1.252c3.272-1.694,6.105-0.729,7.577,2.535c0.366,0.813,1.084,1.468,1.64,2.196
		c0.688-0.729,1.555-1.355,2.028-2.204c1.977-3.534,4.382-4.243,7.93-2.327c0.77,0.416,2.347,0.829,2.529,0.559
		c0.541-0.809,1.042-2.156,0.713-2.936c-0.863-2.045-0.522-3.721,1.393-4.415C182.287,102.43,184.254,102.659,186.089,102.52z
		 M187.183,36.112c0,1.473,0.039,2.767-0.008,4.059c-0.114,3.208-2.104,5.37-5.263,5.379c-16.684,0.049-33.369,0.048-50.053,0
		c-3.164-0.009-5.156-2.163-5.27-5.372c-0.049-1.371-0.008-2.745-0.008-4.786c-2.097,0.692-4.331,0.728-5.072,1.799
		c-2.913,4.201-5.357,8.729-8.077,13.308c29.2,0,57.755,0,86.691,0c-2.388-4.267-4.526-8.232-6.809-12.113
		C192.048,36.233,189.973,35.649,187.183,36.112z M137.477,99.994c-0.748,1.515-1.232,2.307-1.545,3.16
		c-1.652,4.514-2.228,4.861-6.825,4.269c-0.845-0.109-1.735,0.137-2.604,0.219c0.268,0.951,0.352,2.009,0.837,2.832
		c1.665,2.82,1.236,5.371-1.244,7.493c-0.772,0.661-1.231,1.688-1.833,2.548c1.039,0.377,2.064,1.032,3.119,1.083
		c4.007,0.19,4.943,1.369,4.36,5.178c-0.137,0.894,0.688,2.316,1.495,2.829c0.478,0.303,1.846-0.606,2.703-1.145
		c0.932-0.585,1.724-1.391,2.598-2.071c2.483-1.935,3.446,1.478,5.382,1.554c0.773,0.03,1.539,0.302,2.307,0.464
		c0.019-0.715,0.046-1.429,0.055-2.144c0.023-2.129-0.841-4.584,1.604-5.935c0.971-0.537,2.318-0.349,3.424-0.707
		c0.757-0.245,1.395-0.862,2.085-1.312c-0.555-0.601-1.003-1.388-1.68-1.774c-3.967-2.26-4.63-4.227-2.798-8.271
		c0.361-0.796,0.313-1.778,0.453-2.674c-0.882,0.171-1.832,0.191-2.635,0.542c-3.533,1.542-5.891,0.68-7.399-2.762
		C138.944,102.477,138.397,101.652,137.477,99.994z M133.153,8.946c15.922,0,31.799,0,47.733,0c-1.984-5.56-2.038-5.6-7.362-5.6
		c-11.047,0-22.094,0-33.14,0C135.082,3.346,135.031,3.385,133.153,8.946z M128.705,74.045c0.321,2.189,0.014,4.56,0.928,5.208
		c1.139,0.808,3.286,0.194,5.083,0.194c-0.318-2.071-0.05-4.095-0.904-4.854C132.915,73.796,130.94,74.213,128.705,74.045z"/>
	<path fill-rule="evenodd" clip-rule="evenodd" d="M66.236,117.863c0-10.041-0.004-20.082,0.002-30.123
		c0.002-4.284,1.93-6.224,6.246-6.234c8.033-0.018,16.065-0.02,24.098,0c4.163,0.012,6.128,1.928,6.132,6.031
		c0.017,20.182,0.016,40.363,0,60.545c-0.003,4.14-1.942,6.072-6.079,6.083c-7.933,0.023-15.864,0.013-23.797,0.005
		c-4.772-0.006-6.582-1.784-6.587-6.486c-0.01-9.94-0.003-19.882-0.003-29.821C66.244,117.863,66.24,117.863,66.236,117.863z"/>
	<path fill-rule="evenodd" clip-rule="evenodd" d="M247.515,117.934c0,9.94,0.009,19.881-0.003,29.821
		c-0.004,4.553-1.84,6.405-6.357,6.414c-7.932,0.015-15.864,0.015-23.796,0c-4.378-0.009-6.307-1.875-6.31-6.158
		c-0.02-20.182-0.025-40.363-0.018-60.545c0.001-3.917,2.007-5.941,5.919-5.956c8.234-0.03,16.469-0.032,24.701,0.002
		c3.89,0.015,5.847,2.029,5.856,5.999C247.532,97.651,247.515,107.792,247.515,117.934z"/>
	<path fill-rule="evenodd" clip-rule="evenodd" d="M217.123,64.463c0.902,0,1.806,0.031,2.706-0.005
		c9.231-0.37,11.531,4.891,11.142,12.871c-0.04,0.799-1.146,1.545-1.754,2.316c-0.57-0.806-1.555-1.566-1.646-2.422
		c-0.989-9.32-1.133-9.485-10.574-9.375c-1.704,0.02-3.439,0.229-5.101-0.027c-0.932-0.143-1.743-1.062-2.61-1.631
		c0.91-0.526,1.772-1.365,2.738-1.511c1.665-0.25,3.395-0.069,5.096-0.069C217.122,64.561,217.123,64.512,217.123,64.463z"/>
	<path fill-rule="evenodd" clip-rule="evenodd" d="M96.602,67.847c-0.502,0-1.003,0-1.505,0c-7.827-0.012-9.004,1.183-9.342,8.935
		c-0.042,0.982-1.096,1.919-1.682,2.876c-0.511-0.933-1.387-1.84-1.456-2.805c-0.134-1.873-0.051-3.833,0.367-5.659
		c0.932-4.066,3.411-6.304,7.543-6.56c3.895-0.241,7.822-0.111,11.725,0.064c0.68,0.03,1.314,1.088,1.97,1.671
		c-0.633,0.505-1.228,1.375-1.906,1.448c-1.886,0.201-3.806,0.069-5.713,0.069C96.602,67.874,96.602,67.86,96.602,67.847z"/>
	<path fill-rule="evenodd" clip-rule="evenodd" d="M166.146,101.357c-5.869,0-10.184-4.008-10.298-9.397
		c-0.125-5.89,4.68-10.941,10.02-10.774c5.499,0.172,10.118,3.662,10.13,8.009C176.019,98.435,173.651,101.358,166.146,101.357z"/>
	<path fill-rule="evenodd" clip-rule="evenodd" d="M138.522,121.266c-4.107,0.003-5.569-1.328-5.582-5.08
		c-0.014-4.06,1.367-5.399,5.564-5.398c4.352,0,5.532,1.15,5.519,5.371C144.01,119.763,142.395,121.263,138.522,121.266z"/>
</g>
<g>
	<path d="M91.97,172.569c4.91,0,7.267,2.553,7.463,7.365l2.357,60.396H82.64l-2.062-51.853h-1.473l-6.678,34.568
		c-0.688,4.321-3.536,6.481-8.053,6.481H53.375c-4.517,0-7.365-2.16-8.151-6.481l-6.776-34.568h-1.473l-1.67,51.853h-19.15
		l2.357-60.396c0.196-4.812,2.553-7.365,7.464-7.365H44.34c4.419,0,7.267,2.16,8.053,6.579l4.91,26.908
		c0.491,3.34,0.786,6.777,1.081,10.115h0.884c0.393-3.338,0.688-6.775,1.178-10.115l4.616-26.908
		c0.786-4.419,3.634-6.579,8.151-6.579H91.97z"/>
	<path d="M167.192,212.342c0,21.605-7.66,29.364-28.873,29.364c-22.882,0-31.131-7.759-31.131-29.364v-39.772h21.311v39.772
		c0,10.901,1.866,13.553,8.74,13.553c6.776,0,8.642-2.651,8.642-13.553v-39.772h21.311V212.342z"/>
	<path d="M173.769,172.569c8.642-0.491,17.382-0.982,28.97-0.982c23.275,0,31.623,7.366,31.623,34.863s-8.348,34.862-31.623,34.862
		c-11.293,0-20.426-0.393-28.97-0.981V172.569z M202.739,225.895c7.268,0,9.133-3.731,9.133-19.444s-1.865-19.444-9.133-19.444
		h-7.66v38.791L202.739,225.895z"/>
	<path d="M239.465,172.569c8.643-0.491,17.383-0.982,28.971-0.982c23.273,0,31.621,7.366,31.621,34.863s-8.348,34.862-31.621,34.862
		c-11.295,0-20.428-0.393-28.971-0.981V172.569z M268.436,225.895c7.268,0,9.133-3.731,9.133-19.444s-1.865-19.444-9.133-19.444
		h-7.66v38.791L268.436,225.895z"/>
	<path d="M64.914,320.803H43.604v-28.479H26.516v28.479H5.205v-67.762h21.311v24.355h17.088v-24.355h21.311V320.803z"/>
	<path d="M92.703,306.17l-3.438,14.633H67.562l17.579-62.262c0.884-3.34,3.732-5.5,7.169-5.5h19.347c3.437,0,6.285,2.16,7.169,5.5
		l17.579,62.262h-21.703l-3.438-14.633H92.703z M104.488,276.709c-0.491-2.455-0.982-5.304-1.179-7.759h-2.651
		c-0.294,2.455-0.688,5.304-1.178,7.759l-3.339,14.533h11.687L104.488,276.709z"/>
	<path d="M190.711,318.74c-6.875,2.357-13.16,3.241-23.766,3.241c-22.489,0-30.738-9.231-30.738-35.06s8.249-35.06,30.738-35.06
		c10.606,0,15.516,0.786,22.293,2.651l-1.572,15.517c-6.874-0.099-11.392-0.196-20.721-0.196c-6.678,0-8.348,3.339-8.348,17.088
		c0,13.748,1.67,17.088,8.348,17.088c9.821,0,15.615-0.099,22.194-0.785L190.711,318.74z"/>
	<path d="M216.538,292.52c0.49,2.16,0.785,4.321,0.785,6.188v22.096h-21.311v-67.762h21.311v17.088c0,2.75-0.295,5.794-0.982,8.642
		h3.732l14.141-25.729h22.883l-15.615,26.516c-1.67,3.044-4.125,5.205-5.99,5.99v0.393c1.865,0.786,5.205,3.732,6.775,6.678
		l15.812,28.186h-23.668l-14.338-28.283H216.538z"/>
	<path d="M273.592,292.028c-11-4.91-15.123-10.508-15.123-20.427c0-15.418,7.463-19.936,27.891-19.936
		c7.07,0,16.498,0.59,24.648,3.438l-1.277,13.65c-5.891-0.098-15.418-0.196-23.863-0.196c-4.91,0-6.285,0.491-6.285,2.554
		c0,1.865,1.277,2.848,5.893,4.615l12.275,5.106c11.295,4.91,15.223,10.704,15.223,20.623c0,15.222-6.58,20.722-27.695,20.722
		c-4.615,0-14.436-0.295-26.221-3.339l1.277-14.928c11.686,0.295,21.016,0.491,24.65,0.491c5.4,0,6.678-0.491,6.678-2.357
		c0-1.865-0.982-2.749-4.615-4.124L273.592,292.028z"/>
</g>
<g>
</g>
<g>
</g>
<g>
</g>
<g>
</g>
<g>
</g>
<g>
</g>
<g>
</g>
<g>
</g>
<g>
</g>
<g>
</g>
<g>
</g>
<g>
</g>
<g>
</g>
<g>
</g>
<g>
</g>
</svg>
