<?xml version="1.0" encoding="utf-8"?>
<!-- Generator: Adobe Illustrator 16.0.0, SVG Export Plug-In . SVG Version: 6.00 Build 0)  -->
<!DOCTYPE svg PUBLIC "-//W3C//DTD SVG 1.1//EN" "http://www.w3.org/Graphics/SVG/1.1/DTD/svg11.dtd">
<svg version="1.1" id="Layer_1" xmlns="http://www.w3.org/2000/svg" xmlns:xlink="http://www.w3.org/1999/xlink" x="0px" y="0px"
	 width="2000px" height="2000px" viewBox="0 0 2000 2000" enable-background="new 0 0 2000 2000" xml:space="preserve">
<g id="Layer_1_1_">
	<g enable-background="new    ">
		<path fill="#FFFFFF" d="M476.065,1307.149c0,4.514-1.777,8.363-5.331,11.579c-3.551,3.202-7.76,4.81-12.604,4.81
			c-5.028,0-9.361-1.607-13-4.81c-3.639-3.216-5.458-7.065-5.458-11.579v-89.412l-29.634,58.217c-1.735,3.455-4.115,5.98-7.15,7.531
			c-3.032,1.565-6.368,2.341-10.006,2.341c-3.466,0-6.716-0.775-9.749-2.341c-3.032-1.551-5.416-4.062-7.146-7.531l-29.634-58.217
			v89.412c0,4.514-1.865,8.363-5.592,11.579c-3.73,3.202-8.109,4.81-13.126,4.81c-5.024,0-9.227-1.607-12.608-4.81
			c-3.378-3.216-5.066-7.065-5.066-11.579v-154.398c0-5.021,1.773-9.154,5.327-12.355c3.554-3.201,8.014-4.809,13.387-4.809
			c8.667,0,14.731,3.385,18.197,10.126l46.272,91.769l46.269-92.022c1.907-3.794,4.463-6.417,7.668-7.784
			c3.205-1.383,6.628-2.088,10.267-2.088c5.373,0,9.836,1.678,13.387,5.077c3.554,3.37,5.331,7.39,5.331,12.087V1307.149z"/>
		<path fill="#FFFFFF" d="M632.292,1284.67c-2.944,7.884-7.235,14.737-12.866,20.534c-5.634,5.811-12.478,10.309-20.538,13.524
			c-8.056,3.202-17.198,4.81-27.423,4.81c-10.397,0-19.67-1.65-27.814-4.951c-8.145-3.285-14.992-7.799-20.534-13.51
			c-5.546-5.727-9.749-12.523-12.608-20.407s-4.291-16.501-4.291-25.864v-106.055c0-5.021,1.777-9.154,5.331-12.355
			c3.55-3.201,7.926-4.809,13.126-4.809c4.844,0,9.054,1.678,12.608,5.062c3.543,3.385,5.328,7.404,5.328,12.102v106.055
			c0,9.363,2.341,16.979,7.02,22.875c4.679,5.895,11.956,8.842,21.835,8.842c9.879,0,17.114-2.947,21.705-8.842
			c4.594-5.896,6.89-13.512,6.89-22.875v-106.055c0-4.514,1.734-8.505,5.2-11.96c3.466-3.47,7.711-5.204,12.735-5.204
			c5.373,0,9.836,1.721,13.387,5.204c3.554,3.455,5.331,7.446,5.331,11.96v106.055
			C636.713,1268.169,635.239,1276.786,632.292,1284.67z"/>
		<path fill="#FFFFFF" d="M796.059,1250.752c0,9.181-1.343,18.024-4.03,26.514c-2.687,8.49-7.147,15.979-13.387,22.48
			c-6.237,6.501-14.382,11.706-24.434,15.598c-10.052,3.907-22.441,5.853-37.172,5.853H687.66c-2.771,0-5.37-0.521-7.795-1.564
			c-2.429-1.045-4.552-2.384-6.371-4.034c-1.819-1.636-3.293-3.582-4.417-5.839c-1.128-2.256-1.689-4.682-1.689-7.291v-146.079
			c0-2.595,0.561-5.021,1.689-7.276c1.125-2.258,2.598-4.203,4.417-5.867s3.942-2.99,6.371-4.048
			c2.426-1.029,5.024-1.552,7.795-1.552h29.377c14.73,0,27.12,1.861,37.172,5.585c10.052,3.716,18.196,8.759,24.434,15.076
			c6.24,6.333,10.701,13.609,13.387,21.831c2.687,8.236,4.03,16.867,4.03,25.865V1250.752z M759.659,1206.031
			c0-4.837-0.694-9.448-2.08-13.778s-3.55-8.096-6.498-11.297c-2.947-3.215-6.889-5.726-11.829-7.545
			c-4.936-1.819-10.873-2.722-17.805-2.722h-17.678v117.492h17.678c7.104,0,13.084-1.016,17.936-2.989
			c4.844-1.989,8.796-4.684,11.829-8.054c3.032-3.385,5.197-7.319,6.498-11.832c1.301-4.513,1.95-9.364,1.95-14.569V1206.031z"/>
		<path fill="#FFFFFF" d="M950.459,1250.752c0,9.181-1.343,18.024-4.026,26.514c-2.687,8.49-7.15,15.979-13.387,22.48
			c-6.241,6.501-14.385,11.706-24.437,15.598c-10.052,3.907-22.441,5.853-37.172,5.853h-29.373c-2.774,0-5.373-0.521-7.799-1.564
			c-2.426-1.045-4.548-2.384-6.368-4.034c-1.819-1.636-3.293-3.582-4.421-5.839c-1.125-2.256-1.689-4.682-1.689-7.291v-146.079
			c0-2.595,0.564-5.021,1.689-7.276c1.128-2.258,2.602-4.203,4.421-5.867c1.819-1.664,3.942-2.99,6.368-4.048
			c2.426-1.029,5.024-1.552,7.799-1.552h29.373c14.731,0,27.12,1.861,37.172,5.585c10.052,3.716,18.196,8.759,24.437,15.076
			c6.237,6.333,10.701,13.609,13.387,21.831c2.683,8.236,4.026,16.867,4.026,25.865V1250.752z M914.066,1206.031
			c0-4.837-0.691-9.448-2.077-13.778c-1.389-4.33-3.554-8.096-6.501-11.297c-2.944-3.215-6.886-5.726-11.825-7.545
			s-10.877-2.722-17.809-2.722h-17.675v117.492h17.675c7.108,0,13.084-1.016,17.939-2.989c4.844-1.989,8.793-4.684,11.826-8.054
			c3.032-3.385,5.2-7.319,6.498-11.832c1.301-4.513,1.95-9.364,1.95-14.569V1206.031z"/>
		<path fill="#FFFFFF" d="M1099.02,1318.461c-3.553,3.384-7.841,5.077-12.868,5.077c-4.852,0-9.097-1.693-12.735-5.077
			c-3.639-3.37-5.457-7.319-5.457-11.818v-60.573h-55.369v60.573c0,4.499-1.777,8.448-5.331,11.818
			c-3.554,3.384-7.841,5.077-12.869,5.077c-5.024,0-9.322-1.693-12.865-5.077c-3.554-3.37-5.331-7.319-5.331-11.818v-154.414
			c0-4.499,1.777-8.405,5.331-11.691c3.55-3.3,7.841-4.95,12.865-4.95c5.028,0,9.315,1.65,12.869,4.95
			c3.554,3.286,5.331,7.192,5.331,11.691v60.572h55.369v-60.572c0-4.499,1.818-8.405,5.457-11.691c3.639-3.3,7.884-4.95,12.735-4.95
			c4.851,0,9.097,1.65,12.735,4.95c3.652,3.286,5.472,7.192,5.472,11.691v154.414
			C1104.344,1311.142,1102.566,1315.091,1099.02,1318.461z"/>
		<path fill="#FFFFFF" d="M1162.054,1311.311c-1.375,3.821-3.794,6.812-7.277,8.97c-3.455,2.172-6.755,3.258-9.872,3.258
			c-5.021,0-9.406-1.523-13.115-4.556c-3.738-3.032-5.586-7.052-5.586-12.086c0-0.691,0.043-1.65,0.142-2.863
			c0.085-1.213,0.296-2.157,0.649-2.856l50.686-147.891c1.734-5.035,4.118-9.237,7.15-12.607c3.032-3.393,7.672-5.078,13.905-5.078
			c6.241,0,10.874,1.658,13.905,4.957c3.033,3.287,5.515,7.531,7.412,12.742l50.693,147.892c0.352,0.705,0.563,1.657,0.662,2.856
			c0.085,1.213,0.141,2.172,0.141,2.862c0,5.021-1.776,9.054-5.33,12.087c-3.555,3.031-8.018,4.555-13.391,4.555
			c-3.463,0-6.939-1.113-10.401-3.385c-3.455-2.256-5.874-5.218-7.277-8.856l-9.104-26.245h-55.368L1162.054,1311.311z
			 M1203.39,1210.981c-1.213-3.822-2.172-8.024-2.862-12.607c-0.691-4.598-1.299-8.885-1.82-12.877
			c-0.521,3.992-1.128,8.279-1.818,12.877c-0.691,4.583-1.65,8.785-2.856,12.607l-13.778,44.439h36.399L1203.39,1210.981z"/>
		<path fill="#FFFFFF" d="M1320.882,1255.167c0,5.542,0.522,10.576,1.552,15.076c1.057,4.512,2.792,8.32,5.218,11.438
			c2.426,3.116,5.612,5.542,9.618,7.276c3.991,1.735,8.913,2.609,14.822,2.609c4.16,0,7.969-0.522,11.438-1.565
			c3.455-1.059,6.84-2.596,10.141-4.682l2.58-1.553c1.734-1.043,3.286-1.959,4.683-2.735c1.382-0.775,3.54-1.171,6.487-1.171
			c5.021,0,9.139,1.566,12.354,4.683c3.188,3.116,4.81,6.755,4.81,10.915c0,3.809-1.522,7.404-4.556,10.789
			c-3.031,3.385-7.064,6.332-12.1,8.844c-5.007,2.51-10.732,4.498-17.149,5.979c-6.417,1.467-13.087,2.201-20.013,2.201
			c-11.438,0-21.316-1.608-29.637-4.81c-8.3-3.202-15.196-7.8-20.654-13.778c-5.457-5.98-9.484-13.145-12.086-21.564
			c-2.596-8.391-3.906-17.713-3.906-27.938v-51.477c0-10.211,1.311-19.532,3.906-27.938c2.588-8.406,6.629-15.598,12.086-21.578
			c5.458-5.965,12.354-10.562,20.654-13.764c8.32-3.202,18.199-4.81,29.637-4.81c6.926,0,13.604,0.747,20.013,2.214
			c6.417,1.48,12.143,3.47,17.149,5.98c5.035,2.51,9.068,5.457,12.1,8.842c3.033,3.371,4.556,6.967,4.556,10.789
			c0,4.146-1.622,7.785-4.81,10.916c-3.215,3.116-7.333,4.668-12.354,4.668c-2.947,0-5.105-0.381-6.487-1.156
			c-1.396-0.79-2.948-1.693-4.683-2.736l-2.58-1.565c-3.301-2.073-6.699-3.639-10.141-4.668c-3.455-1.044-7.277-1.565-11.438-1.565
			c-5.881,0-10.831,0.874-14.822,2.595c-4.006,1.721-7.192,4.16-9.618,7.277c-2.426,3.131-4.161,6.938-5.218,11.438
			c-1.029,4.513-1.552,9.534-1.552,15.076V1255.167z"/>
		<path fill="#FFFFFF" d="M1491.924,1221.897l56.934,75.381c1.382,1.734,2.199,3.3,2.468,4.682c0.254,1.368,0.381,2.765,0.381,4.146
			c0,1.918-0.381,3.893-1.157,5.979c-0.775,2.073-1.953,3.935-3.497,5.571c-1.565,1.656-3.44,3.046-5.585,4.16
			c-2.157,1.128-4.64,1.692-7.404,1.692c-6.232,0-11.268-2.511-15.076-7.546l-50.432-67.581l-4.682,5.19v53.055
			c0,4.499-1.777,8.448-5.303,11.818c-3.555,3.398-7.855,5.078-12.877,5.078c-5.006,0-9.308-1.68-12.848-5.078
			c-3.555-3.37-5.331-7.319-5.331-11.818V1152.2c0-4.484,1.776-8.391,5.331-11.678c3.54-3.3,7.842-4.964,12.848-4.964
			c5.021,0,9.322,1.657,12.877,4.964c3.525,3.287,5.303,7.193,5.303,11.678v49.402l51.475-58.498
			c1.58-1.904,3.695-3.639,6.389-5.205c2.68-1.551,5.501-2.341,8.448-2.341c1.918,0,3.935,0.451,6.106,1.298
			c2.172,0.874,4.118,2.087,5.854,3.666c1.734,1.552,3.158,3.328,4.301,5.303c1.114,2.003,1.678,4.119,1.678,6.375
			c0,1.918-0.211,3.652-0.648,5.219c-0.438,1.551-1.678,3.553-3.766,5.979L1491.924,1221.897z"/>
		<path fill="#FFFFFF" d="M1652.57,1268.169c0-5.895-1.17-10.055-3.512-12.48c-2.341-2.426-4.725-4.16-7.15-5.204
			c-2.764-1.228-5.754-2.384-8.969-3.512c-3.188-1.114-6.529-2.284-9.999-3.497c-6.417-1.904-12.784-4.034-19.103-6.375
			c-6.332-2.342-12.002-5.458-17.016-9.365c-5.035-3.892-9.104-8.912-12.227-15.076c-3.117-6.162-4.662-13.904-4.662-23.256
			c0-8.32,1.425-15.809,4.295-22.494c2.855-6.67,6.883-12.34,12.086-17.021c5.197-4.683,11.529-8.223,18.969-10.662
			c7.461-2.426,15.774-3.639,24.963-3.639c3.801,0,8.658,0.311,14.561,0.916c5.902,0.607,11.643,1.777,17.298,3.498
			c5.62,1.734,10.429,4.118,14.427,7.15c3.978,3.032,5.98,6.967,5.98,11.818c0,4.344-1.615,8.166-4.81,11.438
			c-3.216,3.301-7.665,4.95-13.391,4.95c-2.426,0-4.591-0.296-6.48-0.903c-1.925-0.605-3.998-1.254-6.247-1.959
			c-2.426-0.875-5.19-1.721-8.314-2.596c-3.123-0.86-6.924-1.312-11.438-1.312c-3.123,0-6.184,0.311-9.223,0.917
			c-3.033,0.605-5.677,1.678-7.926,3.244c-2.25,1.564-4.069,3.596-5.465,6.12c-1.39,2.524-2.081,5.669-2.081,9.478
			c0,5.726,1.255,9.773,3.772,12.199c2.511,2.439,4.895,4.16,7.129,5.218c3.463,1.72,6.734,3.116,9.767,4.146
			c3.032,1.051,6.022,1.989,8.97,2.863c6.402,2.073,12.784,4.287,19.103,6.629c6.332,2.341,11.995,5.457,17.029,9.35
			c5.014,3.906,9.146,8.885,12.341,14.949c3.193,6.064,4.809,13.694,4.809,22.875c0,9.012-1.657,17.064-4.943,24.173
			c-3.3,7.108-7.799,13.088-13.524,17.939c-5.712,4.851-12.503,8.532-20.386,11.042c-7.905,2.511-16.516,3.766-25.865,3.766
			c-4.873,0-10.492-0.451-16.902-1.311c-6.417-0.861-12.488-2.285-18.2-4.303c-5.712-1.974-10.563-4.583-14.562-7.799
			c-3.991-3.187-5.973-7.051-5.973-11.564c0-4.16,1.65-7.926,4.943-11.311c3.293-3.37,7.369-5.062,12.221-5.062
			c1.903,0,3.934,0.324,6.105,0.902c2.166,0.635,4.457,1.361,6.883,2.229c3.124,1.058,6.791,2.172,11.057,3.398
			c4.245,1.213,9.139,1.82,14.674,1.82c9.012,0,15.775-1.918,20.287-5.727C1650.314,1280.989,1652.57,1275.446,1652.57,1268.169z"/>
	</g>
</g>
<g id="Layer_2">
	<rect x="949.724" y="844.252" fill="#FFFFFF" width="100.555" height="39.95"/>
	<path fill="#FFFFFF" d="M1280.596,365.374c-2.582-8.24-9.21-14.681-17.531-17.072L1149.916,99.958L1000.001,541.87L850.083,99.958
		L736.85,348.514c-8.232,2.433-14.766,8.85-17.333,17.019h-91.92v507.289h230.098v180.801h51.247V676.557h-51.247v180.794H643.058
		V381.007h76.463c3.297,10.468,13.091,18.087,24.635,18.087c14.24,0,25.83-11.589,25.83-25.836c0-5.112-1.516-9.872-4.086-13.884
		l79.717-174.966l154.386,455.224l154.4-455.231l79.71,174.973c-2.524,3.977-4.005,8.669-4.005,13.711
		c0,14.255,11.593,25.837,25.851,25.837c11.536,0,21.338-7.619,24.639-18.091l76.354,0.159v476.354h-214.641V676.55h-51.258v377.058
		h51.258v-180.8h230.09V365.532L1280.596,365.374z"/>
	<path fill="#FFFFFF" d="M719.411,365.374c2.584-8.24,9.206-14.681,17.53-17.072L850.09,99.958l149.918,441.911l149.922-441.911
		l113.247,248.555c8.223,2.433,14.766,8.85,17.332,17.019h91.91v507.289h-230.091v180.801h-51.251V676.557h51.251v180.794h214.634
		V381.007h-76.467c-3.285,10.468-13.08,18.087-24.623,18.087c-14.244,0-25.838-11.589-25.838-25.836c0-5.112,1.51-9.872,4.09-13.884
		l-79.724-174.966l-154.4,455.224L845.608,184.4l-79.71,174.973c2.521,3.977,3.991,8.669,3.991,13.711
		c0,14.255-11.582,25.837-25.833,25.837c-11.547,0-21.338-7.619-24.631-18.091l-76.361,0.159v476.354h214.638V676.55h51.247v377.058
		h-51.247v-180.8H627.597V365.532L719.411,365.374z"/>
</g>
<text transform="matrix(1 0 0 1 395.98 1622.4053)" fill="#FFFFFF" font-family="'OpenSans-Light'" font-size="300">Fall 2017</text>
</svg>
