<?xml version="1.0" encoding="utf-8"?>
<!-- Generator: Adobe Illustrator 18.0.0, SVG Export Plug-In . SVG Version: 6.00 Build 0)  -->
<!DOCTYPE svg PUBLIC "-//W3C//DTD SVG 1.1//EN" "http://www.w3.org/Graphics/SVG/1.1/DTD/svg11.dtd">
<svg version="1.1" id="Layer_1" xmlns="http://www.w3.org/2000/svg" xmlns:xlink="http://www.w3.org/1999/xlink" x="0px" y="0px"
	 viewBox="0 0 313.8 351.1" enable-background="new 0 0 313.8 351.1" xml:space="preserve">
<g>
	<path fill="#FFFFFF" d="M126.6,32.8c0-5,0.2-9.4,0-13.8c-0.2-3.9,0.7-7.4,2.6-10.8c5.5-9.6,3.5-7.9,13.6-8
		C153.9,0,165.1,0.1,176.2,0c3,0,4.7,1.3,6.2,3.7c3.7,5.8,5.5,11.9,4.8,18.8c-0.3,3.2-0.1,6.4-0.1,9.8c0.8,0.1,1.4,0.3,2.1,0.3
		c3.1,0,5.4,1.2,7,3.9c3.4,5.9,6.9,11.8,10,17.9c1,1.9,0.8,4.5,0.8,6.8c0.1,26.3,0,52.7,0,79c0,1-0.1,2-0.2,3
		c-0.2,4.2-2.5,6.5-6.6,6.5c-20.7,0.1-41.4,0.2-62.1,0.2c-8.2,0-16.5-0.1-24.7-0.2c-4.1-0.1-6.5-2.3-6.5-6.6
		c-0.1-15.4-0.2-30.8-0.2-46.1c0-13.1,0.1-26.1,0.2-39.2c0-1.6,0.5-3.4,1.3-4.8c2.4-4.6,5.2-9.1,7.6-13.7
		C118,35.1,120.6,31.5,126.6,32.8z M186.1,102.5c0.3,0.1,0.7,0.3,1,0.4c-0.4-1.6-0.5-3.5-1.4-4.9c-2.2-3.6-2-5.2,1.4-7.8
		c0.9-0.6,1.4-1.7,2.6-3.2c-10.1-0.5-7-6.5-5.5-11.6c-9,2.2-9.4,1.9-10.9-6.6c-1.2,0.8-2.4,1.2-3.1,2.1c-2.1,3-6.3,3-8.4,0
		c-0.6-0.9-1.8-1.3-3.2-2.1c-0.3,1.8-0.4,2.7-0.6,3.5c-1.1,4.5-1.8,4.9-6.5,3.8c-0.2,0-0.4-0.1-0.6-0.1c-0.8,0.2-2,0.1-2.4,0.7
		c-0.4,0.4-0.1,1.7,0.2,2.3c1.4,2.1,1.5,4.4-0.2,6c-1.3,1.3-3.5,1.5-6,2.5c1,1,1.7,2,2.6,2.7c3.2,2.3,3.6,4.8,1,7.8
		c-1.4,1.6-1.7,3-0.7,4c2.4,0.3,5.2-0.2,5.8,0.8c1.3,2.1,1.5,4.9,2.2,7.9c0.8-0.3,1.9-0.7,3-1.3c3.3-1.7,6.1-0.7,7.6,2.5
		c0.4,0.8,1.1,1.5,1.6,2.2c0.7-0.7,1.6-1.4,2-2.2c2-3.5,4.4-4.2,7.9-2.3c0.8,0.4,2.3,0.8,2.5,0.6c0.5-0.8,1-2.2,0.7-2.9
		c-0.9-2-0.5-3.7,1.4-4.4C182.3,102.4,184.3,102.7,186.1,102.5z M187.2,36.1c0,1.5,0,2.8,0,4.1c-0.1,3.2-2.1,5.4-5.3,5.4
		c-16.7,0-33.4,0-50.1,0c-3.2,0-5.2-2.2-5.3-5.4c0-1.4,0-2.7,0-4.8c-2.1,0.7-4.3,0.7-5.1,1.8c-2.9,4.2-5.4,8.7-8.1,13.3
		c29.2,0,57.8,0,86.7,0c-2.4-4.3-4.5-8.2-6.8-12.1C192,36.2,190,35.6,187.2,36.1z M137.5,100c-0.7,1.5-1.2,2.3-1.5,3.2
		c-1.7,4.5-2.2,4.9-6.8,4.3c-0.8-0.1-1.7,0.1-2.6,0.2c0.3,1,0.4,2,0.8,2.8c1.7,2.8,1.2,5.4-1.2,7.5c-0.8,0.7-1.2,1.7-1.8,2.5
		c1,0.4,2.1,1,3.1,1.1c4,0.2,4.9,1.4,4.4,5.2c-0.1,0.9,0.7,2.3,1.5,2.8c0.5,0.3,1.8-0.6,2.7-1.1c0.9-0.6,1.7-1.4,2.6-2.1
		c2.5-1.9,3.4,1.5,5.4,1.6c0.8,0,1.5,0.3,2.3,0.5c0-0.7,0-1.4,0.1-2.1c0-2.1-0.8-4.6,1.6-5.9c1-0.5,2.3-0.3,3.4-0.7
		c0.8-0.2,1.4-0.9,2.1-1.3c-0.6-0.6-1-1.4-1.7-1.8c-4-2.3-4.6-4.2-2.8-8.3c0.4-0.8,0.3-1.8,0.5-2.7c-0.9,0.2-1.8,0.2-2.6,0.5
		c-3.5,1.5-5.9,0.7-7.4-2.8C138.9,102.5,138.4,101.7,137.5,100z M133.2,8.9c15.9,0,31.8,0,47.7,0c-2-5.6-2-5.6-7.4-5.6
		c-11,0-22.1,0-33.1,0C135.1,3.3,135,3.4,133.2,8.9z M128.7,74c0.3,2.2,0,4.6,0.9,5.2c1.1,0.8,3.3,0.2,5.1,0.2
		c-0.3-2.1-0.1-4.1-0.9-4.9C132.9,73.8,130.9,74.2,128.7,74z"/>
	<path fill="#FFFFFF" d="M66.2,117.9c0-10,0-20.1,0-30.1c0-4.3,1.9-6.2,6.2-6.2c8,0,16.1,0,24.1,0c4.2,0,6.1,1.9,6.1,6
		c0,20.2,0,40.4,0,60.5c0,4.1-1.9,6.1-6.1,6.1c-7.9,0-15.9,0-23.8,0c-4.8,0-6.6-1.8-6.6-6.5C66.2,137.7,66.2,127.8,66.2,117.9
		C66.2,117.9,66.2,117.9,66.2,117.9z"/>
	<path fill="#FFFFFF" d="M247.5,117.9c0,9.9,0,19.9,0,29.8c0,4.6-1.8,6.4-6.4,6.4c-7.9,0-15.9,0-23.8,0c-4.4,0-6.3-1.9-6.3-6.2
		c0-20.2,0-40.4,0-60.5c0-3.9,2-5.9,5.9-6c8.2,0,16.5,0,24.7,0c3.9,0,5.8,2,5.9,6C247.5,97.7,247.5,107.8,247.5,117.9z"/>
	<path fill="#FFFFFF" d="M217.1,64.5c0.9,0,1.8,0,2.7,0c9.2-0.4,11.5,4.9,11.1,12.9c0,0.8-1.1,1.5-1.8,2.3c-0.6-0.8-1.6-1.6-1.6-2.4
		c-1-9.3-1.1-9.5-10.6-9.4c-1.7,0-3.4,0.2-5.1,0c-0.9-0.1-1.7-1.1-2.6-1.6c0.9-0.5,1.8-1.4,2.7-1.5c1.7-0.3,3.4-0.1,5.1-0.1
		C217.1,64.6,217.1,64.5,217.1,64.5z"/>
	<path fill="#FFFFFF" d="M96.6,67.8c-0.5,0-1,0-1.5,0c-7.8,0-9,1.2-9.3,8.9c0,1-1.1,1.9-1.7,2.9c-0.5-0.9-1.4-1.8-1.5-2.8
		C82.5,75,82.6,73,83,71.2c0.9-4.1,3.4-6.3,7.5-6.6c3.9-0.2,7.8-0.1,11.7,0.1c0.7,0,1.3,1.1,2,1.7c-0.6,0.5-1.2,1.4-1.9,1.4
		C100.4,68,98.5,67.9,96.6,67.8C96.6,67.9,96.6,67.9,96.6,67.8z"/>
	<path fill="#FFFFFF" d="M166.1,101.4c-5.9,0-10.2-4-10.3-9.4c-0.1-5.9,4.7-10.9,10-10.8c5.5,0.2,10.1,3.7,10.1,8
		C176,98.4,173.7,101.4,166.1,101.4z"/>
	<path fill="#FFFFFF" d="M138.5,121.3c-4.1,0-5.6-1.3-5.6-5.1c0-4.1,1.4-5.4,5.6-5.4c4.4,0,5.5,1.2,5.5,5.4
		C144,119.8,142.4,121.3,138.5,121.3z"/>
</g>
<g>
	<path fill="#FFFFFF" d="M92,172.6c4.9,0,7.3,2.6,7.5,7.4l2.4,60.4H82.6l-2.1-51.9h-1.5L72.4,223c-0.7,4.3-3.5,6.5-8.1,6.5h-11
		c-4.5,0-7.4-2.2-8.2-6.5l-6.8-34.6H37l-1.7,51.9H16.2l2.4-60.4c0.2-4.8,2.6-7.4,7.5-7.4h18.4c4.4,0,7.3,2.2,8.1,6.6l4.9,26.9
		c0.5,3.3,0.8,6.8,1.1,10.1h0.9c0.4-3.3,0.7-6.8,1.2-10.1l4.6-26.9c0.8-4.4,3.6-6.6,8.2-6.6L92,172.6L92,172.6z"/>
	<path fill="#FFFFFF" d="M167.2,212.3c0,21.6-7.7,29.4-28.9,29.4c-22.9,0-31.1-7.8-31.1-29.4v-39.8h21.3v39.8
		c0,10.9,1.9,13.6,8.7,13.6c6.8,0,8.6-2.7,8.6-13.6v-39.8h21.3L167.2,212.3L167.2,212.3z"/>
	<path fill="#FFFFFF" d="M173.8,172.6c8.6-0.5,17.4-1,29-1c23.3,0,31.6,7.4,31.6,34.9s-8.3,34.9-31.6,34.9c-11.3,0-20.4-0.4-29-1
		V172.6z M202.7,225.9c7.3,0,9.1-3.7,9.1-19.4S210,187,202.7,187h-7.7v38.8L202.7,225.9z"/>
	<path fill="#FFFFFF" d="M239.5,172.6c8.6-0.5,17.4-1,29-1c23.3,0,31.6,7.4,31.6,34.9s-8.3,34.9-31.6,34.9c-11.3,0-20.4-0.4-29-1
		V172.6z M268.4,225.9c7.3,0,9.1-3.7,9.1-19.4s-1.9-19.4-9.1-19.4h-7.7v38.8L268.4,225.9z"/>
	<path fill="#FFFFFF" d="M64.9,320.8H43.6v-28.5H26.5v28.5H5.2V253h21.3v24.4h17.1V253h21.3L64.9,320.8L64.9,320.8z"/>
	<path fill="#FFFFFF" d="M92.7,306.2l-3.4,14.6H67.6l17.6-62.3c0.9-3.3,3.7-5.5,7.2-5.5h19.3c3.4,0,6.3,2.2,7.2,5.5l17.6,62.3h-21.7
		l-3.4-14.6H92.7z M104.5,276.7c-0.5-2.5-1-5.3-1.2-7.8h-2.7c-0.3,2.5-0.7,5.3-1.2,7.8l-3.3,14.5h11.7L104.5,276.7z"/>
	<path fill="#FFFFFF" d="M190.7,318.7c-6.9,2.4-13.2,3.2-23.8,3.2c-22.5,0-30.7-9.2-30.7-35.1s8.2-35.1,30.7-35.1
		c10.6,0,15.5,0.8,22.3,2.7l-1.6,15.5c-6.9-0.1-11.4-0.2-20.7-0.2c-6.7,0-8.3,3.3-8.3,17.1c0,13.7,1.7,17.1,8.3,17.1
		c9.8,0,15.6-0.1,22.2-0.8L190.7,318.7z"/>
	<path fill="#FFFFFF" d="M216.5,292.5c0.5,2.2,0.8,4.3,0.8,6.2v22.1H196V253h21.3v17.1c0,2.8-0.3,5.8-1,8.6h3.7l14.1-25.7h22.9
		l-15.6,26.5c-1.7,3-4.1,5.2-6,6v0.4c1.9,0.8,5.2,3.7,6.8,6.7l15.8,28.2h-23.7l-14.3-28.3L216.5,292.5L216.5,292.5z"/>
	<path fill="#FFFFFF" d="M273.6,292c-11-4.9-15.1-10.5-15.1-20.4c0-15.4,7.5-19.9,27.9-19.9c7.1,0,16.5,0.6,24.6,3.4l-1.3,13.7
		c-5.9-0.1-15.4-0.2-23.9-0.2c-4.9,0-6.3,0.5-6.3,2.6c0,1.9,1.3,2.8,5.9,4.6l12.3,5.1c11.3,4.9,15.2,10.7,15.2,20.6
		c0,15.2-6.6,20.7-27.7,20.7c-4.6,0-14.4-0.3-26.2-3.3l1.3-14.9c11.7,0.3,21,0.5,24.6,0.5c5.4,0,6.7-0.5,6.7-2.4
		c0-1.9-1-2.7-4.6-4.1L273.6,292z"/>
</g>
</svg>
