<?xml version="1.0" encoding="utf-8"?>
<!-- Generator: Adobe Illustrator 18.0.0, SVG Export Plug-In . SVG Version: 6.00 Build 0)  -->
<!DOCTYPE svg PUBLIC "-//W3C//DTD SVG 1.1//EN" "http://www.w3.org/Graphics/SVG/1.1/DTD/svg11.dtd">
<svg version="1.1" id="Layer_1" xmlns="http://www.w3.org/2000/svg" xmlns:xlink="http://www.w3.org/1999/xlink" x="0px" y="0px"
	 viewBox="0 0 440 421.1" enable-background="new 0 0 440 421.1" xml:space="preserve">
<g>
	<path fill-rule="evenodd" clip-rule="evenodd" fill="#FFFFFF" d="M185.1,62c0.7-1,2.7-1,4.6-1.6c0,1.8,0,3.1,0,4.3
		c0.1,2.9,1.9,4.9,4.8,4.9c15.1,0,30.2,0,45.3,0c2.9,0,4.7-2,4.8-4.9c0-1.2,0-2.3,0-3.7c2.5-0.4,4.4,0.1,5.6,2.1
		c2.1,3.5,4,7.1,6.2,11c-0.3,0-0.5,0-0.8,0c1.9,0.6,3.7,1.3,5.5,2c-2.6-5-5.5-9.8-8.2-14.6c-1.4-2.4-3.5-3.6-6.3-3.6
		c-0.6,0-1.2-0.2-1.9-0.3c0-3.1-0.3-6,0.1-8.9c0.7-6.3-1-11.8-4.3-17c-1.4-2.2-2.9-3.4-5.7-3.4c-10.1,0.1-20.2,0-30.3,0.1
		c-9.1,0.1-7.3-1.4-12.3,7.3c-1.8,3.2-2.6,6.3-2.4,9.8c0.2,4,0,8,0,12.5c-5.4-1.1-7.7,2.1-9.8,5.9c-2.1,3.9-4.4,7.7-6.5,11.6
		c2.1-1.3,4-2.9,6-4.3C181.2,68.1,183,65,185.1,62z M202.2,31.4c10,0,20,0,30,0c4.8,0,4.9,0,6.7,5.1c-14.4,0-28.8,0-43.2,0
		C197.3,31.4,197.4,31.4,202.2,31.4z"/>
	<path fill-rule="evenodd" clip-rule="evenodd" fill="#FFFFFF" d="M261.8,77.6c-0.3-0.5-0.5-1-0.8-1.6c-1.8-0.7-3.6-1.4-5.5-2
		c-25.9,0-51.6,0-77.8,0c0.5-0.9,1.1-1.8,1.6-2.7c-2,1.4-3.9,3-6,4.3c-0.1,0.3-0.3,0.5-0.4,0.8c-0.7,1.3-1.1,2.9-1.1,4.4
		c-0.1,11.8-0.2,23.7-0.2,35.5c0,13.9,0.1,27.9,0.2,41.8c0,3.8,2.2,5.9,5.9,6c7.5,0.1,14.9,0.2,22.4,0.2c18.8,0,37.5-0.1,56.3-0.2
		c3.8,0,5.8-2.1,6-5.9c0.1-0.9,0.2-1.8,0.2-2.7c0-23.9,0-47.7,0-71.6C262.6,81.7,262.7,79.4,261.8,77.6z M196.2,95.9
		c0.8,0.7,0.5,2.5,0.8,4.4c-1.6,0-3.6,0.6-4.6-0.2c-0.8-0.6-0.6-2.7-0.8-4.7C193.6,95.6,195.4,95.2,196.2,95.9z M212.1,136.7
		c-1,0.3-2.2,0.2-3.1,0.6c-2.2,1.2-1.4,3.4-1.5,5.4c0,0.6,0,1.3,0,1.9c-0.7-0.1-1.4-0.4-2.1-0.4c-1.8-0.1-2.6-3.2-4.9-1.4
		c-0.8,0.6-1.5,1.3-2.4,1.9c-0.8,0.5-2,1.3-2.4,1c-0.7-0.5-1.5-1.8-1.4-2.6c0.5-3.5-0.3-4.5-3.9-4.7c-1,0-1.9-0.6-2.8-1
		c0.5-0.8,1-1.7,1.7-2.3c2.2-1.9,2.6-4.2,1.1-6.8c-0.4-0.7-0.5-1.7-0.8-2.6c0.8-0.1,1.6-0.3,2.4-0.2c4.2,0.5,4.7,0.2,6.2-3.9
		c0.3-0.8,0.7-1.5,1.4-2.9c0.8,1.5,1.3,2.2,1.7,3.1c1.4,3.1,3.5,3.9,6.7,2.5c0.7-0.3,1.6-0.3,2.4-0.5c-0.1,0.8-0.1,1.7-0.4,2.4
		c-1.7,3.7-1.1,5.4,2.5,7.5c0.6,0.3,1,1.1,1.5,1.6C213.3,135.9,212.7,136.5,212.1,136.7z M244.6,110.1c-3.1,2.3-3.3,3.8-1.3,7.1
		c0.8,1.2,0.9,2.9,1.3,4.4c-0.3-0.1-0.6-0.2-0.9-0.4c-1.7,0.1-3.4-0.1-5,0.5c-1.7,0.6-2,2.1-1.3,4c0.3,0.7-0.2,1.9-0.6,2.7
		c-0.2,0.2-1.6-0.1-2.3-0.5c-3.2-1.7-5.4-1.1-7.2,2.1c-0.4,0.8-1.2,1.3-1.8,2c-0.5-0.7-1.2-1.3-1.5-2c-1.3-3-3.9-3.8-6.9-2.3
		c-0.9,0.5-1.9,0.8-2.7,1.1c-0.7-2.8-0.8-5.3-2-7.2c-0.5-0.9-3.1-0.5-5.3-0.7c-0.9-0.9-0.7-2.2,0.6-3.7c2.4-2.8,2-5-0.9-7.1
		c-0.8-0.6-1.5-1.5-2.4-2.4c2.3-0.9,4.3-1.2,5.5-2.3c1.5-1.4,1.4-3.6,0.1-5.5c-0.4-0.6-0.6-1.7-0.2-2.1c0.4-0.5,1.4-0.4,2.2-0.6
		c0.2,0,0.4,0,0.5,0.1c4.2,0.9,4.8,0.6,5.9-3.5c0.2-0.8,0.3-1.6,0.5-3.2c1.2,0.8,2.3,1.1,2.9,1.9c1.9,2.7,5.7,2.7,7.6,0
		c0.6-0.8,1.7-1.2,2.8-1.9c1.3,7.7,1.7,7.9,9.8,6c-1.4,4.7-4.2,10.1,4.9,10.5C245.9,108.5,245.3,109.5,244.6,110.1z"/>
	<path fill-rule="evenodd" clip-rule="evenodd" fill="#FFFFFF" d="M135,135.1c0-9.1,0-18.2,0-27.3c0-3.9,1.7-5.6,5.7-5.6
		c7.3,0,14.6,0,21.8,0c3.8,0,5.6,1.7,5.6,5.5c0,18.3,0,36.6,0,54.8c0,3.7-1.8,5.5-5.5,5.5c-7.2,0-14.4,0-21.6,0c-4.3,0-6-1.6-6-5.9
		C135,153.1,135,144.1,135,135.1C135,135.1,135,135.1,135,135.1z"/>
	<path fill-rule="evenodd" clip-rule="evenodd" fill="#FFFFFF" d="M299.2,135.2c0,9,0,18,0,27c0,4.1-1.7,5.8-5.8,5.8
		c-7.2,0-14.4,0-21.6,0c-4,0-5.7-1.7-5.7-5.6c0-18.3,0-36.6,0-54.8c0-3.5,1.8-5.4,5.4-5.4c7.5,0,14.9,0,22.4,0
		c3.5,0,5.3,1.8,5.3,5.4C299.2,116.8,299.2,126,299.2,135.2z"/>
	<path fill-rule="evenodd" clip-rule="evenodd" fill="#FFFFFF" d="M271.7,86.7c0.8,0,1.6,0,2.5,0c8.4-0.3,10.4,4.4,10.1,11.7
		c0,0.7-1,1.4-1.6,2.1c-0.5-0.7-1.4-1.4-1.5-2.2c-0.9-8.4-1-8.6-9.6-8.5c-1.5,0-3.1,0.2-4.6,0c-0.8-0.1-1.6-1-2.4-1.5
		c0.8-0.5,1.6-1.2,2.5-1.4c1.5-0.2,3.1-0.1,4.6-0.1C271.7,86.8,271.7,86.8,271.7,86.7z"/>
	<path fill-rule="evenodd" clip-rule="evenodd" fill="#FFFFFF" d="M162.5,89.8c-0.5,0-0.9,0-1.4,0c-7.1,0-8.2,1.1-8.5,8.1
		c0,0.9-1,1.7-1.5,2.6c-0.5-0.8-1.3-1.7-1.3-2.5c-0.1-1.7,0-3.5,0.3-5.1c0.8-3.7,3.1-5.7,6.8-5.9c3.5-0.2,7.1-0.1,10.6,0.1
		c0.6,0,1.2,1,1.8,1.5c-0.6,0.5-1.1,1.2-1.7,1.3C166,90,164.2,89.8,162.5,89.8C162.5,89.8,162.5,89.8,162.5,89.8z"/>
	<path fill-rule="evenodd" clip-rule="evenodd" fill="#FFFFFF" d="M225.5,120.2c-5.3,0-9.2-3.6-9.3-8.5c-0.1-5.3,4.2-9.9,9.1-9.8
		c5,0.2,9.2,3.3,9.2,7.3C234.4,117.5,232.3,120.2,225.5,120.2z"/>
	<path fill-rule="evenodd" clip-rule="evenodd" fill="#FFFFFF" d="M200.5,138.2c-3.7,0-5-1.2-5.1-4.6c0-3.7,1.2-4.9,5-4.9
		c3.9,0,5,1,5,4.9C205.5,136.8,204,138.2,200.5,138.2z"/>
</g>
<g>
	<path fill="#FFFFFF" d="M158.3,184.7c4.4,0,6.6,2.3,6.8,6.7l2.1,54.7h-17.3l-1.9-47h-1.3l-6,31.3c-0.6,3.9-3.2,5.9-7.3,5.9h-10
		c-4.1,0-6.7-2-7.4-5.9l-6.1-31.3h-1.3l-1.5,47H89.6l2.1-54.7c0.2-4.4,2.3-6.7,6.8-6.7h16.6c4,0,6.6,2,7.3,6l4.4,24.4
		c0.4,3,0.7,6.1,1,9.2h0.8c0.4-3,0.6-6.1,1.1-9.2l4.2-24.4c0.7-4,3.3-6,7.4-6H158.3z"/>
	<path fill="#FFFFFF" d="M226.4,220.7c0,19.6-6.9,26.6-26.1,26.6c-20.7,0-28.2-7-28.2-26.6v-36h19.3v36c0,9.9,1.7,12.3,7.9,12.3
		c6.1,0,7.8-2.4,7.8-12.3v-36h19.3V220.7z"/>
	<path fill="#FFFFFF" d="M232.4,184.7c7.8-0.4,15.7-0.9,26.2-0.9c21.1,0,28.6,6.7,28.6,31.6c0,24.9-7.6,31.6-28.6,31.6
		c-10.2,0-18.5-0.4-26.2-0.9V184.7z M258.6,233c6.6,0,8.3-3.4,8.3-17.6c0-14.2-1.7-17.6-8.3-17.6h-6.9v35.1L258.6,233z"/>
	<path fill="#FFFFFF" d="M291.9,184.7c7.8-0.4,15.7-0.9,26.2-0.9c21.1,0,28.6,6.7,28.6,31.6c0,24.9-7.6,31.6-28.6,31.6
		c-10.2,0-18.5-0.4-26.2-0.9V184.7z M318.1,233c6.6,0,8.3-3.4,8.3-17.6c0-14.2-1.7-17.6-8.3-17.6h-6.9v35.1L318.1,233z"/>
	<path fill="#FFFFFF" d="M133.8,318.9h-19.3v-25.8H99v25.8H79.7v-61.4H99v22.1h15.5v-22.1h19.3V318.9z"/>
	<path fill="#FFFFFF" d="M159,305.7l-3.1,13.3h-19.7l15.9-56.4c0.8-3,3.4-5,6.5-5h17.5c3.1,0,5.7,2,6.5,5l15.9,56.4h-19.7l-3.1-13.3
		H159z M169.7,279c-0.4-2.2-0.9-4.8-1.1-7h-2.4c-0.3,2.2-0.6,4.8-1.1,7l-3,13.2h10.6L169.7,279z"/>
	<path fill="#FFFFFF" d="M247.7,317c-6.2,2.1-11.9,2.9-21.5,2.9c-20.4,0-27.8-8.4-27.8-31.8c0-23.4,7.5-31.8,27.8-31.8
		c9.6,0,14.1,0.7,20.2,2.4l-1.4,14.1c-6.2-0.1-10.3-0.2-18.8-0.2c-6,0-7.6,3-7.6,15.5s1.5,15.5,7.6,15.5c8.9,0,14.1-0.1,20.1-0.7
		L247.7,317z"/>
	<path fill="#FFFFFF" d="M271.1,293.3c0.4,2,0.7,3.9,0.7,5.6v20h-19.3v-61.4h19.3V273c0,2.5-0.3,5.2-0.9,7.8h3.4l12.8-23.3h20.7
		l-14.1,24c-1.5,2.8-3.7,4.7-5.4,5.4v0.4c1.7,0.7,4.7,3.4,6.1,6l14.3,25.5h-21.4l-13-25.6H271.1z"/>
	<path fill="#FFFFFF" d="M322.8,292.9c-10-4.4-13.7-9.5-13.7-18.5c0-14,6.8-18.1,25.3-18.1c6.4,0,14.9,0.5,22.3,3.1l-1.2,12.4
		c-5.3-0.1-14-0.2-21.6-0.2c-4.4,0-5.7,0.4-5.7,2.3c0,1.7,1.2,2.6,5.3,4.2l11.1,4.6c10.2,4.4,13.8,9.7,13.8,18.7
		c0,13.8-6,18.8-25.1,18.8c-4.2,0-13.1-0.3-23.7-3l1.2-13.5c10.6,0.3,19,0.4,22.3,0.4c4.9,0,6-0.4,6-2.1c0-1.7-0.9-2.5-4.2-3.7
		L322.8,292.9z"/>
</g>
<g>
	<path fill="#FFFFFF" d="M131.7,340.1c-3.6,0-4.9,1.3-4.9,4.8v4.5h8.5v2.6h-8.5v22.5h-3.3V352h-4.5v-2.3l4.5-0.3v-4.8
		c0-4.6,1.9-7.2,7.1-7.2c1.6,0,4.8,0.1,6.7,0.3l-0.2,2.4H131.7z"/>
	<path fill="#FFFFFF" d="M140.6,349.9c3.4-0.5,7.8-1.1,12.1-1.1c5.1,0,8,2,8,7.7v18.1h-2.6l-0.4-4.4c-2.1,2.1-6.3,4.8-11,4.8
		c-4.4,0-7.2-2.4-7.2-6.8v-2.9c0-3.9,2.4-6.1,6.6-6.1h11.3v-2.6c0-3.2-1.2-4.9-5.3-4.9c-3,0-7.3,0.3-11.2,0.7L140.6,349.9z
		 M142.9,367.8c0,2.9,1.5,4.2,4.4,4.2c3,0.1,7.2-1.6,10.1-4.3v-6h-10.7c-2.6,0.1-3.8,1.5-3.8,3.9V367.8z"/>
	<path fill="#FFFFFF" d="M172.6,368.3c0,2.4,1.3,3.6,3.7,3.6h2.6l0.4,2.5c-0.8,0.3-3,0.5-4.2,0.5c-3.5,0-5.8-2.1-5.8-6v-30.7h3.3
		V368.3z"/>
	<path fill="#FFFFFF" d="M187.4,368.3c0,2.4,1.3,3.6,3.7,3.6h2.6l0.4,2.5c-0.8,0.3-3,0.5-4.2,0.5c-3.5,0-5.8-2.1-5.8-6v-30.7h3.3
		V368.3z"/>
	<path fill="#FFFFFF" d="M208.3,339.4c4.9-1.1,7.6-1.3,10.7-1.3c6.7,0,10.8,1.2,10.8,7.5c0,4.6-1.9,8-6.7,13.4l-10.9,12.4
		c1.9-0.1,4-0.1,6-0.1h13v3.2h-23.1v-2.1c0-0.6,0.1-1.1,0.5-1.6l11.1-12.7c4.6-5.2,6.7-8.9,6.6-12.6c-0.2-4-3-4.5-7.5-4.5
		c-3.3,0-5.8,0.2-10.2,1L208.3,339.4z"/>
	<path fill="#FFFFFF" d="M261.5,356.6c0,12.9-3.1,18.5-11.9,18.5c-8.9,0-11.9-5.6-11.9-18.5s3-18.5,11.9-18.5
		C258.4,338.1,261.5,343.7,261.5,356.6z M241,356.6c0,11,2.1,15.6,8.6,15.6c6.5,0,8.6-4.6,8.6-15.6c0-11-2.1-15.6-8.6-15.6
		C243.1,341,241,345.6,241,356.6z"/>
	<path fill="#FFFFFF" d="M275.8,374.5v-29.7c0-1,0.1-1.9,0.2-2.9l-9.1,2.9l-0.5-2.4l9.3-3.7h3.4v35.8H275.8z"/>
	<path fill="#FFFFFF" d="M309.9,365.2v9.3h-3.3v-9.3H291c-2.6,0-4.2-2.6-3.1-5l10.7-21.5h3.4l-10.6,21.5c-0.7,1.3,0.1,2.2,1.3,2.2
		h13.9v-10.9l0.7-6h2.6v16.9h4.5v2.4L309.9,365.2z"/>
</g>
</svg>
