<?xml version="1.0" encoding="utf-8"?>
<!-- Generator: Adobe Illustrator 16.0.0, SVG Export Plug-In . SVG Version: 6.00 Build 0)  -->
<!DOCTYPE svg PUBLIC "-//W3C//DTD SVG 1.1//EN" "http://www.w3.org/Graphics/SVG/1.1/DTD/svg11.dtd">
<svg version="1.1" id="Layer_1" xmlns:sketch="http://www.bohemiancoding.com/sketch/ns"
	 xmlns="http://www.w3.org/2000/svg" xmlns:xlink="http://www.w3.org/1999/xlink" x="0px" y="0px" width="400px" height="160px"
	 viewBox="0 0 400 160" enable-background="new 0 0 400 160" xml:space="preserve">
<title>Artboard 1</title>
<desc>Created with Sketch.</desc>
<path fill="#525358" d="M136.8,48.19c0-0.012,0-0.027,0-0.036l0,0c0.002-1.435-0.005-2.869-0.041-4.3
	c-0.081-3.447-2.487-5.825-5.824-5.877c-3.411-0.05-5.989,2.397-6.089,5.91c-0.045,1.421-0.047,2.844-0.045,4.267l0,0
	c0,0.009,0,0.024,0,0.036s0,0.024,0,0.036l0,0c-0.002,1.419,0,2.846,0.044,4.265c0.1,3.513,2.678,5.959,6.089,5.908
	c3.336-0.051,5.743-2.427,5.822-5.877c0.038-1.431,0.045-2.866,0.041-4.295l0,0C136.8,48.215,136.8,48.203,136.8,48.19z"/>
<path fill="#525358" d="M136.8,80.19c0-0.012,0-0.027,0-0.036l0,0c0.002-1.435-0.005-2.869-0.041-4.3
	c-0.081-3.447-2.487-5.825-5.824-5.877c-3.411-0.05-5.989,2.397-6.089,5.91c-0.045,1.421-0.047,2.844-0.045,4.267l0,0
	c0,0.009,0,0.024,0,0.036s0,0.024,0,0.036l0,0c-0.002,1.42,0,2.846,0.044,4.265c0.1,3.513,2.678,5.96,6.089,5.908
	c3.336-0.052,5.743-2.427,5.822-5.878c0.038-1.431,0.045-2.865,0.041-4.295l0,0C136.8,80.215,136.8,80.203,136.8,80.19z"/>
<path fill="#525358" d="M160,111.391c0-0.013,0-0.026,0-0.036l0,0c0.002-1.436-0.005-2.869-0.041-4.3
	c-0.081-3.447-2.487-5.825-5.824-5.878c-3.411-0.049-5.989,2.398-6.089,5.91c-0.045,1.422-0.047,2.844-0.045,4.268l0,0
	c0,0.01,0,0.023,0,0.036s0,0.024,0,0.036l0,0c-0.002,1.42,0,2.846,0.044,4.265c0.1,3.513,2.678,5.96,6.089,5.908
	c3.336-0.052,5.743-2.427,5.822-5.878c0.038-1.431,0.045-2.865,0.041-4.295l0,0C160,111.415,160,111.403,160,111.391z"/>
<path fill="#525358" d="M112.8,80.19c0-0.012,0-0.027,0-0.036l0,0c0.002-1.435-0.005-2.869-0.041-4.3
	c-0.081-3.447-2.487-5.825-5.824-5.877c-3.411-0.05-5.989,2.397-6.089,5.91c-0.045,1.421-0.047,2.844-0.045,4.267l0,0
	c0,0.009,0,0.024,0,0.036s0,0.024,0,0.036l0,0c-0.002,1.42,0,2.846,0.044,4.265c0.1,3.513,2.678,5.96,6.089,5.908
	c3.336-0.052,5.743-2.427,5.822-5.878c0.038-1.431,0.045-2.865,0.041-4.295l0,0C112.8,80.215,112.8,80.203,112.8,80.19z"/>
<path fill="#525358" d="M183.8,48.19c0-0.012,0-0.027,0-0.036l0,0c0.002-1.435-0.005-2.869-0.041-4.3
	c-0.081-3.447-2.487-5.825-5.824-5.877c-3.411-0.05-5.989,2.397-6.089,5.91c-0.045,1.421-0.047,2.844-0.045,4.267l0,0
	c0,0.009,0,0.024,0,0.036s0,0.024,0,0.036l0,0c-0.002,1.419,0,2.846,0.044,4.265c0.1,3.513,2.678,5.959,6.089,5.908
	c3.336-0.051,5.743-2.427,5.822-5.877c0.038-1.431,0.045-2.866,0.041-4.295l0,0C183.8,48.215,183.8,48.203,183.8,48.19z"/>
<path fill="#525358" d="M183.759,75.854c-0.081-3.447-2.487-5.825-5.824-5.877c-3.411-0.05-5.989,2.397-6.089,5.91
	c-0.045,1.421-0.047,2.844-0.045,4.267c0,0.009,0,0.024,0,0.036s0,0.024,0,0.036c-0.002,1.42,0,2.846,0.044,4.265
	c0.1,3.513,2.678,5.96,6.089,5.908c3.336-0.052,5.743-2.427,5.822-5.878c0.038-1.431,0.045-2.865,0.041-4.295
	c0.003-0.012,0.003-0.024,0.003-0.036s0-0.027,0-0.036C183.802,78.719,183.794,77.286,183.759,75.854z M180.796,80.236
	c0.004,1.4-0.002,2.805-0.04,4.207c-0.042,1.828-1.114,2.93-2.869,2.957l-0.06,0.001c-1.761,0-2.932-1.176-2.984-2.995
	c-0.044-1.408-0.046-2.834-0.043-4.173c-0.001-1.562,0-2.898,0.044-4.249c0.052-1.831,1.225-3.007,2.988-3.007
	c1.81,0.028,2.884,1.13,2.927,2.949c0.032,1.288,0.041,2.574,0.041,3.86l-0.005,0.017L180.796,80.236z"/>
<path fill="#525358" d="M253.158,75.854c-0.081-3.447-2.487-5.825-5.823-5.877c-3.412-0.05-5.989,2.397-6.09,5.91
	c-0.045,1.421-0.047,2.844-0.045,4.267c0,0.009,0,0.024,0,0.036s0,0.024,0,0.036c-0.002,1.42,0,2.846,0.045,4.265
	c0.1,3.513,2.678,5.96,6.088,5.908c3.337-0.052,5.743-2.427,5.822-5.878c0.037-1.431,0.045-2.865,0.041-4.295
	c0.003-0.012,0.003-0.024,0.003-0.036s0-0.027,0-0.036C253.201,78.719,253.194,77.286,253.158,75.854z M250.196,80.236
	c0.004,1.4-0.003,2.805-0.04,4.207c-0.042,1.828-1.114,2.93-2.869,2.957l-0.06,0.001c-1.761,0-2.932-1.176-2.984-2.995
	c-0.044-1.408-0.045-2.834-0.043-4.173c-0.002-1.562,0-2.898,0.044-4.249c0.052-1.831,1.226-3.007,2.988-3.007
	c1.81,0.028,2.884,1.13,2.927,2.949c0.031,1.288,0.041,2.574,0.041,3.86l-0.006,0.017L250.196,80.236z"/>
<path fill="#525358" d="M230.8,48.19c0-0.012,0-0.027,0-0.036l0,0c0.002-1.435-0.005-2.869-0.041-4.3
	c-0.081-3.447-2.487-5.825-5.823-5.877c-3.412-0.05-5.989,2.397-6.09,5.91c-0.045,1.421-0.047,2.844-0.045,4.267l0,0
	c0,0.009,0,0.024,0,0.036s0,0.024,0,0.036l0,0c-0.002,1.419,0,2.846,0.045,4.265c0.1,3.513,2.678,5.959,6.088,5.908
	c3.337-0.051,5.743-2.427,5.822-5.877c0.037-1.431,0.045-2.866,0.041-4.295l0,0C230.8,48.215,230.8,48.203,230.8,48.19z"/>
<path fill="#525358" d="M205.375,79.799c-0.089-0.081-0.188-0.217-0.146-0.417c0.038-0.182,0.075-0.2,0.229-0.34
	c0.638-0.578,1.604-1.646,1.604-3.689c0-4.943-3.75-5.563-3.75-5.563h-6.438c-1.188,0.188-1.125,1.125-1.125,1.125V88.25
	c0,0-0.063,0.938,1.125,1.125h6.438c0,0,3.96-0.619,4-5.563C207.332,81.417,206.013,80.377,205.375,79.799z M199.188,75.362v-0.081
	v-2.337H202c0,0,1.801,0.087,1.8,2.337c0,0.015,0.001,0.025,0,0.04c0.001,0.016,0,0.025,0,0.041C203.801,77.906,202,78,202,78
	h-2.813V75.362z M204.125,83.8c-0.003,0-0.006,0-0.009,0c-0.051,2.385-2.116,2.638-2.116,2.638h-2.813V83.8v-0.081v-2.638H202
	c0,0,2.065,0.253,2.116,2.638c0.003,0,0.006,0,0.009,0c0,0.016-0.004,0.025-0.005,0.041C204.121,83.774,204.125,83.785,204.125,83.8
	z"/>
<path fill="#525358" d="M294.067,78.579v0.006c-0.768,0.032-1.38,0.645-1.38,1.4s0.612,1.367,1.38,1.4v0.006h2.618
	c-0.003,1.017-0.002,2.034-0.029,3.051c-0.042,1.828-1.114,2.93-2.869,2.957l-0.06,0.001c-1.761,0-2.932-1.176-2.984-2.995
	c-0.044-1.408-0.045-2.834-0.043-4.173c-0.002-1.562,0-2.898,0.044-4.249c0.052-1.831,1.226-3.007,2.988-3.007
	c1.411,0.022,2.366,0.704,2.743,1.861l0.004-0.002c0.004,0.007,0.005,0.015,0.009,0.022c0.385,0.763,1.299,1.076,2.046,0.701
	c0.743-0.375,1.037-1.297,0.653-2.06c-0.007-0.013-0.017-0.024-0.023-0.037l0.004-0.002c-0.874-2.107-2.844-3.443-5.333-3.483
	c-3.412-0.05-5.989,2.397-6.09,5.91c-0.045,1.421-0.047,2.844-0.045,4.267c0,0.009,0,0.024,0,0.036s0,0.024,0,0.036
	c-0.002,1.42,0,2.846,0.045,4.265c0.1,3.513,2.678,5.96,6.088,5.908c3.337-0.052,5.743-2.427,5.822-5.878
	c0.027-1.043,0.027-2.087,0.03-3.13v-2.813H294.067z"/>
<path fill="#525358" d="M230.434,87.415c-0.291-0.579-0.888-0.891-1.482-0.841h-6.04v-15.16c-0.002-0.234-0.05-0.471-0.162-0.695
	c-0.385-0.763-1.298-1.075-2.045-0.7c-0.532,0.267-0.826,0.813-0.816,1.38h-0.002v0.083c0,0.002,0,0.004,0,0.006v16.863l0.001,0.001
	c0,0.002-0.001,0.004-0.001,0.006c0,0.65,0.485,1.17,1.097,1.223L221,89.6h8.101c0.231,0.005,0.467-0.038,0.688-0.149
	C230.522,89.079,230.813,88.168,230.434,87.415z"/>
<path fill="#525358" d="M276.522,88.184V71.515h-0.014c-0.004-0.229-0.054-0.461-0.168-0.68c-0.396-0.762-1.337-1.075-2.107-0.7
	c-0.59,0.288-0.9,0.897-0.836,1.51V82.07l-5.012-10.845c-0.03-0.112-0.072-0.223-0.129-0.331c-0.435-0.821-1.479-1.15-2.339-0.736
	c-0.607,0.292-0.95,0.878-0.95,1.487h-0.03v16.753h0.023c0.005,0.229,0.055,0.46,0.168,0.679c0.396,0.762,1.338,1.076,2.108,0.701
	c0.605-0.297,0.915-0.935,0.825-1.566V77.974l5.131,11.104l0.003-0.002c0.005,0.01,0.007,0.02,0.012,0.029
	c0.432,0.821,1.483,1.146,2.354,0.728C276.223,89.512,276.583,88.847,276.522,88.184z"/>
</svg>
